<svg width="30" height="31" viewBox="0 0 30 31" fill="none" xmlns="http://www.w3.org/2000/svg">
<g clip-path="url(#clip0_2752_42)">
<path d="M15.0503 30.5638C23.3067 30.5638 29.9999 23.8706 29.9999 15.6141C29.9999 7.35762 23.3067 0.664429 15.0503 0.664429C6.79378 0.664429 0.100586 7.35762 0.100586 15.6141C0.100586 23.8706 6.79378 30.5638 15.0503 30.5638Z" fill="#444444"/>
<path fill-rule="evenodd" clip-rule="evenodd" d="M10.8857 10.5419H19.2682C19.5885 10.5419 19.8555 10.5953 20.1758 10.7554C20.5496 10.9156 20.7632 11.1826 20.8699 11.3961C20.8699 11.3961 20.8699 11.4495 20.9233 11.4495C21.0835 11.7165 21.1903 12.0368 21.1903 12.4106C21.1903 12.7309 21.1369 13.0513 20.9233 13.3716L15.6376 22.4482C15.5308 22.6618 15.3172 22.7686 15.0502 22.7686C14.8367 22.7686 14.6231 22.6618 14.4629 22.4482L9.28395 13.3716C9.17716 13.1581 8.9636 12.8911 8.9636 12.464C8.9102 12.0902 9.01699 11.7699 9.17716 11.4495C9.33734 11.1292 9.6043 10.8622 9.97804 10.7554C10.2984 10.5419 10.6721 10.5419 10.8857 10.5419ZM14.4095 11.8233H10.8857C10.6721 11.8233 10.5653 11.8233 10.512 11.8767C10.4052 11.9301 10.3518 11.9834 10.2984 12.0902C10.245 12.1436 10.245 12.2504 10.245 12.3572C10.245 12.4106 10.2984 12.464 10.4052 12.6775L14.4095 19.6185V11.8233ZM15.6909 11.8233V19.6718L19.7487 12.6775C19.8021 12.5708 19.8021 12.464 19.8021 12.3572C19.8021 12.2504 19.8021 12.1436 19.7487 12.0902C19.6953 12.0368 19.6953 11.9834 19.6419 11.9834L19.5885 11.9301C19.4818 11.8767 19.375 11.8767 19.2148 11.8767H15.6909V11.8233Z" fill="black"/>
</g>
<defs>
<!-- <clipPath id="clip0_2752_42">
<rect width="29.8993" height="29.8993" fill="white" transform="translate(0.100586 0.664429)"/>
</clipPath> -->
</defs>
</svg>
