<svg width="29" height="29" viewBox="0 0 29 29" fill="none" xmlns="http://www.w3.org/2000/svg">
<g clip-path="url(#clip0_2752_37)">
<path d="M10.7468 16.8299C10.8664 17.0039 10.9734 17.1584 11.0803 17.3143C11.3918 17.7729 11.7024 18.2319 12.0124 18.6914C12.2843 19.096 12.5507 19.5038 12.8235 19.9071C13.0863 20.2959 13.3672 20.6729 13.6142 21.0712C13.7153 21.2334 13.8303 21.2561 13.9953 21.2556C16.4383 21.2523 18.8811 21.2523 21.3238 21.2556C21.8111 21.2581 22.2956 21.1816 22.7584 21.0291C23.2079 20.8795 23.6044 20.6276 23.9796 20.3362C24.2859 20.0962 24.5513 19.8081 24.7653 19.483C24.9855 19.1545 25.1699 18.8033 25.2637 18.4195C25.3385 18.1163 25.4128 17.8087 25.4368 17.4987C25.4577 17.2269 25.4191 16.9455 25.3892 16.6704C25.3272 16.1008 25.1092 15.5829 24.8061 15.1044C24.6107 14.7846 24.3598 14.5022 24.0652 14.2706C23.9111 14.1528 23.7525 14.04 23.6016 13.9181C23.5735 13.8954 23.5491 13.8229 23.564 13.7994C23.8282 13.3811 23.9651 12.9162 24.0489 12.4373C24.1236 12.0373 24.1165 11.6264 24.028 11.2292C23.9577 10.9114 23.8689 10.5979 23.762 10.2903C23.6057 9.85669 23.3415 9.48558 23.037 9.1421C22.6854 8.74833 22.2568 8.45561 21.7905 8.2295C21.4896 8.09259 21.1726 7.99423 20.8471 7.93678C20.5437 7.88206 20.2359 7.85581 19.9277 7.85839C18.9616 7.84932 17.9951 7.85612 17.0276 7.85839H16.8554C18.2185 5.85737 19.5652 3.879 20.925 1.88523C21.2789 2.07146 21.6423 2.24773 21.993 2.45028C22.3102 2.63153 22.6238 2.82457 22.9219 3.03663C23.2786 3.29084 23.6207 3.56634 23.9641 3.84094C24.5596 4.31989 25.087 4.86954 25.5954 5.43867C25.7803 5.64666 25.9452 5.87277 26.1111 6.09662C26.3114 6.3685 26.5162 6.63675 26.6952 6.92177C26.9421 7.31463 27.1827 7.71293 27.3962 8.12437C27.6164 8.5485 27.8117 8.98532 27.9979 9.42758C28.1314 9.73578 28.2434 10.0528 28.3332 10.3764C28.4918 10.9678 28.6418 11.5632 28.7583 12.164C28.8383 12.6022 28.8905 13.0451 28.9146 13.4899C28.9477 14.0028 28.9694 14.5185 28.9517 15.0305C28.9341 15.5426 28.8724 16.0632 28.8117 16.5771C28.7714 16.9192 28.7125 17.2604 28.6391 17.5971C28.5057 18.2365 28.314 18.8623 28.0663 19.4667C27.8706 19.9334 27.6875 20.4074 27.4623 20.86C27.2568 21.2618 27.0299 21.6522 26.7826 22.0296C26.5348 22.417 26.2738 22.7999 25.9955 23.1624C25.5427 23.764 25.03 24.3182 24.4653 24.8163C24.0652 25.1666 23.6569 25.5101 23.2305 25.8273C22.8404 26.1168 22.4271 26.3769 22.013 26.6325C21.4112 27.004 20.7669 27.2959 20.1098 27.5564C19.6533 27.7331 19.1881 27.8865 18.716 28.0159C18.2934 28.1366 17.8647 28.235 17.4318 28.3109C16.9931 28.387 16.5507 28.4405 16.1064 28.4713C15.608 28.5062 15.1059 28.5252 14.6061 28.5134C14.0877 28.5087 13.5702 28.4703 13.0569 28.3983C12.4068 28.2997 11.7631 28.1635 11.1288 27.9905C10.5914 27.841 10.0703 27.6235 9.55235 27.4114C9.14453 27.2437 8.74351 27.0489 8.35246 26.8454C8.0172 26.6702 7.69223 26.4759 7.37913 26.2636C6.94413 25.9659 6.52136 25.6505 6.10267 25.3302C5.8761 25.1575 5.67174 24.9582 5.45741 24.771C5.39307 24.7144 5.384 24.6627 5.43883 24.5843C5.71977 24.181 5.9912 23.7719 6.26942 23.3672C6.50912 23.0183 6.75563 22.6735 6.99443 22.325C7.29621 21.8864 7.59301 21.4446 7.89389 21.0055C8.23011 20.5143 8.56996 20.0249 8.90528 19.5333C9.10148 19.2455 9.28908 18.9524 9.48483 18.6646C9.74674 18.2799 10.0132 17.8988 10.276 17.515C10.406 17.3252 10.5334 17.1331 10.6621 16.9423C10.6847 16.9092 10.7074 16.8798 10.7468 16.8299Z" fill="#444444"/>
<path d="M4.71906 7.89402L9.21366 14.555L3.64922 22.7114C3.54455 22.5655 3.44259 22.4395 3.35559 22.3008C3.16256 21.9954 2.9659 21.6909 2.79145 21.3746C2.61019 21.0434 2.43529 20.7045 2.28349 20.3578C2.08169 19.8974 1.89455 19.431 1.72206 18.9585C1.61253 18.6511 1.52174 18.3372 1.45018 18.0188C1.34369 17.5593 1.25307 17.0957 1.16652 16.6317C1.12846 16.4265 1.11396 16.2167 1.09311 16.0082C1.0265 15.3335 0.970315 14.657 1.00249 13.9787C1.02469 13.5387 1.06502 13.0982 1.1271 12.6619C1.18963 12.2178 1.2798 11.7769 1.37405 11.3378C1.50415 10.7262 1.69261 10.1285 1.93684 9.55293C2.16341 9.01688 2.38771 8.47584 2.6546 7.95882C2.96936 7.34784 3.34139 6.7681 3.76568 6.22741C3.96822 5.96912 4.15446 5.69679 4.36698 5.44667C4.56998 5.20787 4.79292 4.98493 5.01586 4.7638C5.28774 4.49555 5.55962 4.23001 5.84373 3.97581C6.04865 3.7933 6.26297 3.62163 6.48581 3.4615C6.86191 3.18962 7.23801 2.91775 7.63042 2.67034C7.98205 2.44966 8.34954 2.25301 8.72065 2.06677C9.07953 1.88552 9.44838 1.7242 9.81949 1.56833C10.1107 1.44197 10.4095 1.33362 10.714 1.24388C11.2817 1.08529 11.8527 0.93485 12.4295 0.81477C12.8373 0.729582 13.2587 0.709191 13.6715 0.643941C14.2082 0.559184 14.7526 0.534714 15.2947 0.570987C15.9653 0.6163 16.635 0.691066 17.302 0.776255C17.6786 0.824286 18.0497 0.918084 18.4589 0.997835L10.7557 12.2853L10.4353 11.8122C10.1661 11.4171 9.89713 11.022 9.62827 10.6268C9.4076 10.301 9.19055 9.97253 8.97033 9.64673C8.70117 9.24797 8.42929 8.85148 8.16013 8.45273C8.05863 8.30169 7.96 8.15064 7.86424 7.9996C7.80533 7.90535 7.73963 7.85324 7.61456 7.8546C6.71238 7.86094 5.80974 7.85822 4.90756 7.85822H4.74534L4.71906 7.89402Z" fill="#444444"/>
<path d="M12.283 14.5602C12.6065 14.0862 12.9219 13.6236 13.2382 13.161C13.5544 12.6983 13.8666 12.2474 14.1793 11.7889C14.4439 11.4005 14.7122 11.0145 14.9664 10.6189C15.057 10.4739 15.1513 10.4041 15.3389 10.4055C16.947 10.4154 18.5561 10.4109 20.1642 10.4132C20.5997 10.4132 20.9432 10.599 21.2205 10.9365C21.3423 11.0779 21.434 11.2427 21.49 11.4207C21.546 11.5987 21.5652 11.7863 21.5463 11.9719C21.4969 12.484 21.2368 12.8696 20.776 13.1147C20.541 13.2347 20.2798 13.2939 20.0161 13.2869C18.2208 13.2869 16.4255 13.2869 14.6302 13.2869C14.5795 13.2821 14.5285 13.2925 14.4838 13.3167C14.439 13.3409 14.4024 13.3778 14.3787 13.4229C14.1607 13.7636 13.9219 14.0917 13.6877 14.4197C13.6539 14.4589 13.6353 14.5089 13.6353 14.5607C13.6353 14.6124 13.6539 14.6624 13.6877 14.7016C13.9296 15.0487 14.1612 15.4026 14.4081 15.7461C14.443 15.7945 14.54 15.819 14.608 15.8195C15.5786 15.8245 16.5492 15.8231 17.5198 15.8231C18.8139 15.8231 20.1081 15.8263 21.4017 15.8231C21.8331 15.8231 22.2042 15.959 22.5042 16.2672C22.9918 16.7697 23.0389 17.5812 22.6134 18.125C22.308 18.5151 21.9038 18.6996 21.4117 18.7C19.3433 18.7 17.274 18.7 15.2038 18.7C15.1684 18.7042 15.1325 18.6978 15.1007 18.6817C15.0688 18.6656 15.0424 18.6404 15.0248 18.6094C14.7951 18.2587 14.555 17.9152 14.3207 17.5672C13.9101 16.9564 13.505 16.3437 13.0909 15.7329C12.8272 15.3432 12.5557 14.9563 12.283 14.5602Z" fill="#444444"/>
</g>
<defs>
<clipPath id="clip0_2752_37">
<rect width="28.0306" height="28.0306" fill="white" transform="translate(0.973145 0.533142)"/>
</clipPath>
</defs>
</svg>
