<svg width="21" height="22" viewBox="0 0 21 22" fill="none" xmlns="http://www.w3.org/2000/svg">
  <path d="M0.918791 7.07231L5.02712 14.1879C5.67285 15.3587 6.67711 16.2914 7.89229 16.8491C9.10748 17.4067 10.4695 17.5598 11.7782 17.2858L9.33441 21.5192C4.13025 20.94 0.083374 16.5265 0.083374 11.1671C0.083374 9.71293 0.381291 8.3296 0.918791 7.07231ZM20.05 7.00043C20.6236 8.31456 20.9187 9.73326 20.9167 11.1671C20.9167 16.4983 16.9115 20.8942 11.7459 21.5108L15.8584 14.3858C16.425 13.4463 16.75 12.3442 16.75 11.1671C16.7522 9.62932 16.1852 8.14514 15.1584 7.00043H20.05ZM10.5 7.00043C11.6051 7.00043 12.6649 7.43942 13.4463 8.22082C14.2277 9.00222 14.6667 10.062 14.6667 11.1671C14.6667 12.2722 14.2277 13.332 13.4463 14.1134C12.6649 14.8948 11.6051 15.3338 10.5 15.3338C9.39497 15.3338 8.33516 14.8948 7.55376 14.1134C6.77236 13.332 6.33337 12.2722 6.33337 11.1671C6.33337 10.062 6.77236 9.00222 7.55376 8.22082C8.33516 7.43942 9.39497 7.00043 10.5 7.00043ZM10.5 0.750431C12.1174 0.749215 13.7127 1.12519 15.1593 1.84849C16.6059 2.5718 17.8639 3.62249 18.8334 4.9171H10.5C9.18393 4.91725 7.90142 5.33265 6.83516 6.10416C5.76889 6.87566 4.97323 7.96393 4.5615 9.21397L2.11775 4.98168C3.08536 3.6686 4.34821 2.60146 5.80431 1.86644C7.2604 1.13143 8.86895 0.749133 10.5 0.750431Z" fill="white" />
</svg>
