<?xml version="1.0" encoding="UTF-8" standalone="no" ?>
<!DOCTYPE svg PUBLIC "-//W3C//DTD SVG 1.1//EN" "http://www.w3.org/Graphics/SVG/1.1/DTD/svg11.dtd">
<svg xmlns="http://www.w3.org/2000/svg" xmlns:xlink="http://www.w3.org/1999/xlink" version="1.1" width="3000" height="3000" viewBox="0 0 3000 3000" xml:space="preserve">
<desc>Created with Fabric.js 5.3.0</desc>
<defs>
</defs>
<g transform="matrix(0.9999991843 0 0 0.999999299 1537.9454035648 1052.9523142752)" id="urtA8_b99EbmIvPo6s245"  >
<path style="stroke: rgb(255,221,46); stroke-width: 5.155518; stroke-dasharray: none; stroke-linecap: square; stroke-dashoffset: 0; stroke-linejoin: round; stroke-miterlimit: 4; fill: none; fill-rule: nonzero; opacity: 1;"  transform=" translate(0.000005, 0.0000033227)" d="M -655.83949 98.6281 L -610.36892 126.95410000000001 C -547.04152 166.40410000000003 -465.22051999999996 159.0181 -409.98152 108.86410000000001 C -372.01869999999997 74.39662000000001 -320.82579999999996 59.67734000000001 -271.28601 67.66009000000001 C -261.18541 69.28768000000001 -251.15353 71.85901000000001 -241.31651999999997 75.3991 L -237.58451999999997 76.7431 C -179.62351999999998 97.60210000000001 -114.84351999999997 83.6301 -70.63451999999998 40.7341 C -43.68275999999998 14.582929999999998 -8.891049999999979 -0.9699000000000026 27.52715000000002 -4.183689999999999 C 44.05851000000002 -5.642529999999999 60.92501000000002 -4.558869999999999 77.54548000000003 -0.7698999999999985 L 137.80048000000002 12.966100000000003 C 186.42448000000002 24.051100000000005 237.12848000000002 6.600100000000003 268.63048000000003 -32.0629 C 301.46748 -72.36269999999999 355.00948000000005 -89.46600000000001 405.12948000000006 -75.66669999999999 L 439.68948000000006 -66.151 C 507.1694800000001 -47.570899999999995 579.3694800000001 -68.42139999999999 626.5594800000001 -120.11699999999999 L 655.8394800000001 -152.18821" stroke-linecap="round" />
</g>
<g transform="matrix(1 0 0 1 1565.9817404817 1046.8959277784)" id="PKgEsqrCIYP7bLtwTVMRb"  >
<path style="stroke: rgb(255,221,46); stroke-width: 3; stroke-dasharray: none; stroke-linecap: butt; stroke-dashoffset: 0; stroke-linejoin: miter; stroke-miterlimit: 4; fill: rgb(5,4,1); fill-rule: nonzero; opacity: 1;"  transform=" translate(0, 0)" d="M -13.5 0 C -13.5 -7.45584 -7.45584 -13.5 0 -13.5 C 0.37145 -13.5 0.73939 -13.485 1.10326 -13.45557 C 8.04308 -12.89426 13.5 -7.08439 13.5 0 C 13.5 7.45584 7.45584 13.5 0 13.5 C -7.45584 13.5 -13.5 7.45584 -13.5 0 z" stroke-linecap="round" />
</g>
<g transform="matrix(1 0 0 1 1226.2190635452 1119.7976588629)" id="CVGfgXkfpPN2vFDDkuW9x"  >
<path style="stroke: rgb(255,221,46); stroke-width: 3; stroke-dasharray: none; stroke-linecap: butt; stroke-dashoffset: 0; stroke-linejoin: miter; stroke-miterlimit: 4; fill: rgb(5,4,1); fill-rule: nonzero; opacity: 1;"  transform=" translate(0, 0)" d="M -13.5 0 C -13.5 -7.45584 -7.45584 -13.5 0 -13.5 C 0.37145 -13.5 0.73939 -13.485 1.10326 -13.45557 C 8.04308 -12.89426 13.5 -7.08439 13.5 0 C 13.5 7.45584 7.45584 13.5 0 13.5 C -7.45584 13.5 -13.5 7.45584 -13.5 0 z" stroke-linecap="round" />
</g>
<g transform="matrix(1 0 0 1 882.5437720445 1153.3971781987)" id="EHS3rUMh0MIRngSem9voR"  >
<path style="stroke: rgb(255,221,46); stroke-width: 3; stroke-dasharray: none; stroke-linecap: butt; stroke-dashoffset: 0; stroke-linejoin: miter; stroke-miterlimit: 4; fill: rgb(5,4,1); fill-rule: nonzero; opacity: 1;"  transform=" translate(0, 0)" d="M -13.5 0 C -13.5 -7.45584 -7.45584 -13.5 0 -13.5 C 0.37145 -13.5 0.73939 -13.485 1.10326 -13.45557 C 8.04308 -12.89426 13.5 -7.08439 13.5 0 C 13.5 7.45584 7.45584 13.5 0 13.5 C -7.45584 13.5 -13.5 7.45584 -13.5 0 z" stroke-linecap="round" />
</g>
<g transform="matrix(1 0 0 1 1893.4253959309 974.2466406822)" id="RNNmd_-LEs2MSkiG3EWON"  >
<path style="stroke: rgb(255,221,46); stroke-width: 3; stroke-dasharray: none; stroke-linecap: butt; stroke-dashoffset: 0; stroke-linejoin: miter; stroke-miterlimit: 4; fill: rgb(5,4,1); fill-rule: nonzero; opacity: 1;"  transform=" translate(0, 0)" d="M -13.5 0 C -13.5 -7.45584 -7.45584 -13.5 0 -13.5 C 0.37145 -13.5 0.73939 -13.485 1.10326 -13.45557 C 8.04308 -12.89426 13.5 -7.08439 13.5 0 C 13.5 7.45584 7.45584 13.5 0 13.5 C -7.45584 13.5 -13.5 7.45584 -13.5 0 z" stroke-linecap="round" />
</g>
<g transform="matrix(1 0 0 1 2196.362110462 898.1864570821)" id="dgfLWyaQsZKzXLtonR5af"  >
<path style="stroke: rgb(255,221,46); stroke-width: 3; stroke-dasharray: none; stroke-linecap: butt; stroke-dashoffset: 0; stroke-linejoin: miter; stroke-miterlimit: 4; fill: rgb(5,4,1); fill-rule: nonzero; opacity: 1;"  transform=" translate(0, 0)" d="M -13.5 0 C -13.5 -7.45584 -7.45584 -13.5 0 -13.5 C 0.37145 -13.5 0.73939 -13.485 1.10326 -13.45557 C 8.04308 -12.89426 13.5 -7.08439 13.5 0 C 13.5 3.69569 12.01498 7.04453 9.6091 9.48237 C 7.16126 11.96272 3.7601499999999994 13.5 0 13.5 C -7.45584 13.5 -13.5 7.45584 -13.5 0 z" stroke-linecap="round" />
</g>
</svg>