<svg width="32" height="48" viewBox="0 0 32 48" fill="none" xmlns="http://www.w3.org/2000/svg">
<path d="M16.768 16.579C16.609 16.6256 16.4631 16.7087 16.3422 16.8217C13.8987 19.0975 11.6428 21.1912 9.5747 23.1029C9.52788 23.1464 9.49081 23.1993 9.46592 23.2581C9.44102 23.317 9.42885 23.3804 9.43022 23.4442C9.43784 23.692 9.57592 23.8627 9.84445 23.9563C11.7022 24.5985 13.5031 25.2307 15.247 25.8527C15.3065 25.8744 15.3596 25.9109 15.401 25.9587C15.4425 26.0065 15.4711 26.0641 15.484 26.126C15.4969 26.1879 15.4938 26.252 15.475 26.3124C15.4561 26.3728 15.4222 26.4273 15.3763 26.471C13.1252 28.5925 10.8707 30.69 8.61256 32.7635C8.4934 32.872 8.33499 32.8632 8.13733 32.7369C8.07873 32.6989 8.03455 32.6424 8.01181 32.5764C7.98907 32.5104 7.98907 32.4387 8.01181 32.3728L8.96993 29.5394C9.09922 29.1601 8.97503 28.9034 8.59737 28.7694L0.282676 25.8188C0.214069 25.7948 0.152823 25.7536 0.104872 25.6991C0.0569203 25.6446 0.0238886 25.5787 0.00897695 25.5077C-0.00593472 25.4368 -0.00222081 25.3632 0.0197588 25.2941C0.0417383 25.2249 0.0812385 25.1627 0.134433 25.1132L26.8775 0.216139C27.0008 0.100385 27.1581 0.027241 27.3262 0.00751092C27.6937 -0.0354836 27.8242 0.106106 27.7178 0.43228C25.9512 5.89927 24.1503 11.4724 22.3152 17.1517C22.1936 17.526 22.3178 17.7775 22.6878 17.9064C25.7319 18.9861 28.6163 20.0203 31.341 21.0091C31.4881 21.0604 31.6184 21.1509 31.7176 21.2708C31.7647 21.3281 31.7881 21.4012 31.7831 21.4751C31.7782 21.5491 31.7453 21.6184 31.691 21.669C22.3102 30.474 13.0777 39.1587 3.99341 47.7232C3.75266 47.9508 3.52073 48.038 3.29763 47.9849C3.08215 47.9343 3.00864 47.8054 3.07709 47.5981L5.6738 39.5418C5.77651 39.2226 5.95979 38.9353 6.20602 38.7072L22.2998 23.7401C22.3554 23.688 22.3967 23.6226 22.4198 23.5501C22.4429 23.4776 22.4471 23.4004 22.4319 23.3259C22.4168 23.2517 22.3827 23.1828 22.3329 23.1257C22.2831 23.0686 22.2193 23.0254 22.1478 23.0003L16.4297 20.9716C16.3006 20.9259 16.1946 20.8318 16.1342 20.7092C16.0738 20.5865 16.0639 20.4453 16.1065 20.3154L17.1786 17.0042C17.1975 16.9465 17.2004 16.8848 17.1868 16.8256C17.1733 16.7664 17.1438 16.7121 17.1015 16.6684C17.0593 16.6247 17.0059 16.5933 16.9472 16.5776C16.8884 16.562 16.8264 16.5626 16.768 16.5794V16.579Z" fill="#FFDD2E"/>
</svg>
