<svg width="19" height="28" viewBox="0 0 19 28" fill="none" xmlns="http://www.w3.org/2000/svg">
<path d="M9.78132 9.6711C9.68857 9.69827 9.6035 9.74675 9.53295 9.81267C8.10755 11.1402 6.79165 12.3615 5.58524 13.4767C5.55793 13.5021 5.53631 13.5329 5.52178 13.5673C5.50726 13.6016 5.50017 13.6386 5.50096 13.6758C5.50541 13.8203 5.58595 13.9199 5.7426 13.9745C6.82629 14.3491 7.87678 14.7179 8.89408 15.0807C8.92881 15.0934 8.95974 15.1147 8.98393 15.1426C9.00812 15.1704 9.02478 15.204 9.03233 15.2401C9.03988 15.2763 9.03808 15.3137 9.02708 15.3489C9.01609 15.3841 8.99627 15.4159 8.9695 15.4414C7.65638 16.6789 6.34121 17.9025 5.02399 19.112C4.95448 19.1753 4.86208 19.1702 4.74678 19.0965C4.71259 19.0743 4.68682 19.0414 4.67355 19.0029C4.66029 18.9644 4.66029 18.9226 4.67355 18.8841L5.23246 17.2313C5.30788 17.0101 5.23544 16.8603 5.01513 16.7821L0.164894 15.061C0.124874 15.047 0.089147 15.0229 0.0611753 14.9912C0.0332035 14.9594 0.013935 14.9209 0.00523655 14.8795C-0.00346192 14.8381 -0.00129547 14.7952 0.0115259 14.7549C0.0243474 14.7145 0.0473891 14.6782 0.078419 14.6494L15.6786 0.126081C15.7504 0.0585579 15.8422 0.0158906 15.9403 0.00438137C16.1547 -0.0206988 16.2308 0.0618953 16.1687 0.252164C15.1382 3.44124 14.0877 6.69224 13.0172 10.0052C12.9462 10.2235 13.0187 10.3702 13.2345 10.4454C15.0103 11.0753 16.6929 11.6785 18.2823 12.2553C18.3681 12.2852 18.444 12.338 18.5019 12.408C18.5294 12.4414 18.543 12.484 18.5402 12.5272C18.5373 12.5703 18.5181 12.6107 18.4864 12.6403C13.0143 17.7765 7.62863 22.8426 2.32949 27.8385C2.18905 27.9713 2.05376 28.0222 1.92362 27.9912C1.79792 27.9617 1.75504 27.8865 1.79497 27.7656L3.30972 23.066C3.36963 22.8799 3.47655 22.7122 3.62018 22.5792L13.0082 13.8484C13.0406 13.818 13.0647 13.7799 13.0782 13.7376C13.0917 13.6953 13.0941 13.6503 13.0852 13.6068C13.0765 13.5635 13.0566 13.5233 13.0275 13.49C12.9985 13.4567 12.9613 13.4315 12.9195 13.4168L9.58398 12.2334C9.5087 12.2068 9.44685 12.1519 9.41162 12.0803C9.37639 12.0088 9.37058 11.9264 9.39543 11.8507L10.0208 9.91911C10.0319 9.88547 10.0336 9.84945 10.0257 9.81494C10.0177 9.78042 10.0005 9.74872 9.9759 9.72323C9.95126 9.69774 9.92012 9.67944 9.88584 9.67029C9.85155 9.66115 9.81541 9.6615 9.78132 9.67132V9.6711Z" fill="black"/>
</svg>
