
<svg width="1360" height="325" viewBox="0 0 1360 325" fill="none" xmlns="http://www.w3.org/2000/svg">
  <path d="M34 268.5L79.4706 296.826C142.799 336.276 224.619 328.89 279.858 278.736C325.561 237.241 390.439 224.368 448.523 245.271L452.255 246.615C510.216 267.474 574.996 253.502 619.205 210.606C658.391 172.584 714.15 156.967 767.385 169.102L827.64 182.838C876.264 193.923 926.968 176.472 958.47 137.809C991.307 97.5094 1044.85 80.406 1094.97 94.2054L1129.53 103.721C1197.01 122.301 1269.21 101.451 1316.4 49.755L1345.68 17.6838" stroke="#FFDD2E" stroke-width="5.15552" stroke-linecap="square" stroke-linejoin="round" />
     <g filter="url(#filter0_d_4847_20)">
    <circle cx="35.861" cy="270.279" r="15" transform="rotate(-1.07389 35.861 270.279)" fill="#FFDD2E" />
  </g>
    <circle cx="387.037" cy="232.688" r="15" transform="rotate(-1.07389 387.037 232.688)" fill="#050401" stroke="#FFDD2E" stroke-width="3"  />
  <circle cx="708.856" cy="166.645" r="13.5" transform="rotate(-1.07389 708.856 166.645)" fill="#050401" stroke="#FFDD2E" stroke-width="3" />
  <circle cx="1029.54" cy="93.6221" r="13.5" transform="rotate(-1.07389 1029.54 93.6221)" fill="#050401" stroke="#FFDD2E" stroke-width="3" />
  <circle cx="1344.14" cy="15.7123" r="13.5" transform="rotate(-1.07389 1344.14 15.7123)" fill="#050401" stroke="#FFDD2E" stroke-width="3" />
  <defs>
    <filter id="filter0_d_4847_20" x="0.860992" y="235.278" width="70.0001" height="70.0001" filterUnits="userSpaceOnUse" color-interpolation-filters="sRGB">
      <feFlood flood-opacity="0" result="BackgroundImageFix" />
      <feColorMatrix in="SourceAlpha" type="matrix" values="0 0 0 0 0 0 0 0 0 0 0 0 0 0 0 0 0 0 127 0" result="hardAlpha" />
      <feOffset />
      <feGaussianBlur stdDeviation="10" />
      <feComposite in2="hardAlpha" operator="out" />
      <feColorMatrix type="matrix" values="0 0 0 0 1 0 0 0 0 0.866667 0 0 0 0 0.176471 0 0 0 1 0" />
      <feBlend mode="normal" in2="BackgroundImageFix" result="effect1_dropShadow_4847_20" />
      <feBlend mode="normal" in="SourceGraphic" in2="effect1_dropShadow_4847_20" result="shape" />
    </filter>
    <filter id="filter1_d_4847_20" x="352.037" y="197.688" width="70.0001" height="70.0001" filterUnits="userSpaceOnUse" color-interpolation-filters="sRGB">
      <feFlood flood-opacity="0" result="BackgroundImageFix" />
      <feColorMatrix in="SourceAlpha" type="matrix" values="0 0 0 0 0 0 0 0 0 0 0 0 0 0 0 0 0 0 127 0" result="hardAlpha" />
      <feOffset />
      <feGaussianBlur stdDeviation="10" />
      <feComposite in2="hardAlpha" operator="out" />
      <feColorMatrix type="matrix" values="0 0 0 0 1 0 0 0 0 0.866667 0 0 0 0 0.176471 0 0 0 1 0" />
      <feBlend mode="normal" in2="BackgroundImageFix" result="effect1_dropShadow_4847_20" />
      <feBlend mode="normal" in="SourceGraphic" in2="effect1_dropShadow_4847_20" result="shape" />
    </filter>
  </defs>
</svg>
