<svg width="30" height="30" viewBox="0 0 30 30" fill="none" xmlns="http://www.w3.org/2000/svg">
<g clip-path="url(#clip0_2768_228)">
<path d="M6.14128 9.39869C11.035 4.60994 18.9663 4.60994 23.8588 9.39869L24.4475 9.97494C24.5057 10.0312 24.5519 10.0986 24.5835 10.1732C24.615 10.2477 24.6313 10.3278 24.6313 10.4087C24.6313 10.4896 24.615 10.5697 24.5835 10.6442C24.5519 10.7187 24.5057 10.7861 24.4475 10.8424L22.4338 12.8137C22.3748 12.8719 22.2953 12.9045 22.2125 12.9045C22.1297 12.9045 22.0502 12.8719 21.9913 12.8137L21.18 12.0212C17.7675 8.67994 12.2338 8.67994 8.82128 12.0212L7.95378 12.8712C7.89431 12.9288 7.81473 12.9611 7.7319 12.9611C7.64908 12.9611 7.5695 12.9288 7.51003 12.8712L5.49628 10.8987C5.43818 10.8425 5.39197 10.7752 5.36042 10.7008C5.32886 10.6264 5.3126 10.5464 5.3126 10.4656C5.3126 10.3847 5.32886 10.3047 5.36042 10.2303C5.39197 10.1559 5.43818 10.0886 5.49628 10.0324L6.14128 9.39869ZM28.0238 13.4774L29.8163 15.2324C29.8744 15.2887 29.9206 15.3561 29.9522 15.4307C29.9838 15.5052 30.0001 15.5853 30.0001 15.6662C30.0001 15.7471 29.9838 15.8272 29.9522 15.9017C29.9206 15.9762 29.8744 16.0436 29.8163 16.0999L21.7338 24.0137C21.6152 24.1292 21.4562 24.1939 21.2907 24.1939C21.1251 24.1939 20.9661 24.1292 20.8475 24.0137L15.1125 18.3974C15.083 18.368 15.043 18.3514 15.0013 18.3514C14.9596 18.3514 14.9196 18.368 14.89 18.3974L9.15378 24.0137C9.0352 24.1292 8.8762 24.1939 8.71066 24.1939C8.54511 24.1939 8.3861 24.1292 8.26753 24.0137L0.18378 16.0999C0.125641 16.0436 0.0794116 15.9762 0.0478403 15.9017C0.0162691 15.8272 0 15.7471 0 15.6662C0 15.5853 0.0162691 15.5052 0.0478403 15.4307C0.0794116 15.3561 0.125641 15.2887 0.18378 15.2324L1.97628 13.4774C2.09485 13.3619 2.25386 13.2973 2.4194 13.2973C2.58495 13.2973 2.74395 13.3619 2.86253 13.4774L8.59878 19.0937C8.66128 19.1537 8.76003 19.1537 8.82128 19.0937L14.5575 13.4774C14.6761 13.3619 14.8351 13.2973 15.0007 13.2973C15.1662 13.2973 15.3252 13.3619 15.4438 13.4774L21.18 19.0937C21.2425 19.1537 21.34 19.1537 21.4025 19.0937L27.1388 13.4774C27.2571 13.362 27.4159 13.2974 27.5813 13.2974C27.7466 13.2974 27.9054 13.362 28.0238 13.4774Z" fill="#FFDD2E"/>
</g>
<defs>
<clipPath id="clip0_2768_228">
<rect width="30" height="30" fill="white"/>
</clipPath>
</defs>
</svg>
