<svg width="48" height="48" viewBox="0 0 48 48" fill="none" xmlns="http://www.w3.org/2000/svg">
<g clip-path="url(#clip0_2780_21)">
<path d="M13.9998 28C12.8998 28 11.9584 27.6087 11.1758 26.826C10.3931 26.0433 10.0011 25.1013 9.99976 24C9.99976 22.9 10.3918 21.9587 11.1758 21.176C11.9598 20.3933 12.9011 20.0013 13.9998 20C15.0998 20 16.0418 20.392 16.8258 21.176C17.6098 21.96 18.0011 22.9013 17.9998 24C17.9998 25.1 17.6084 26.042 16.8258 26.826C16.0431 27.61 15.1011 28.0013 13.9998 28ZM13.9998 36C10.6664 36 7.83309 34.8333 5.49976 32.5C3.16642 30.1667 1.99976 27.3333 1.99976 24C1.99976 20.6667 3.16642 17.8333 5.49976 15.5C7.83309 13.1667 10.6664 12 13.9998 12C16.2331 12 18.2584 12.55 20.0758 13.65C21.8931 14.75 23.3344 16.2 24.3998 18H41.1498C41.4164 18 41.6751 18.05 41.9258 18.15C42.1764 18.25 42.4011 18.4 42.5998 18.6L46.5998 22.6C46.7998 22.8 46.9411 23.0167 47.0238 23.25C47.1064 23.4833 47.1484 23.7333 47.1498 24C47.1498 24.2667 47.1078 24.5167 47.0238 24.75C46.9398 24.9833 46.7984 25.2 46.5998 25.4L40.2498 31.75C40.0831 31.9167 39.8831 32.05 39.6498 32.15C39.4164 32.25 39.1831 32.3167 38.9498 32.35C38.7164 32.3833 38.4831 32.3667 38.2498 32.3C38.0164 32.2333 37.7998 32.1167 37.5998 31.95L34.9998 30L32.1498 32.15C31.9831 32.2833 31.7998 32.3833 31.5998 32.45C31.3998 32.5167 31.1998 32.55 30.9998 32.55C30.7998 32.55 30.5911 32.5167 30.3738 32.45C30.1564 32.3833 29.9651 32.2833 29.7998 32.15L26.7498 30H24.3998C23.3331 31.8 21.8911 33.25 20.0738 34.35C18.2564 35.45 16.2318 36 13.9998 36ZM13.9998 32C15.8664 32 17.5084 31.4333 18.9258 30.3C20.3431 29.1667 21.2844 27.7333 21.7498 26H27.9998L30.8998 28.05L34.9998 25L38.5498 27.75L42.2998 24L40.2998 22H21.7498C21.2831 20.2667 20.3418 18.8333 18.9258 17.7C17.5098 16.5667 15.8678 16 13.9998 16C11.7998 16 9.91642 16.7833 8.34976 18.35C6.78309 19.9167 5.99976 21.8 5.99976 24C5.99976 26.2 6.78309 28.0833 8.34976 29.65C9.91642 31.2167 11.7998 32 13.9998 32Z" fill="#FFDD2E"/>
</g>
<defs>
<clipPath id="clip0_2780_21">
<rect width="48" height="48" fill="white" transform="translate(-0.000244141)"/>
</clipPath>
</defs>
</svg>
