<svg width="48" height="48" viewBox="0 0 48 48" fill="none" xmlns="http://www.w3.org/2000/svg">
<path d="M6 33.9998H42C42.5667 33.9998 43.042 34.1918 43.426 34.5758C43.81 34.9598 44.0013 35.4345 44 35.9998C44 36.5665 43.808 37.0418 43.424 37.4258C43.04 37.8098 42.5653 38.0011 42 37.9998H6C5.43333 37.9998 4.95867 37.8078 4.576 37.4238C4.19333 37.0398 4.00133 36.5651 4 35.9998C4 35.4331 4.192 34.9585 4.576 34.5758C4.96 34.1931 5.43467 34.0011 6 33.9998ZM8 22.8998L7.05 24.5998C6.85 24.9665 6.55 25.1998 6.15 25.2998C5.75 25.3998 5.36667 25.3498 5 25.1498C4.63333 24.9498 4.4 24.6498 4.3 24.2498C4.2 23.8498 4.25 23.4665 4.45 23.0998L5.4 21.3998H3.5C3.06667 21.3998 2.70867 21.2585 2.426 20.9758C2.14333 20.6931 2.00133 20.3345 2 19.8998C2 19.4665 2.142 19.1085 2.426 18.8258C2.71 18.5431 3.068 18.4011 3.5 18.3998H5.4L4.45 16.7998C4.25 16.4331 4.2 16.0498 4.3 15.6498C4.4 15.2498 4.63333 14.9498 5 14.7498C5.36667 14.5498 5.75 14.4998 6.15 14.5998C6.55 14.6998 6.85 14.9331 7.05 15.2998L8 16.8998L8.95 15.2998C9.15 14.9331 9.45 14.6998 9.85 14.5998C10.25 14.4998 10.6333 14.5498 11 14.7498C11.3667 14.9498 11.6 15.2498 11.7 15.6498C11.8 16.0498 11.75 16.4331 11.55 16.7998L10.6 18.3998H12.5C12.9333 18.3998 13.292 18.5418 13.576 18.8258C13.86 19.1098 14.0013 19.4678 14 19.8998C14 20.3331 13.858 20.6918 13.574 20.9758C13.29 21.2598 12.932 21.4011 12.5 21.3998H10.6L11.55 23.0998C11.75 23.4665 11.8 23.8498 11.7 24.2498C11.6 24.6498 11.3667 24.9498 11 25.1498C10.6333 25.3498 10.25 25.3998 9.85 25.2998C9.45 25.1998 9.15 24.9665 8.95 24.5998L8 22.8998ZM24 22.8998L23.05 24.5998C22.85 24.9665 22.55 25.1998 22.15 25.2998C21.75 25.3998 21.3667 25.3498 21 25.1498C20.6333 24.9498 20.4 24.6498 20.3 24.2498C20.2 23.8498 20.25 23.4665 20.45 23.0998L21.4 21.3998H19.5C19.0667 21.3998 18.7087 21.2585 18.426 20.9758C18.1433 20.6931 18.0013 20.3345 18 19.8998C18 19.4665 18.142 19.1085 18.426 18.8258C18.71 18.5431 19.068 18.4011 19.5 18.3998H21.4L20.45 16.7998C20.25 16.4331 20.2 16.0498 20.3 15.6498C20.4 15.2498 20.6333 14.9498 21 14.7498C21.3667 14.5498 21.75 14.4998 22.15 14.5998C22.55 14.6998 22.85 14.9331 23.05 15.2998L24 16.8998L24.95 15.2998C25.15 14.9331 25.45 14.6998 25.85 14.5998C26.25 14.4998 26.6333 14.5498 27 14.7498C27.3667 14.9498 27.6 15.2498 27.7 15.6498C27.8 16.0498 27.75 16.4331 27.55 16.7998L26.6 18.3998H28.5C28.9333 18.3998 29.2913 18.5418 29.574 18.8258C29.8567 19.1098 29.9987 19.4678 30 19.8998C30 20.3331 29.858 20.6918 29.574 20.9758C29.29 21.2598 28.932 21.4011 28.5 21.3998H26.6L27.55 23.0998C27.75 23.4665 27.8 23.8498 27.7 24.2498C27.6 24.6498 27.3667 24.9498 27 25.1498C26.6333 25.3498 26.25 25.3998 25.85 25.2998C25.45 25.1998 25.15 24.9665 24.95 24.5998L24 22.8998ZM40 22.8998L39.05 24.5998C38.85 24.9665 38.55 25.1998 38.15 25.2998C37.75 25.3998 37.3667 25.3498 37 25.1498C36.6333 24.9498 36.4 24.6498 36.3 24.2498C36.2 23.8498 36.25 23.4665 36.45 23.0998L37.4 21.3998H35.5C35.0667 21.3998 34.7087 21.2585 34.426 20.9758C34.1433 20.6931 34.0013 20.3345 34 19.8998C34 19.4665 34.142 19.1085 34.426 18.8258C34.71 18.5431 35.068 18.4011 35.5 18.3998H37.4L36.45 16.7998C36.25 16.4331 36.2 16.0498 36.3 15.6498C36.4 15.2498 36.6333 14.9498 37 14.7498C37.3667 14.5498 37.75 14.4998 38.15 14.5998C38.55 14.6998 38.85 14.9331 39.05 15.2998L40 16.8998L40.95 15.2998C41.15 14.9331 41.45 14.6998 41.85 14.5998C42.25 14.4998 42.6333 14.5498 43 14.7498C43.3667 14.9498 43.6 15.2498 43.7 15.6498C43.8 16.0498 43.75 16.4331 43.55 16.7998L42.6 18.3998H44.5C44.9333 18.3998 45.292 18.5418 45.576 18.8258C45.86 19.1098 46.0013 19.4678 46 19.8998C46 20.3331 45.858 20.6918 45.574 20.9758C45.29 21.2598 44.932 21.4011 44.5 21.3998H42.6L43.55 23.0998C43.75 23.4665 43.8 23.8498 43.7 24.2498C43.6 24.6498 43.3667 24.9498 43 25.1498C42.6333 25.3498 42.25 25.3998 41.85 25.2998C41.45 25.1998 41.15 24.9665 40.95 24.5998L40 22.8998Z" fill="#FFDD2E"/>
</svg>
