<svg width="48" height="48" viewBox="0 0 48 48" fill="none" xmlns="http://www.w3.org/2000/svg">
<path d="M23.9998 2L5.99976 10V22C5.99976 33.1 13.6798 43.48 23.9998 46C34.3198 43.48 41.9998 33.1 41.9998 22V10L23.9998 2ZM23.9998 10C25.5911 10 27.1172 10.6321 28.2424 11.7574C29.3676 12.8826 29.9998 14.4087 29.9998 16C29.9998 17.5913 29.3676 19.1174 28.2424 20.2426C27.1172 21.3679 25.5911 22 23.9998 22C22.4085 22 20.8823 21.3679 19.7571 20.2426C18.6319 19.1174 17.9998 17.5913 17.9998 16C17.9998 14.4087 18.6319 12.8826 19.7571 11.7574C20.8823 10.6321 22.4085 10 23.9998 10ZM34.2598 34C31.8365 37.7093 28.2154 40.4763 23.9998 41.84C19.7841 40.4763 16.163 37.7093 13.7398 34C13.0598 33 12.4798 32 11.9998 30.94C11.9998 27.64 17.4198 24.94 23.9998 24.94C30.5798 24.94 35.9998 27.58 35.9998 30.94C35.5198 32 34.9398 33 34.2598 34Z" fill="#FFDD2E"/>
</svg>
