<svg width="48" height="48" viewBox="0 0 48 48" fill="none" xmlns="http://www.w3.org/2000/svg">
<path d="M21.9998 26H25.9998V28H21.9998V26ZM41.9998 10V22C41.9998 33 34.3998 43.4 23.9998 46C13.5998 43.4 5.99976 33 5.99976 22V10L23.9998 2L41.9998 10ZM33.9998 20H29.5998C29.1998 18.8 28.3998 17.8 27.3998 17L29.7998 14.6L28.3998 13.2L25.5998 16H23.9998C23.5998 16 22.9998 16 22.5998 16.2L19.7998 13.2L18.1998 14.8L20.5998 17.2C19.5998 17.8 18.7998 18.8 18.3998 20H13.9998V22H17.9998V24H13.9998V26H17.9998V28H13.9998V30H18.3998C19.1998 32.4 21.3998 34 23.9998 34C26.5998 34 28.7998 32.4 29.5998 30H33.9998V28H29.9998V26H33.9998V24H29.9998V22H33.9998V20ZM21.9998 24H25.9998V22H21.9998V24Z" fill="#FFDD2E"/>
</svg>
