<svg width="48" height="48" viewBox="0 0 48 48" fill="none" xmlns="http://www.w3.org/2000/svg">
<path d="M15 44C13.0667 44 11.4167 43.3167 10.05 41.95C8.68333 40.5833 8 38.9333 8 37V11C8 9.06667 8.68333 7.41667 10.05 6.05C11.4167 4.68333 13.0667 4 15 4H40V34C39.1667 34 38.4587 34.292 37.876 34.876C37.2933 35.46 37.0013 36.168 37 37C37 37.8333 37.292 38.542 37.876 39.126C38.46 39.71 39.168 40.0013 40 40V44H15ZM16 30H20V8H16V30ZM15 40H33.65C33.45 39.5333 33.292 39.0587 33.176 38.576C33.06 38.0933 33.0013 37.568 33 37C33 36.4667 33.05 35.95 33.15 35.45C33.25 34.95 33.4167 34.4667 33.65 34H15C14.1333 34 13.4167 34.292 12.85 34.876C12.2833 35.46 12 36.168 12 37C12 37.8667 12.2833 38.5833 12.85 39.15C13.4167 39.7167 14.1333 40 15 40Z" fill="#FFDD2E"/>
</svg>
