<svg width="138" height="33" viewBox="0 0 138 33" fill="none" xmlns="http://www.w3.org/2000/svg">
<g clip-path="url(#clip0_2784_178)">
<mask id="mask0_2784_178" style="mask-type:luminance" maskUnits="userSpaceOnUse" x="0" y="0" width="138" height="33">
<path d="M137.84 0H0V33H137.84V0Z" fill="white"/>
</mask>
<g mask="url(#mask0_2784_178)">
<path fill-rule="evenodd" clip-rule="evenodd" d="M28.4162 5.06608L28.5891 6.11589C28.7254 7.09249 28.7884 8.07799 28.7779 9.06411C28.7768 11.2433 28.5151 13.4143 27.9983 15.5308C27.2995 18.4062 26.0823 21.1287 24.4071 23.5636C22.4712 26.36 19.6721 29.1104 15.5921 31.3205L15.0929 31.5906L14.5938 31.3205C10.5138 29.1104 7.71585 26.36 5.77885 23.5636C4.10361 21.1287 2.88645 18.4062 2.18761 15.5308C1.67099 13.4147 1.40924 11.244 1.408 9.06526C1.39745 8.07914 1.46059 7.09363 1.59689 6.11703L1.76975 5.06723C1.78451 4.98162 1.78225 4.89391 1.76311 4.80918C1.74397 4.72445 1.70832 4.64436 1.65821 4.57352C1.60811 4.50269 1.54455 4.44251 1.47119 4.39647C1.39783 4.35042 1.31612 4.31941 1.23077 4.30523C1.14543 4.29104 1.05813 4.29396 0.973913 4.31381C0.889692 4.33366 0.810222 4.37007 0.740072 4.42091C0.669923 4.47176 0.610486 4.53604 0.565186 4.61006C0.519886 4.68409 0.489618 4.76638 0.476128 4.85221L0.303263 5.90201C0.154575 6.94963 0.085306 8.00707 0.0960536 9.06526C0.0968775 11.3513 0.371309 13.629 0.91344 15.8493C1.65141 18.8814 2.93609 21.7519 4.70388 24.319C6.74736 27.273 9.71125 30.1775 13.9768 32.4829L14.7873 32.921C14.8828 32.9729 14.9896 33 15.0981 33C15.2066 33 15.3135 32.9729 15.4089 32.921L16.2183 32.4829C20.4793 30.1763 23.4443 27.273 25.4912 24.319C27.2581 21.7521 28.542 18.8819 29.2793 15.8505C29.8215 13.6301 30.0959 11.3525 30.0967 9.06642C30.1075 8.00823 30.0382 6.95079 29.8896 5.90317L29.7167 4.85336C29.7032 4.76753 29.6729 4.68524 29.6276 4.61122C29.5823 4.53719 29.5229 4.47291 29.4527 4.42206C29.3826 4.37122 29.3031 4.33482 29.2189 4.31496C29.1347 4.2951 29.0474 4.29219 28.962 4.30637C28.8767 4.32056 28.7949 4.35157 28.7216 4.39762C28.6482 4.44366 28.5846 4.50384 28.5346 4.57467C28.4845 4.6455 28.4489 4.7256 28.4297 4.81033C28.4106 4.89507 28.4083 4.98276 28.4231 5.06838L28.4162 5.06608Z" fill="#575757"/>
<path fill-rule="evenodd" clip-rule="evenodd" d="M5.3521 4.35106L15.0947 1.36149L25.0547 4.41545C25.2215 4.46552 25.4012 4.44721 25.5546 4.36452C25.7079 4.28183 25.8224 4.1415 25.8729 3.97424C25.9235 3.80698 25.906 3.62642 25.8243 3.47207C25.7427 3.31771 25.6035 3.20213 25.4371 3.15064L15.2858 0.0380379C15.1613 -0.000309507 15.0281 -0.000309507 14.9034 0.0380379L4.96858 3.08395C4.88555 3.10888 4.80826 3.15003 4.74111 3.20504C4.67396 3.26006 4.6183 3.32785 4.5773 3.40452C4.53632 3.4812 4.51081 3.56526 4.50224 3.65186C4.49368 3.73847 4.50223 3.82592 4.52741 3.90919C4.55259 3.99248 4.59389 4.06994 4.64895 4.13714C4.70401 4.20434 4.77174 4.25996 4.84827 4.3008C4.92479 4.34164 5.00859 4.3669 5.09485 4.37514C5.18111 4.38336 5.26815 4.3744 5.35096 4.34876L5.3521 4.35106Z" fill="#575757"/>
<path fill-rule="evenodd" clip-rule="evenodd" d="M0.541206 5.25955L14.5087 32.6396C14.5632 32.7466 14.6458 32.8366 14.7476 32.8997C14.8494 32.9629 14.9664 32.9969 15.0861 32.998C15.2057 32.9991 15.3233 32.9672 15.4263 32.9058C15.5291 32.8444 15.6133 32.7559 15.6696 32.6499L24.1875 16.6499L24.2001 16.6246L29.6521 5.24116C29.7259 5.08406 29.7351 4.90402 29.6775 4.74017C29.6201 4.57633 29.5005 4.44191 29.3447 4.36616C29.189 4.29041 29.0099 4.27943 28.8462 4.33562C28.6825 4.39181 28.5475 4.51063 28.4705 4.66623L23.0278 16.0404L15.1121 30.9194L1.70784 4.65703C1.6692 4.57906 1.61556 4.50955 1.54998 4.45256C1.48442 4.39556 1.40824 4.35219 1.32585 4.32497C1.24348 4.29774 1.15655 4.28722 1.07009 4.29398C0.983631 4.30075 0.899369 4.32469 0.822188 4.3644C0.745003 4.4041 0.676434 4.4588 0.62045 4.52532C0.564468 4.59183 0.522184 4.66885 0.496049 4.75189C0.469915 4.83494 0.460449 4.92237 0.4682 5.00912C0.475951 5.09587 0.500766 5.18021 0.541206 5.25725V5.25955Z" fill="#575757"/>
<path fill-rule="evenodd" clip-rule="evenodd" d="M7.22745 17.4528H22.7596C22.9335 17.4528 23.1001 17.3835 23.2231 17.26C23.346 17.1366 23.4151 16.9692 23.4151 16.7945C23.4151 16.6199 23.346 16.4525 23.2231 16.329C23.1001 16.2056 22.9335 16.1362 22.7596 16.1362H7.22745C7.05362 16.1362 6.88691 16.2056 6.76399 16.329C6.64108 16.4525 6.57202 16.6199 6.57202 16.7945C6.57202 16.9692 6.64108 17.1366 6.76399 17.26C6.88691 17.3835 7.05362 17.4528 7.22745 17.4528ZM50.5508 11.7727H40.4464C40.2718 11.7736 40.1045 11.8437 39.9811 11.9677C39.8576 12.0917 39.7879 12.2596 39.787 12.435V20.5804C39.7881 20.7556 39.858 20.9234 39.9814 21.0473C40.1048 21.1713 40.2718 21.2414 40.4464 21.2427H50.5508V22.6224H40.4464C40.1798 22.6236 39.9156 22.5718 39.669 22.4699C39.4225 22.368 39.1985 22.2181 39.01 22.0287C38.8214 21.8394 38.6722 21.6144 38.5707 21.3668C38.4692 21.1192 38.4176 20.8538 38.4189 20.5861V12.4407C38.4176 12.1729 38.4692 11.9076 38.5707 11.66C38.6722 11.4124 38.8214 11.1874 39.01 10.9981C39.1985 10.8087 39.4225 10.6588 39.669 10.5569C39.9156 10.455 40.1798 10.4032 40.4464 10.4044H50.5508V11.7727ZM69.5244 10.3975V11.7773H59.7932V15.8097H67.6147V17.201H59.792V21.2404H69.5232V22.6202H58.4182V10.3975H69.5244Z" fill="#575757"/>
<path d="M89.5627 12.4514V16.032C89.5644 16.2997 89.5126 16.5649 89.4108 16.8125C89.3089 17.06 89.1603 17.285 88.9713 17.4743C88.7832 17.6636 88.559 17.8135 88.3125 17.9155C88.0661 18.0174 87.8016 18.0694 87.5355 18.0683H85.6774L89.4954 22.6159H87.6874L83.8859 18.0683H79.4207C79.1999 18.057 78.9798 18.0344 78.7613 18.0005V22.6159H77.3875V10.4151H87.5248C87.7917 10.414 88.0554 10.466 88.3019 10.5679C88.5491 10.6699 88.7725 10.8198 88.9615 11.0091C89.1496 11.1985 89.2991 11.4234 89.4001 11.6709C89.502 11.9185 89.5537 12.1837 89.5529 12.4514H89.5627ZM79.4253 16.6771H87.5355C87.6201 16.6781 87.7039 16.6622 87.7827 16.6301C87.8607 16.5981 87.9322 16.5507 87.9922 16.4905C88.0521 16.4304 88.099 16.3589 88.131 16.2801C88.163 16.2014 88.1786 16.117 88.1778 16.032V12.4514C88.1786 12.3652 88.163 12.2795 88.1318 12.1994C88.0998 12.1193 88.0521 12.0462 87.9922 11.9846C87.9339 11.9215 87.8632 11.8714 87.7844 11.8378C87.7055 11.804 87.6201 11.7875 87.5346 11.7891H79.4242C79.2495 11.79 79.0824 11.8601 78.9588 11.9841C78.8354 12.1081 78.7656 12.2761 78.7647 12.4514V16.032C78.7629 16.1181 78.7794 16.2036 78.813 16.2829C78.8465 16.3622 78.8964 16.4334 78.9593 16.4919C79.0209 16.5523 79.0937 16.5998 79.1737 16.6316C79.2537 16.6634 79.3393 16.6789 79.4253 16.6771Z" fill="#575757"/>
<path fill-rule="evenodd" clip-rule="evenodd" d="M96.8291 10.3975H108.99V11.7773H103.609V22.6212H102.235V11.7773H96.8291V10.3975ZM116.36 22.6155V10.3975H117.734V22.6155H116.36ZM135.993 10.3975H137.751L132.666 16.5065L137.767 22.6155H135.993L131.465 17.2021H127.546V22.6155H126.162V10.3975H127.548V15.8097H131.468L135.993 10.3975Z" fill="#575757"/>
</g>
</g>
<defs>
<clipPath id="clip0_2784_178">
<rect width="138" height="33" fill="white"/>
</clipPath>
</defs>
</svg>
