<svg width="115" height="40" viewBox="0 0 115 40" fill="none" xmlns="http://www.w3.org/2000/svg">
<g clip-path="url(#clip0_2784_190)">
<path d="M20.0394 39.7203C31.1056 39.7203 40.0765 30.8287 40.0765 19.8602C40.0765 8.8917 31.1056 0 20.0394 0C8.97314 0 0.00219727 8.8917 0.00219727 19.8602C0.00219727 30.8287 8.97314 39.7203 20.0394 39.7203Z" fill="#575757"/>
<path d="M31.7274 3.73041C28.5088 1.43873 24.6769 0.144512 20.7161 0.0114093C16.7554 -0.121694 12.8439 0.912298 9.47609 2.98263C6.10829 5.05296 3.43551 8.06665 1.79574 11.6426C0.155969 15.2185 -0.377136 19.1961 0.263834 23.0723C0.904806 26.9486 2.69106 30.5494 5.39673 33.4194C8.10239 36.2895 11.6059 38.2998 15.4643 39.1962C19.3227 40.0927 23.3626 39.835 27.0733 38.4557C30.7839 37.0763 33.9985 34.6374 36.3106 31.4473C37.8458 29.329 38.945 26.9319 39.5456 24.3927C40.1461 21.8534 40.2361 19.2217 39.8105 16.648C39.3849 14.0743 38.4521 11.6088 37.0651 9.39238C35.6783 7.17598 33.8645 5.25203 31.7274 3.73041Z" fill="#575757"/>
<path d="M3.48779 31.0629C3.48779 31.0629 16.7285 26.7636 40.0648 19.2207C40.0648 19.2207 41.343 31.5732 28.4248 38.0164C28.4248 38.0164 22.0545 41.0429 15.0657 39.1014C15.0657 39.1014 8.10651 37.7993 3.48779 31.0629Z" fill="#414141"/>
<path d="M52.1301 9.93799H59.0781C60.3181 9.93799 61.4397 10.1433 62.4427 10.5539C63.4638 10.9644 64.3301 11.5803 65.0413 12.4014C65.7708 13.2039 66.3269 14.2211 66.7099 15.4528C67.1112 16.6659 67.3117 18.0843 67.3117 19.7079C67.3117 21.3316 67.1112 22.7592 66.7099 23.991C66.3269 25.204 65.7708 26.2212 65.0413 27.0423C64.3301 27.8448 63.4638 28.4514 62.4427 28.862C61.4397 29.2725 60.3181 29.4779 59.0781 29.4779H52.1301V9.93799ZM59.0781 26.2026C60.4276 26.2026 61.4944 25.8013 62.2786 24.9988C63.081 24.1776 63.4821 22.9272 63.4821 21.2476V18.1683C63.4821 16.4886 63.081 15.2475 62.2786 14.4451C61.4944 13.6238 60.4276 13.2133 59.0781 13.2133H55.7409V26.2026H59.0781Z" fill="#575757"/>
<path d="M79.0316 27.0426H78.8949C78.7673 27.4159 78.594 27.7705 78.3752 28.1064C78.1746 28.4236 77.9102 28.7129 77.5819 28.9743C77.2719 29.2355 76.8889 29.4408 76.433 29.59C75.9953 29.7394 75.4848 29.814 74.9011 29.814C73.4241 29.814 72.2933 29.3195 71.5092 28.3304C70.7251 27.3412 70.333 25.9322 70.333 24.1033V14.8652H73.8344V23.7393C73.8344 24.7471 74.0258 25.5216 74.4088 26.0628C74.7917 26.5853 75.4027 26.8467 76.2416 26.8467C76.588 26.8467 76.9253 26.8 77.2537 26.7067C77.6001 26.6133 77.901 26.4735 78.1563 26.2868C78.4116 26.0815 78.6214 25.8388 78.7855 25.5589C78.9496 25.2603 79.0316 24.9151 79.0316 24.5232V14.8652H82.533V29.4781H79.0316V27.0426Z" fill="#575757"/>
<path d="M86.3049 29.4777V14.8648H89.8063V17.3002H89.9431C90.2349 16.5165 90.6908 15.8632 91.3108 15.3407C91.949 14.7994 92.8244 14.5288 93.9368 14.5288C95.414 14.5288 96.5446 15.0234 97.3287 16.0126C98.1129 17.0017 98.5049 18.4108 98.5049 20.2397V29.4777H95.0037V20.6036C95.0037 19.5584 94.8213 18.7746 94.4566 18.2521C94.0918 17.7295 93.4901 17.4682 92.6512 17.4682C92.2864 17.4682 91.9309 17.5242 91.5844 17.6362C91.2561 17.7295 90.9552 17.8789 90.6816 18.0841C90.4263 18.2708 90.2166 18.5134 90.0525 18.812C89.8884 19.0919 89.8063 19.4278 89.8063 19.8198V29.4777H86.3049Z" fill="#575757"/>
<path d="M107.884 29.8136C106.827 29.8136 105.878 29.6364 105.04 29.2817C104.219 28.9085 103.517 28.3952 102.933 27.7421C102.368 27.0702 101.93 26.2677 101.62 25.3345C101.31 24.3828 101.155 23.319 101.155 22.1432C101.155 20.9862 101.301 19.941 101.593 19.0079C101.903 18.0748 102.341 17.2816 102.906 16.6285C103.471 15.9566 104.164 15.4433 104.985 15.0887C105.806 14.7154 106.736 14.5288 107.775 14.5288C108.887 14.5288 109.854 14.7248 110.675 15.1167C111.495 15.5087 112.17 16.0406 112.699 16.7124C113.228 17.3842 113.62 18.1681 113.875 19.0639C114.149 19.941 114.285 20.8836 114.285 21.8913V23.0671H104.793V23.431C104.793 24.4948 105.085 25.3533 105.669 26.0064C106.252 26.6409 107.119 26.9582 108.267 26.9582C109.143 26.9582 109.854 26.7716 110.401 26.3983C110.966 26.025 111.468 25.5492 111.906 24.9706L113.793 27.1262C113.209 27.9661 112.407 28.6286 111.386 29.1137C110.383 29.5804 109.216 29.8136 107.884 29.8136ZM107.83 17.2162C106.9 17.2162 106.161 17.5336 105.614 18.1681C105.067 18.8026 104.793 19.6238 104.793 20.6316V20.8556H110.647V20.6036C110.647 19.5958 110.401 18.784 109.909 18.1681C109.435 17.5336 108.742 17.2162 107.83 17.2162Z" fill="#575757"/>
</g>
<defs>
<clipPath id="clip0_2784_190">
<rect width="114.286" height="40" fill="white"/>
</clipPath>
</defs>
</svg>
