<svg width="138" height="27" viewBox="0 0 138 27" fill="none" xmlns="http://www.w3.org/2000/svg">
<path d="M3.13674 0.335205C2.7669 0.111271 2.36118 0 1.84506 0C1.29168 0 0.8487 0.111271 0.51612 0.335205C0.18492 0.557748 0 0.855399 0 1.22816V25.7357C0 26.0333 0.18492 26.331 0.51612 26.5911C0.88596 26.8512 1.29168 27 1.8078 27C2.2701 27.0014 2.72136 26.8581 3.09948 26.5911C3.46794 26.331 3.65286 26.0333 3.65286 25.7357V1.22816C3.69012 0.855399 3.5052 0.557748 3.13674 0.335205ZM6.19896 13.2023C5.97816 13.4263 5.86638 13.7239 5.9409 14.169C5.97816 14.6155 6.1617 15.0244 6.53154 15.3972C6.86274 15.7685 7.26846 16.0286 7.71144 16.1413C8.15442 16.2526 8.487 16.1775 8.7078 15.9925L10.6633 14.7643V25.7357C10.6633 26.0333 10.8482 26.331 11.1808 26.5911C11.512 26.8512 11.9549 27 12.4711 27C12.9886 27 13.4315 26.8512 13.8 26.5911C14.1685 26.331 14.3534 26.0333 14.3534 25.7357V10.9338C14.3534 10.5624 14.1685 10.3023 13.8 10.0784C13.4315 9.85586 12.9886 9.74459 12.4352 9.74459C11.8818 9.74459 11.4761 9.85586 11.1435 10.0784L6.19896 13.2023ZM20.7731 21.8676C20.7731 22.6117 20.9953 23.207 21.401 23.5784C21.8068 23.9512 22.3601 24.1737 23.0239 24.1737C23.9099 24.1737 24.7586 23.8023 25.5341 23.0582C26.3456 22.3141 26.7513 21.4962 26.7513 20.6408V19.339H25.8653C24.8331 19.339 23.9844 19.3765 23.3192 19.4878C22.6555 19.5991 22.0648 19.823 21.5487 20.2319C21.0326 20.6033 20.7731 21.161 20.7731 21.8676ZM17.0844 22.3141C17.0844 20.4169 17.7854 19.1164 19.1875 18.3723C20.5896 17.6282 22.5823 17.2568 25.2388 17.2568H26.7513V16.5864C26.7513 15.5084 26.456 14.6155 25.9026 13.8352C25.3492 13.0535 24.4633 12.6822 23.3192 12.6822C22.3229 12.6822 21.4383 12.8685 20.7 13.2775C19.9617 13.6488 19.5187 13.8728 19.4456 13.8728C19.0399 13.8728 18.7445 13.6864 18.4865 13.2775C18.2284 12.9047 18.1166 12.4582 18.1166 11.9756C18.1166 11.3803 18.67 10.8225 19.814 10.3761C20.9208 9.92958 22.1393 9.70704 23.3938 9.70704C25.7922 9.70704 27.5627 10.3761 28.7068 11.6779C29.8508 12.9798 30.4414 14.6155 30.4414 16.5864V25.438C30.4414 25.7732 30.2565 26.0709 29.9239 26.2934C29.5927 26.5535 29.1497 26.6648 28.6695 26.6648C28.1906 26.6648 27.8208 26.5535 27.4896 26.2934C27.157 26.0333 27.0094 25.7732 27.0094 25.438V24.2113C25.4596 26.0333 23.6891 26.9624 21.7695 26.9624C20.4047 26.9624 19.2979 26.5535 18.4492 25.7732C17.5274 24.9916 17.0844 23.8385 17.0844 22.3141ZM33.5782 19.9718V16.7728C33.5782 14.6906 34.1674 12.9798 35.386 11.6779C36.6031 10.3761 38.3737 9.74459 40.7721 9.74459C42.286 9.74459 43.5404 10.0047 44.5726 10.5249C45.6062 11.0451 46.1224 11.6404 46.1224 12.3108C46.1224 12.7197 45.9761 13.1286 45.6808 13.5C45.3854 13.9089 45.0529 14.0953 44.6471 14.0953C44.5367 14.0953 44.131 13.9089 43.3927 13.5751C42.6917 13.2399 41.9161 13.0535 41.0315 13.0535C38.4854 13.0535 37.1938 14.2817 37.1938 16.7728V19.9343C37.1938 22.4254 38.4854 23.6535 41.0674 23.6535C41.9534 23.6535 42.7289 23.4671 43.4659 23.0958C44.1669 22.723 44.6099 22.5366 44.7203 22.5366C45.2005 22.5366 45.569 22.723 45.8643 23.0958C46.1596 23.4671 46.3073 23.8761 46.3073 24.285C46.3073 24.954 45.7912 25.5493 44.7203 26.107C43.6508 26.6648 42.3591 26.9624 40.8094 26.9624C38.4109 26.9624 36.6031 26.331 35.386 25.0291C34.2047 23.8023 33.5782 22.0915 33.5782 19.9718ZM49.001 25.4756V1.1906C49.001 0.819236 49.1487 0.557748 49.4813 0.335205C49.8125 0.111271 50.2182 0 50.7716 0C51.2891 0 51.7679 0.111271 52.1005 0.335205C52.469 0.557748 52.6539 0.855399 52.6539 1.1906V16.9216L59.9224 10.1535C60.1445 9.92958 60.4026 9.81831 60.6979 9.81831C61.1036 9.81831 61.4721 10.0047 61.8792 10.3761C62.2849 10.7488 62.4685 11.1577 62.4685 11.5667C62.4685 11.8643 62.3581 12.1244 62.1731 12.3469L57.6716 16.4014L63.1336 24.3962C63.2813 24.6202 63.3544 24.8052 63.3544 25.0291C63.3544 25.438 63.1336 25.8845 62.6534 26.2934C62.1731 26.7023 61.7315 26.9263 61.2886 26.9263C60.8828 26.9263 60.5875 26.7399 60.3295 26.4047L55.2 18.7437L52.6539 21.0873V25.5131C52.6539 25.8094 52.469 26.107 52.1005 26.3671C51.7321 26.6286 51.2891 26.7399 50.7716 26.7399C50.2555 26.7399 49.8497 26.6286 49.5172 26.3671C49.186 26.0709 49.001 25.7732 49.001 25.4756ZM68.3721 16.9591H74.1653C74.6828 16.9591 75.014 16.884 75.199 16.7352C75.3839 16.5864 75.457 16.3263 75.457 15.8798C75.457 14.9507 75.1258 14.169 74.4607 13.5C73.7969 12.8685 72.9482 12.5333 71.9518 12.5333C70.9927 12.5333 70.144 12.831 69.443 13.4624C68.7419 14.0953 68.4094 14.8756 68.4094 15.8061V16.9591H68.3721ZM64.7192 19.9718V16.6239C64.7192 14.7643 65.4203 13.1662 66.8596 11.7892C68.2617 10.4512 69.9964 9.74459 71.9891 9.74459C73.9073 9.74459 75.5315 10.3761 76.8964 11.5667C78.2612 12.7934 78.9263 14.3178 78.9263 16.215C78.9263 16.9216 78.8518 17.5169 78.6669 17.9634C78.5192 18.4098 78.2612 18.7061 77.8927 18.8925C77.5601 19.0789 77.2289 19.1901 76.9336 19.2277C76.6383 19.2652 76.2326 19.3014 75.7523 19.3014H68.4094V20.1206C68.4094 21.3099 68.8151 22.2404 69.6638 22.9469C70.5125 23.6535 71.5834 23.9873 72.9482 23.9873C73.9073 23.9873 74.7932 23.7648 75.6419 23.3183C76.4906 22.8718 77.0068 22.6493 77.1917 22.6493C77.5974 22.6493 77.93 22.8343 78.188 23.207C78.4834 23.5784 78.5938 23.9512 78.5938 24.3225C78.5938 24.9178 78.0404 25.4756 76.9336 26.107C75.8269 26.7023 74.4607 27 72.8378 27C70.4766 27 68.5198 26.3671 67.0073 25.0667C65.4575 23.7648 64.7192 22.054 64.7192 19.9718ZM81.8409 25.4756V11.1577C81.8409 10.785 82.0258 10.5249 82.357 10.3023C82.6896 10.0784 83.1326 9.96713 83.6487 9.96713C84.0917 9.96713 84.4974 10.0784 84.83 10.3023C85.1612 10.5249 85.3088 10.8225 85.3088 11.1939V12.7559C85.7146 11.938 86.3052 11.2315 87.1166 10.6362C87.9295 10.0422 88.7782 9.74459 89.7373 9.74459H90.844C91.2125 9.74459 91.5451 9.89342 91.8031 10.2272C92.0984 10.5624 92.2088 10.9338 92.2088 11.3803C92.2088 11.8268 92.0612 12.2357 91.8031 12.5709C91.5078 12.9047 91.2125 13.0535 90.844 13.0535H89.7373C88.6305 13.0535 87.6341 13.5376 86.7854 14.5042C85.9367 15.4709 85.531 16.6991 85.531 18.2235V25.438C85.531 25.7357 85.3461 26.0333 84.9776 26.2934C84.6078 26.5535 84.1648 26.6648 83.6487 26.6648C83.1326 26.6648 82.7269 26.5535 82.357 26.2934C81.9886 26.0709 81.8409 25.7732 81.8409 25.4756ZM95.4932 20.2319C95.4932 21.4211 95.8989 22.5005 96.7477 23.4296C97.5964 24.3601 98.63 24.8052 99.8099 24.8052C101.028 24.8052 102.061 24.3601 102.909 23.4296C103.758 22.5005 104.201 21.4587 104.201 20.2319V16.4014C104.201 15.2484 103.758 14.2066 102.909 13.3136C102.023 12.3845 101.028 11.938 99.8471 11.938C98.6659 11.938 97.6336 12.3845 96.7849 13.3136C95.9362 14.2441 95.5305 15.2484 95.5305 16.4014V20.2319H95.4932ZM93.2425 20.2319V16.4014C93.2425 14.6155 93.9062 13.0535 95.1979 11.7516C96.4896 10.4512 98.0393 9.78075 99.8471 9.78075C101.618 9.78075 103.205 10.4136 104.496 11.7155C105.824 13.0174 106.489 14.5793 106.489 16.3638V20.1944C106.489 21.9427 105.824 23.5047 104.496 24.8803C103.167 26.2197 101.618 26.9263 99.8471 26.9263C98.1125 26.9263 96.5627 26.2559 95.2352 24.8803C93.9062 23.5784 93.2425 22.0164 93.2425 20.2319ZM109.219 25.7732V10.8601C109.219 10.6 109.33 10.4136 109.514 10.2272C109.736 10.0784 109.994 10.0047 110.327 10.0047C110.621 10.0047 110.843 10.0784 111.064 10.2648C111.286 10.4512 111.359 10.6362 111.359 10.8601V12.4958C111.765 11.7155 112.355 11.0826 113.167 10.5624C113.98 10.0422 114.939 9.78075 116.008 9.78075C117.668 9.78075 119.145 10.4136 120.362 11.7155C121.581 13.0174 122.207 14.5793 122.207 16.3638V25.7732C122.207 26.0709 122.097 26.2934 121.876 26.4422C121.654 26.5911 121.359 26.7023 121.063 26.7023C120.768 26.7023 120.547 26.6286 120.289 26.4422C120.067 26.2934 119.956 26.0709 119.956 25.7732V16.4014C119.956 15.2484 119.514 14.2066 118.665 13.3136C117.816 12.3845 116.784 11.938 115.603 11.938C114.496 11.938 113.537 12.3469 112.724 13.1662C111.877 13.984 111.469 15.062 111.469 16.4014V25.7732C111.469 25.9958 111.359 26.2197 111.101 26.4047C110.88 26.5911 110.621 26.7023 110.29 26.7023C109.957 26.7023 109.699 26.5911 109.478 26.4047C109.33 26.2559 109.219 26.0333 109.219 25.7732ZM127.115 17.3305H134.089C134.79 17.3305 135.233 17.2568 135.491 17.108C135.712 16.9591 135.822 16.6239 135.822 16.1413C135.822 14.9883 135.417 13.9465 134.568 13.0535C133.757 12.162 132.723 11.7155 131.468 11.7155C130.251 11.7155 129.218 12.1244 128.369 12.9798C127.52 13.8352 127.115 14.8394 127.115 15.9925V17.3305ZM124.864 20.2319V16.2887C124.864 14.5042 125.529 12.9798 126.819 11.7155C128.111 10.4512 129.698 9.78075 131.506 9.78075C133.278 9.78075 134.79 10.4136 136.082 11.6042C137.372 12.831 138 14.3554 138 16.215C138 16.884 137.925 17.4056 137.779 17.8145C137.632 18.2235 137.372 18.4836 137.041 18.6699C136.708 18.8188 136.413 18.93 136.118 19.0038C135.822 19.0413 135.454 19.0789 134.974 19.0789H127.115V20.3807C127.115 21.7563 127.595 22.8718 128.591 23.7272C129.588 24.5451 130.842 24.9916 132.392 24.9916C133.166 24.9916 133.867 24.8803 134.458 24.6202C134.939 24.4394 135.397 24.2015 135.822 23.9136C136.155 23.6897 136.377 23.5408 136.561 23.5408C136.819 23.5408 137.041 23.6535 137.224 23.9136C137.409 24.1737 137.52 24.3962 137.52 24.6202C137.52 25.1028 137.004 25.6244 136.007 26.1446C135.011 26.6648 133.757 26.9263 132.281 26.9263C130.066 26.9263 128.296 26.2934 126.894 25.0667C125.565 23.8761 124.864 22.2404 124.864 20.2319Z" fill="#575757"/>
</svg>
