      <svg width="160" height="48" viewBox="0 0 160 48" fill="none" xmlns="http://www.w3.org/2000/svg">
<path d="M158.981 42.1123C158.981 42.7091 158.864 43.3001 158.635 43.8515C158.406 44.4028 158.071 44.9037 157.649 45.3255C157.227 45.7473 156.725 46.0817 156.173 46.3097C155.622 46.5376 155.03 46.6547 154.433 46.654H5.60951C4.40328 46.6553 3.24594 46.1775 2.39201 45.3258C1.53808 44.4741 1.05748 43.3182 1.05591 42.1123V5.89359C1.05748 4.68714 1.53789 3.53063 2.39165 2.67798C3.24541 1.82534 4.40273 1.34626 5.60951 1.34595H154.432C155.03 1.34595 155.621 1.46358 156.173 1.69214C156.725 1.92069 157.226 2.25569 157.648 2.67799C158.071 3.1003 158.406 3.60164 158.634 4.15337C158.863 4.70511 158.98 5.29644 158.98 5.89359L158.981 42.1123Z" fill="white"/>
<path d="M154.433 47.7106H5.60951C4.12358 47.7103 2.69846 47.1207 1.64686 46.0711C0.595256 45.0216 0.00307146 43.5979 0.000244141 42.1123L0.000244141 5.89478C0.00244236 4.40851 0.594236 2.98379 1.6458 1.93317C2.69737 0.882545 4.12284 0.291812 5.60951 0.290558L154.432 0.290558C155.919 0.292438 157.344 0.883372 158.395 1.93386C159.447 2.98434 160.039 4.4087 160.042 5.89478V42.1123C160.044 45.2002 157.523 47.7106 154.433 47.7106Z" fill="#A6A6A6"/>
<path class="path" d="M158.981 42.1123C158.981 42.7091 158.864 43.3001 158.635 43.8515C158.406 44.4028 158.071 44.9037 157.649 45.3255C157.227 45.7473 156.725 46.0817 156.173 46.3097C155.622 46.5376 155.03 46.6547 154.433 46.654H5.60951C4.40328 46.6553 3.24594 46.1775 2.39201 45.3258C1.53808 44.4741 1.05748 43.3182 1.05591 42.1123V5.89359C1.05748 4.68714 1.53789 3.53063 2.39165 2.67798C3.24541 1.82534 4.40273 1.34626 5.60951 1.34595H154.432C155.03 1.34595 155.621 1.46358 156.173 1.69214C156.725 1.92069 157.226 2.25569 157.648 2.67799C158.071 3.1003 158.406 3.60164 158.634 4.15337C158.863 4.70511 158.98 5.29644 158.98 5.89359L158.981 42.1123Z" fill="black"/>
<path d="M35.7364 23.751C35.702 19.929 38.8666 18.0697 39.0113 17.9831C37.2191 15.3707 34.4411 15.0138 33.4649 14.9853C31.1318 14.7399 28.8686 16.381 27.6801 16.381C26.4679 16.381 24.6377 15.009 22.6651 15.0494C20.1268 15.0885 17.7521 16.5577 16.4497 18.8393C13.7619 23.4913 15.7665 30.3276 18.3416 34.0878C19.6298 35.9306 21.135 37.9856 23.1052 37.9133C25.0327 37.835 25.7526 36.686 28.0787 36.686C30.3833 36.686 31.0594 37.9133 33.0688 37.8671C35.1374 37.835 36.4398 36.0172 37.6829 34.159C39.1715 32.0494 39.7693 29.9694 39.793 29.8627C39.7456 29.8461 35.7767 28.3306 35.7364 23.751ZM31.9407 12.5117C32.9774 11.2156 33.6867 9.45226 33.4898 7.66284C31.9894 7.72925 30.1129 8.70044 29.0323 9.96809C28.0763 11.0851 27.2223 12.9161 27.4429 14.6379C29.1284 14.7636 30.859 13.7876 31.9407 12.5117Z" fill="white"/>
<path d="M154.433 0.290558H74.7188L105.942 47.7106H154.433C155.92 47.7094 157.345 47.119 158.396 46.0688C159.448 45.0187 160.04 43.5946 160.043 42.1088V5.89478C160.04 4.4086 159.448 2.98407 158.397 1.93351C157.345 0.882959 155.92 0.292125 154.433 0.290558Z" fill="url(#paint0_linear_2740_4356)"/>
<path d="M63.6544 37.6489H60.9607L59.4851 33.0135H54.3563L52.9507 37.6489H50.3281L55.4107 21.8679H58.5493L63.6544 37.6489ZM59.0403 31.0687L57.7059 26.948C57.5648 26.527 57.2991 25.5356 56.91 23.9751H56.8626C56.706 24.6463 56.4557 25.6376 56.1129 26.948L54.8011 31.0687H59.0403ZM76.6996 31.8193C76.6996 33.7546 76.1741 35.2843 75.122 36.4073C74.1802 37.407 73.0095 37.9062 71.6134 37.9062C70.1058 37.9062 69.0217 37.369 68.3634 36.2923V42.2629H65.8345V30.0098C65.8345 28.7943 65.8025 27.548 65.7408 26.2697H67.9649L68.106 28.0733H68.1535C68.9968 26.7144 70.2766 26.0349 71.9942 26.0349C73.3369 26.0349 74.4578 26.5649 75.3545 27.6263C76.2501 28.6899 76.6996 30.0869 76.6996 31.8193ZM74.1233 31.9118C74.1233 30.8043 73.8742 29.8912 73.3737 29.1714C72.8269 28.4231 72.0926 28.0484 71.1722 28.0484C70.5483 28.0484 69.9813 28.2571 69.4748 28.6686C68.9671 29.0836 68.635 29.6256 68.4796 30.2967C68.4103 30.5478 68.3709 30.8061 68.3622 31.0663V32.9649C68.3622 33.7914 68.6161 34.4898 69.1237 35.0614C69.6314 35.6306 70.2909 35.9164 71.1022 35.9164C72.0547 35.9164 72.796 35.5476 73.3262 34.8159C73.8576 34.0819 74.1233 33.1143 74.1233 31.9118ZM89.791 31.8193C89.791 33.7546 89.2656 35.2843 88.2135 36.4073C87.2705 37.407 86.101 37.9062 84.7037 37.9062C83.1961 37.9062 82.112 37.369 81.4537 36.2923V42.2629H78.9248V30.0098C78.9248 28.7943 78.8928 27.548 78.8311 26.2697H81.0551L81.1963 28.0733H81.2437C82.0859 26.7144 83.3657 26.0349 85.0844 26.0349C86.426 26.0349 87.5469 26.5649 88.446 27.6263C89.3403 28.6899 89.791 30.0869 89.791 31.8193ZM87.2136 31.9118C87.2136 30.8043 86.9633 29.8912 86.4627 29.1714C85.9159 28.4231 85.1841 28.0484 84.2636 28.0484C83.6397 28.0484 83.0727 28.2571 82.5639 28.6686C82.0562 29.0836 81.7253 29.6256 81.5699 30.2967C81.4928 30.6098 81.4513 30.8648 81.4513 31.0663V32.9649C81.4513 33.7914 81.7063 34.4898 82.2116 35.0614C82.7193 35.6294 83.3788 35.9164 84.1925 35.9164C85.1461 35.9164 85.8875 35.5476 86.4165 34.8159C86.9479 34.0819 87.2136 33.1143 87.2136 31.9118ZM104.428 33.2222C104.428 34.5657 103.958 35.6579 103.025 36.501C101.998 37.4212 100.564 37.8825 98.7251 37.8825C97.0265 37.8825 95.6648 37.5552 94.6376 36.8994L95.2224 34.7922C96.3314 35.4492 97.5496 35.7765 98.8757 35.7765C99.8294 35.7765 100.571 35.5606 101.1 35.1325C101.63 34.7033 101.898 34.1293 101.898 33.4131C101.898 32.7716 101.676 32.2344 101.241 31.7968C100.803 31.3604 100.08 30.9537 99.0631 30.5802C96.2994 29.5497 94.9164 28.0425 94.9164 26.0598C94.9164 24.7649 95.4051 23.7047 96.3801 22.8758C97.3551 22.0481 98.648 21.6343 100.256 21.6343C101.693 21.6343 102.89 21.8845 103.84 22.3837L103.205 24.4447C102.311 23.9609 101.301 23.719 100.172 23.719C99.2802 23.719 98.5804 23.9383 98.0798 24.3747C97.6587 24.7649 97.4452 25.2404 97.4452 25.8048C97.4452 26.4274 97.6884 26.9444 98.1723 27.35C98.5922 27.7235 99.3585 28.1302 100.466 28.5666C101.826 29.1145 102.824 29.7524 103.464 30.4853C104.108 31.2181 104.428 32.1324 104.428 33.2222ZM112.81 28.167H110.023V33.6918C110.023 35.097 110.514 35.7978 111.499 35.7978C111.951 35.7978 112.325 35.7599 112.622 35.6804L112.692 37.6003C112.194 37.7864 111.538 37.8801 110.725 37.8801C109.727 37.8801 108.946 37.5754 108.383 36.9658C107.822 36.3563 107.539 35.3353 107.539 33.8981V28.1623H105.879V26.2649H107.539V24.1814L110.023 23.432V26.2649H112.81V28.167ZM125.362 31.8656C125.362 33.6147 124.862 35.0507 123.863 36.1737C122.818 37.3299 121.428 37.9062 119.695 37.9062C118.022 37.9062 116.693 37.3524 115.701 36.246C114.71 35.1373 114.214 33.7404 114.214 32.0553C114.214 30.292 114.726 28.8477 115.747 27.7247C116.771 26.6005 118.149 26.0384 119.882 26.0384C121.552 26.0384 122.894 26.5934 123.909 27.701C124.879 28.7753 125.362 30.1627 125.362 31.8656ZM122.741 31.9237C122.741 30.8814 122.515 29.9872 122.064 29.239C121.533 28.3354 120.774 27.8836 119.791 27.8836C118.778 27.8836 118.001 28.3354 117.472 29.239C117.019 29.9872 116.794 30.8968 116.794 31.9711C116.794 33.0147 117.019 33.9111 117.472 34.657C118.019 35.5606 118.782 36.0124 119.77 36.0124C120.736 36.0124 121.494 35.5511 122.042 34.6345C122.507 33.8685 122.741 32.9684 122.741 31.9237ZM133.586 28.4931C133.323 28.4456 133.056 28.4222 132.789 28.4231C131.899 28.4231 131.211 28.7575 130.727 29.4311C130.307 30.024 130.096 30.7734 130.096 31.6782V37.6489H127.567V29.8532C127.57 28.6587 127.545 27.4643 127.494 26.2709H129.696L129.789 28.448H129.859C130.127 27.6998 130.547 27.0962 131.123 26.6444C131.651 26.2496 132.292 26.0358 132.951 26.0349C133.185 26.0349 133.396 26.0515 133.583 26.0811L133.586 28.4931ZM144.896 31.4209C144.902 31.8052 144.871 32.1893 144.803 32.5676H137.217C137.245 33.6918 137.613 34.5527 138.317 35.1456C138.957 35.6745 139.783 35.9401 140.799 35.9401C141.922 35.9401 142.947 35.7622 143.868 35.4029L144.265 37.1568C143.188 37.6263 141.916 37.86 140.449 37.86C138.684 37.86 137.298 37.3406 136.29 36.3041C135.284 35.2665 134.78 33.872 134.78 32.1253C134.78 30.4106 135.249 28.9817 136.187 27.8421C137.169 26.6254 138.496 26.0171 140.166 26.0171C141.807 26.0171 143.049 26.6254 143.892 27.8421C144.56 28.8062 144.896 30.0015 144.896 31.4209ZM142.484 30.7651C142.502 30.0145 142.336 29.3682 141.993 28.8216C141.555 28.1172 140.882 27.7662 139.979 27.7662C139.152 27.7662 138.479 28.1089 137.966 28.7967C137.545 29.3433 137.295 30.0003 137.218 30.7628L142.484 30.7651Z" fill="white"/>
<path d="M53.6269 16.2885C52.9236 16.2885 52.3151 16.2542 51.8086 16.1961V8.56644C52.517 8.45704 53.2328 8.40312 53.9496 8.40517C56.8497 8.40517 58.1853 9.83172 58.1853 12.1571C58.1853 14.8395 56.6077 16.2885 53.6269 16.2885ZM54.0516 9.38348C53.6602 9.38348 53.3269 9.40719 53.0505 9.46411V15.264C53.1999 15.2877 53.487 15.2984 53.8903 15.2984C55.7905 15.2984 56.8722 14.2169 56.8722 12.1915C56.8722 10.3855 55.8937 9.38348 54.0516 9.38348ZM62.3475 16.3467C60.713 16.3467 59.6537 15.1264 59.6537 13.4698C59.6537 11.7433 60.7355 10.5124 62.44 10.5124C64.0508 10.5124 65.1337 11.6745 65.1337 13.3785C65.1337 15.1264 64.0175 16.3467 62.3475 16.3467ZM62.3949 11.4207C61.497 11.4207 60.9217 12.2603 60.9217 13.4343C60.9217 14.5857 61.5089 15.4253 62.383 15.4253C63.2572 15.4253 63.8444 14.5276 63.8444 13.4105C63.8444 12.2722 63.2691 11.4207 62.3949 11.4207ZM74.4544 10.6274L72.7048 16.2198H71.565L70.8402 13.7912C70.66 13.1972 70.51 12.5944 70.3907 11.9852H70.367C70.2756 12.5947 70.1025 13.2054 69.9186 13.7912L69.1476 16.2198H67.9959L66.3495 10.6274H67.627L68.2604 13.286C68.4098 13.9193 68.5356 14.5169 68.6399 15.0814H68.6637C68.755 14.6106 68.9045 14.0224 69.1239 13.2979L69.9186 10.6286H70.9316L71.6919 13.241C71.8757 13.8742 72.0252 14.4956 72.1414 15.0826H72.1746C72.2553 14.5074 72.3822 13.8967 72.5542 13.241L73.2339 10.6286L74.4544 10.6274ZM80.8951 16.2198H79.6521V13.0086C79.6521 12.0196 79.2725 11.5239 78.5241 11.5239C77.7875 11.5239 77.281 12.1571 77.281 12.8935V16.2198H76.0379V12.2259C76.0379 11.7314 76.026 11.2013 75.9916 10.6262H77.0853L77.1434 11.4895H77.1778C77.5123 10.8918 78.1907 10.5124 78.9511 10.5124C80.1253 10.5124 80.8963 11.4101 80.8963 12.871L80.8951 16.2198ZM84.3231 16.2198H83.0788V8.06128H84.3231V16.2198ZM88.8554 16.3467C87.222 16.3467 86.1616 15.1264 86.1616 13.4698C86.1616 11.7433 87.2434 10.5124 88.9467 10.5124C90.5586 10.5124 91.6404 11.6745 91.6404 13.3785C91.6416 15.1264 90.5243 16.3467 88.8554 16.3467ZM88.9016 11.4207C88.0037 11.4207 87.4284 12.2603 87.4284 13.4343C87.4284 14.5857 88.0168 15.4253 88.8886 15.4253C89.7639 15.4253 90.3499 14.5276 90.3499 13.4105C90.3511 12.2722 89.777 11.4207 88.9016 11.4207ZM96.5415 16.2198L96.4514 15.5759H96.4182C96.0386 16.0941 95.4847 16.3467 94.7825 16.3467C93.7802 16.3467 93.0685 15.6446 93.0685 14.7007C93.0685 13.3204 94.2653 12.6066 96.3375 12.6066V12.5034C96.3375 11.767 95.9473 11.3982 95.1763 11.3982C94.6247 11.3982 94.1408 11.5369 93.715 11.8132L93.4623 10.9962C93.9795 10.6737 94.6247 10.5124 95.3827 10.5124C96.844 10.5124 97.5818 11.2832 97.5818 12.8259V14.8857C97.5818 15.4502 97.6067 15.8877 97.6624 16.221L96.5415 16.2198ZM96.3707 13.4343C94.9901 13.4343 94.2974 13.7687 94.2974 14.562C94.2974 15.149 94.6544 15.4359 95.1502 15.4359C95.7824 15.4359 96.3707 14.9533 96.3707 14.2975V13.4343ZM103.618 16.2198L103.56 15.3221H103.526C103.169 16.0004 102.568 16.3467 101.73 16.3467C100.381 16.3467 99.3824 15.1608 99.3824 13.4924C99.3824 11.7433 100.418 10.5112 101.832 10.5112C102.58 10.5112 103.11 10.7638 103.409 11.2713H103.434V8.06128H104.678V14.7126C104.678 15.2533 104.692 15.7597 104.725 16.2198H103.618ZM103.434 12.9291C103.434 12.1465 102.916 11.4788 102.125 11.4788C101.203 11.4788 100.64 12.2959 100.64 13.4461C100.64 14.5738 101.224 15.3458 102.1 15.3458C102.881 15.3458 103.434 14.6663 103.434 13.8612V12.9291ZM112.568 16.3467C110.934 16.3467 109.875 15.1264 109.875 13.4698C109.875 11.7433 110.957 10.5124 112.66 10.5124C114.272 10.5124 115.354 11.6745 115.354 13.3785C115.355 15.1264 114.239 16.3467 112.568 16.3467ZM112.614 11.4207C111.717 11.4207 111.142 12.2603 111.142 13.4343C111.142 14.5857 111.729 15.4253 112.602 15.4253C113.477 15.4253 114.063 14.5276 114.063 13.4105C114.066 12.2722 113.49 11.4207 112.614 11.4207ZM122.039 16.2198H120.795V13.0086C120.795 12.0196 120.415 11.5239 119.667 11.5239C118.93 11.5239 118.425 12.1571 118.425 12.8935V16.2198H117.18V12.2259C117.18 11.7314 117.169 11.2013 117.134 10.6262H118.228L118.286 11.4895H118.32C118.654 10.8918 119.333 10.5112 120.092 10.5112C121.267 10.5112 122.039 11.4089 122.039 12.8698V16.2198ZM130.402 11.5595H129.035V14.275C129.035 14.9664 129.274 15.3114 129.758 15.3114C129.978 15.3114 130.162 15.2877 130.31 15.2533L130.344 16.1972C130.103 16.2897 129.781 16.336 129.38 16.336C128.4 16.336 127.814 15.7952 127.814 14.3794V11.5595H126.998V10.6274H127.814V9.60286L129.035 9.23406V10.6262H130.402V11.5595ZM136.983 16.2198H135.741V13.0323C135.741 12.0314 135.363 11.5251 134.613 11.5251C133.969 11.5251 133.369 11.9627 133.369 12.8485V16.2198H132.127V8.06128H133.369V11.4207H133.394C133.785 10.8112 134.352 10.5112 135.076 10.5112C136.259 10.5112 136.983 11.4314 136.983 12.8935V16.2198ZM143.725 13.7224H139.995C140.018 14.7814 140.719 15.379 141.757 15.379C142.309 15.379 142.816 15.2865 143.265 15.1146L143.458 15.9779C142.929 16.2079 142.306 16.3229 141.582 16.3229C139.832 16.3229 138.797 15.2177 138.797 13.5042C138.797 11.7895 139.857 10.5005 141.442 10.5005C142.871 10.5005 143.768 11.5595 143.768 13.1592C143.776 13.3479 143.761 13.537 143.725 13.7224ZM142.585 12.8366C142.585 11.9733 142.15 11.3638 141.355 11.3638C140.641 11.3638 140.076 11.9852 139.996 12.8366H142.585Z" fill="white"/>
<defs>
<linearGradient id="paint0_linear_2740_4356" x1="117.379" y1="47.8365" x2="117.379" y2="-123.183" gradientUnits="userSpaceOnUse">
<stop stop-color="#1A1A1A" stop-opacity="0.1"/>
<stop offset="0.123" stop-color="#212121" stop-opacity="0.151"/>
<stop offset="0.308" stop-color="#353535" stop-opacity="0.227"/>
<stop offset="0.532" stop-color="#575757" stop-opacity="0.318"/>
<stop offset="0.783" stop-color="#858585" stop-opacity="0.421"/>
<stop offset="1" stop-color="#B3B3B3" stop-opacity="0.51"/>
</linearGradient>
</defs>
</svg>
