<svg width="80" height="31" viewBox="0 0 80 31" fill="none" xmlns="http://www.w3.org/2000/svg">
<path d="M55.1477 21.9262V2.65771H59.1343V21.9262H55.1477Z" fill="#444444"/>
<path d="M10.7129 27.906H2.65771V8.63758H10.3863C14.1467 8.63758 16.3337 10.749 16.3337 14.054C16.3337 16.196 14.9285 17.5731 13.9587 18.0321C15.1165 18.5727 16.6107 19.7866 16.6107 22.3672C16.6107 25.9578 14.1467 27.906 10.7129 27.906ZM10.0993 11.9935H6.428V16.4306H10.0993C11.6925 16.4306 12.5832 15.533 12.5832 14.207C12.5832 12.8809 11.6925 11.9935 10.0993 11.9935ZM10.3368 19.807H6.4181V24.5399H10.3368C12.0389 24.5399 12.8503 23.4587 12.8503 22.153C12.8503 20.8474 12.0389 19.807 10.3368 19.807Z" fill="#444444"/>
<path d="M28.533 20.0008V27.906H24.6419V20.0008L18.604 8.63758H22.8564L26.603 16.4L30.298 8.63758H34.5503L28.533 20.0008Z" fill="#444444"/>
<path d="M45.2632 27.906H37.208V8.63758H44.9366C48.697 8.63758 50.8839 10.749 50.8839 14.054C50.8839 16.196 49.4787 17.5731 48.509 18.0321C49.6668 18.5727 51.161 19.7866 51.161 22.3672C51.1511 25.9578 48.697 27.906 45.2632 27.906ZM44.6397 11.9935H40.9684V16.4306H44.6397C46.2329 16.4306 47.1236 15.533 47.1236 14.207C47.1236 12.8809 46.2329 11.9935 44.6397 11.9935ZM44.8772 19.807H40.9585V24.5399H44.8772C46.5793 24.5399 47.3907 23.4587 47.3907 22.153C47.3907 20.8474 46.5892 19.807 44.8772 19.807Z" fill="#444444"/>
<path d="M71.3282 11.9935V27.906H67.5274V11.9935H62.4563V8.63758H76.4093V11.9935H71.3282Z" fill="#444444"/>
</svg>
