<svg width="26" height="26" viewBox="0 0 26 26" fill="none" xmlns="http://www.w3.org/2000/svg">
<g clip-path="url(#clip0_2800_274)">
<path d="M1.5025 8.08625L6.4325 16.625C7.20737 18.0299 8.41248 19.1492 9.8707 19.8184C11.3289 20.4875 12.9634 20.6712 14.5338 20.3425L11.6012 25.4225C5.35625 24.7275 0.5 19.4313 0.5 13C0.5 11.255 0.8575 9.595 1.5025 8.08625ZM24.46 8C25.1482 9.57697 25.5023 11.2794 25.5 13C25.5 19.3975 20.6938 24.6725 14.495 25.4125L19.43 16.8625C20.11 15.735 20.5 14.4125 20.5 13C20.5025 11.1547 19.8222 9.37366 18.59 8H24.46ZM13 8C14.3261 8 15.5979 8.52679 16.5355 9.46447C17.4732 10.4022 18 11.6739 18 13C18 14.3261 17.4732 15.5979 16.5355 16.5355C15.5979 17.4732 14.3261 18 13 18C11.6739 18 10.4021 17.4732 9.46447 16.5355C8.52678 15.5979 8 14.3261 8 13C8 11.6739 8.52678 10.4022 9.46447 9.46447C10.4021 8.52679 11.6739 8 13 8ZM13 0.500004C14.9408 0.498546 16.8552 0.94972 18.5912 1.81768C20.3271 2.68564 21.8367 3.94647 23 5.5H13C11.4207 5.50018 9.88166 5.99867 8.60214 6.92447C7.32262 7.85028 6.36783 9.1562 5.87375 10.6563L2.94125 5.5775C4.10239 4.0018 5.6178 2.72124 7.36512 1.83922C9.11244 0.957201 11.0427 0.498447 13 0.500004Z" fill="black"/>
</g>
<defs>
<clipPath id="clip0_2800_274">
<rect width="26" height="26" fill="white"/>
</clipPath>
</defs>
</svg>
