<svg width="160" height="48" viewBox="0 0 160 48" fill="none" xmlns="http://www.w3.org/2000/svg">
<g clip-path="url(#clip0_2740_4366)">
<g filter="url(#filter0_d_2740_4366)">
<path class="path" d="M154.074 47.7037H5.92593C2.60741 47.7037 0 45.0963 0 41.7778V6.22222C0 2.9037 2.60741 0.296295 5.92593 0.296295H154.074C157.393 0.296295 160 2.9037 160 6.22222V41.7778C160 45.0963 157.393 47.7037 154.074 47.7037Z" fill="black"/>
</g>
<g filter="url(#filter1_d_2740_4366)">
<path d="M154.074 1.24444C156.8 1.24444 159.052 3.4963 159.052 6.22222V41.7778C159.052 44.5037 156.8 46.7556 154.074 46.7556H5.92593C3.2 46.7556 0.948148 44.5037 0.948148 41.7778V6.22222C0.948148 3.4963 3.2 1.24444 5.92593 1.24444H154.074ZM154.074 0.296295H5.92593C2.60741 0.296295 0 3.02222 0 6.22222V41.7778C0 45.0963 2.60741 47.7037 5.92593 47.7037H154.074C157.393 47.7037 160 45.0963 160 41.7778V6.22222C160 3.02222 157.393 0.296295 154.074 0.296295Z" fill="#A6A6A6"/>
</g>
<g filter="url(#filter2_d_2740_4366)">
<path d="M56.1778 12.3852C56.1778 13.3333 55.9407 14.1629 55.3481 14.7555C54.637 15.4667 53.8074 15.8222 52.7407 15.8222C51.6741 15.8222 50.8444 15.4667 50.1333 14.7555C49.4222 14.0444 49.0667 13.2148 49.0667 12.1481C49.0667 11.0815 49.4222 10.2518 50.1333 9.54073C50.8444 8.82962 51.6741 8.47406 52.7407 8.47406C53.2148 8.47406 53.6889 8.59258 54.1629 8.82962C54.637 9.06665 54.9926 9.30369 55.2296 9.65925L54.637 10.2518C54.1629 9.65924 53.5704 9.42221 52.7407 9.42221C52.0296 9.42221 51.3185 9.65924 50.8444 10.2518C50.2518 10.7259 50.0148 11.437 50.0148 12.2667C50.0148 13.0963 50.2518 13.8074 50.8444 14.2815C51.437 14.7555 52.0296 15.1111 52.7407 15.1111C53.5704 15.1111 54.1629 14.8741 54.7555 14.2815C55.1111 13.9259 55.3481 13.4518 55.3481 12.8592H52.7407V11.9111H56.1778V12.3852ZM61.6296 9.42221H58.4296V11.6741H61.3926V12.5037H58.4296V14.7555H61.6296V15.7037H57.4815V8.59258H61.6296V9.42221ZM65.5407 15.7037H64.5926V9.42221H62.5778V8.59258H67.5555V9.42221H65.5407V15.7037ZM70.9926 15.7037V8.59258H71.9407V15.7037H70.9926ZM75.9703 15.7037H75.0222V9.42221H73.0074V8.59258H77.8666V9.42221H75.8518V15.7037H75.9703ZM87.2296 14.7555C86.5185 15.4667 85.6889 15.8222 84.6222 15.8222C83.5555 15.8222 82.7259 15.4667 82.0148 14.7555C81.3037 14.0444 80.9481 13.2148 80.9481 12.1481C80.9481 11.0815 81.3037 10.2518 82.0148 9.54073C82.7259 8.82962 83.5555 8.47406 84.6222 8.47406C85.6889 8.47406 86.5185 8.82962 87.2296 9.54073C87.9407 10.2518 88.2963 11.0815 88.2963 12.1481C88.2963 13.2148 87.9407 14.0444 87.2296 14.7555ZM82.7259 14.1629C83.2 14.637 83.9111 14.9926 84.6222 14.9926C85.3333 14.9926 86.0444 14.7555 86.5185 14.1629C86.9926 13.6889 87.3481 12.9778 87.3481 12.1481C87.3481 11.3185 87.1111 10.6074 86.5185 10.1333C86.0444 9.65925 85.3333 9.30369 84.6222 9.30369C83.9111 9.30369 83.2 9.54073 82.7259 10.1333C82.2518 10.6074 81.8963 11.3185 81.8963 12.1481C81.8963 12.9778 82.1333 13.6889 82.7259 14.1629ZM89.6 15.7037V8.59258H90.6666L94.1037 14.1629V8.59258H95.0518V15.7037H94.1037L90.4296 9.89628V15.7037H89.6Z" fill="white"/>
<path d="M56.1778 12.3852C56.1778 13.3333 55.9407 14.1629 55.3481 14.7555C54.637 15.4667 53.8074 15.8222 52.7407 15.8222C51.6741 15.8222 50.8444 15.4667 50.1333 14.7555C49.4222 14.0444 49.0667 13.2148 49.0667 12.1481C49.0667 11.0815 49.4222 10.2518 50.1333 9.54073C50.8444 8.82962 51.6741 8.47406 52.7407 8.47406C53.2148 8.47406 53.6889 8.59258 54.1629 8.82962C54.637 9.06665 54.9926 9.30369 55.2296 9.65925L54.637 10.2518C54.1629 9.65924 53.5704 9.42221 52.7407 9.42221C52.0296 9.42221 51.3185 9.65924 50.8444 10.2518C50.2518 10.7259 50.0148 11.437 50.0148 12.2667C50.0148 13.0963 50.2518 13.8074 50.8444 14.2815C51.437 14.7555 52.0296 15.1111 52.7407 15.1111C53.5704 15.1111 54.1629 14.8741 54.7555 14.2815C55.1111 13.9259 55.3481 13.4518 55.3481 12.8592H52.7407V11.9111H56.1778V12.3852ZM61.6296 9.42221H58.4296V11.6741H61.3926V12.5037H58.4296V14.7555H61.6296V15.7037H57.4815V8.59258H61.6296V9.42221ZM65.5407 15.7037H64.5926V9.42221H62.5778V8.59258H67.5555V9.42221H65.5407V15.7037ZM70.9926 15.7037V8.59258H71.9407V15.7037H70.9926ZM75.9703 15.7037H75.0222V9.42221H73.0074V8.59258H77.8666V9.42221H75.8518V15.7037H75.9703ZM87.2296 14.7555C86.5185 15.4667 85.6889 15.8222 84.6222 15.8222C83.5555 15.8222 82.7259 15.4667 82.0148 14.7555C81.3037 14.0444 80.9481 13.2148 80.9481 12.1481C80.9481 11.0815 81.3037 10.2518 82.0148 9.54073C82.7259 8.82962 83.5555 8.47406 84.6222 8.47406C85.6889 8.47406 86.5185 8.82962 87.2296 9.54073C87.9407 10.2518 88.2963 11.0815 88.2963 12.1481C88.2963 13.2148 87.9407 14.0444 87.2296 14.7555ZM82.7259 14.1629C83.2 14.637 83.9111 14.9926 84.6222 14.9926C85.3333 14.9926 86.0444 14.7555 86.5185 14.1629C86.9926 13.6889 87.3481 12.9778 87.3481 12.1481C87.3481 11.3185 87.1111 10.6074 86.5185 10.1333C86.0444 9.65925 85.3333 9.30369 84.6222 9.30369C83.9111 9.30369 83.2 9.54073 82.7259 10.1333C82.2518 10.6074 81.8963 11.3185 81.8963 12.1481C81.8963 12.9778 82.1333 13.6889 82.7259 14.1629ZM89.6 15.7037V8.59258H90.6666L94.1037 14.1629V8.59258H95.0518V15.7037H94.1037L90.4296 9.89628V15.7037H89.6Z" stroke="white" stroke-width="1.18519" stroke-miterlimit="10"/>
</g>
<g filter="url(#filter3_d_2740_4366)">
<path d="M80.7112 26.1333C77.8667 26.1333 75.6149 28.2667 75.6149 31.2296C75.6149 34.0741 77.8667 36.3259 80.7112 36.3259C83.5556 36.3259 85.8075 34.1926 85.8075 31.2296C85.8075 28.1481 83.5556 26.1333 80.7112 26.1333ZM80.7112 34.1926C79.1704 34.1926 77.8667 32.8889 77.8667 31.1111C77.8667 29.3333 79.1704 28.0296 80.7112 28.0296C82.2519 28.0296 83.5556 29.2148 83.5556 31.1111C83.5556 32.8889 82.2519 34.1926 80.7112 34.1926ZM69.689 26.1333C66.8445 26.1333 64.5927 28.2667 64.5927 31.2296C64.5927 34.0741 66.8445 36.3259 69.689 36.3259C72.5334 36.3259 74.7853 34.1926 74.7853 31.2296C74.7853 28.1481 72.5334 26.1333 69.689 26.1333ZM69.689 34.1926C68.1482 34.1926 66.8445 32.8889 66.8445 31.1111C66.8445 29.3333 68.1482 28.0296 69.689 28.0296C71.2297 28.0296 72.5334 29.2148 72.5334 31.1111C72.5334 32.8889 71.2297 34.1926 69.689 34.1926ZM56.5334 27.6741V29.8074H61.6297C61.5112 30.9926 61.0371 31.9407 60.4445 32.5333C59.7334 33.2444 58.5482 34.0741 56.5334 34.0741C53.3334 34.0741 50.963 31.5852 50.963 28.3852C50.963 25.1852 53.4519 22.6963 56.5334 22.6963C58.1927 22.6963 59.4964 23.4074 60.4445 24.237L61.9853 22.6963C60.6816 21.5111 59.0223 20.563 56.6519 20.563C52.3853 20.563 48.7112 24.1185 48.7112 28.3852C48.7112 32.6518 52.3853 36.2074 56.6519 36.2074C59.0223 36.2074 60.6816 35.4963 62.1038 33.9555C63.526 32.5333 64.0001 30.5185 64.0001 28.9778C64.0001 28.5037 64.0001 28.0296 63.8816 27.6741H56.5334ZM110.341 29.3333C109.867 28.1481 108.682 26.1333 106.074 26.1333C103.467 26.1333 101.333 28.1481 101.333 31.2296C101.333 34.0741 103.467 36.3259 106.311 36.3259C108.563 36.3259 109.985 34.9037 110.459 34.0741L108.8 32.8889C108.207 33.7185 107.496 34.3111 106.311 34.3111C105.126 34.3111 104.415 33.837 103.822 32.7704L110.578 29.9259L110.341 29.3333ZM103.467 30.9926C103.467 29.0963 105.007 28.0296 106.074 28.0296C106.904 28.0296 107.733 28.5037 107.97 29.0963L103.467 30.9926ZM97.8964 35.8518H100.148V21.037H97.8964V35.8518ZM94.3408 27.2C93.7482 26.6074 92.8001 26.0148 91.6149 26.0148C89.126 26.0148 86.7556 28.2667 86.7556 31.1111C86.7556 33.9556 89.0075 36.0889 91.6149 36.0889C92.8001 36.0889 93.7482 35.4963 94.2223 34.9037H94.3408V35.6148C94.3408 37.5111 93.2742 38.5778 91.6149 38.5778C90.3112 38.5778 89.363 37.6296 89.126 36.8L87.2297 37.6296C87.8223 38.9333 89.2445 40.5926 91.7334 40.5926C94.3408 40.5926 96.4741 39.0518 96.4741 35.3778V26.3704H94.3408V27.2ZM91.7334 34.1926C90.1927 34.1926 88.889 32.8889 88.889 31.1111C88.889 29.3333 90.1927 28.0296 91.7334 28.0296C93.2741 28.0296 94.4593 29.3333 94.4593 31.1111C94.4593 32.8889 93.2741 34.1926 91.7334 34.1926ZM120.652 21.037H115.319V35.8518H117.57V30.2815H120.652C123.141 30.2815 125.511 28.5037 125.511 25.6593C125.511 22.8148 123.141 21.037 120.652 21.037ZM120.77 28.1481H117.57V23.0518H120.77C122.43 23.0518 123.378 24.4741 123.378 25.5407C123.259 26.8444 122.311 28.1481 120.77 28.1481ZM134.4 26.0148C132.741 26.0148 131.082 26.7259 130.489 28.2667L132.504 29.0963C132.978 28.2667 133.689 28.0296 134.519 28.0296C135.704 28.0296 136.77 28.7407 136.889 29.9259V30.0444C136.533 29.8074 135.585 29.4518 134.637 29.4518C132.504 29.4518 130.37 30.637 130.37 32.7704C130.37 34.7852 132.148 36.0889 134.045 36.0889C135.585 36.0889 136.296 35.3778 136.889 34.6667H137.007V35.8518H139.141V30.163C138.904 27.5556 136.889 26.0148 134.4 26.0148ZM134.163 34.1926C133.452 34.1926 132.385 33.837 132.385 32.8889C132.385 31.7037 133.689 31.3481 134.756 31.3481C135.704 31.3481 136.178 31.5852 136.77 31.8222C136.533 33.2444 135.348 34.1926 134.163 34.1926ZM146.607 26.3704L144.119 32.7704H144L141.393 26.3704H139.022L142.933 35.3778L140.682 40.3555H142.933L148.978 26.3704H146.607ZM126.696 35.8518H128.948V21.037H126.696V35.8518Z" fill="white"/>
</g>
<g filter="url(#filter4_d_2740_4366)">
<path d="M12.3259 9.18518C11.9703 9.54074 11.8518 10.1333 11.8518 10.8444V37.037C11.8518 37.7481 12.0888 38.3407 12.4444 38.6963L12.5629 38.8148L27.2592 24.1185V23.8815L12.3259 9.18518Z" fill="url(#paint0_linear_2740_4366)"/>
<path d="M31.9999 29.0963L27.1406 24.237V23.8815L31.9999 19.0222L32.1184 19.1407L37.9258 22.4593C39.5851 23.4074 39.5851 24.9481 37.9258 25.8963L31.9999 29.0963Z" fill="url(#paint1_linear_2740_4366)"/>
<path d="M32.1185 28.9778L27.1407 24L12.3259 38.8148C12.9185 39.4074 13.7482 39.4074 14.8148 38.9333L32.1185 28.9778Z" fill="url(#paint2_linear_2740_4366)"/>
<path d="M32.1185 19.0222L14.8148 9.18516C13.7482 8.59257 12.9185 8.71109 12.3259 9.30368L27.1407 24L32.1185 19.0222Z" fill="url(#paint3_linear_2740_4366)"/>
<path opacity="0.2" d="M32 28.8593L14.8148 38.5778C13.8667 39.1704 13.037 39.0518 12.4444 38.5778L12.3259 38.6963L12.4444 38.8148C13.037 39.2889 13.8667 39.4074 14.8148 38.8148L32 28.8593Z" fill="black"/>
<path opacity="0.12" d="M12.3259 38.5778C11.9703 38.2222 11.8518 37.6296 11.8518 36.9185V37.037C11.8518 37.7481 12.0888 38.3407 12.4444 38.6963V38.5778H12.3259ZM37.9259 25.5407L32 28.8593L32.1185 28.9778L37.9259 25.6593C38.7555 25.1852 39.1111 24.5926 39.1111 24C39.1111 24.5926 38.637 25.0667 37.9259 25.5407Z" fill="black"/>
<path opacity="0.25" d="M14.8148 9.30369L37.9259 22.4592C38.637 22.9333 39.1111 23.4074 39.1111 24C39.1111 23.4074 38.7555 22.8148 37.9259 22.3407L14.8148 9.18517C13.1555 8.23703 11.8518 8.94814 11.8518 10.8444V10.963C11.8518 9.18517 13.1555 8.35554 14.8148 9.30369Z" fill="white"/>
</g>
</g>
<defs>
<filter id="filter0_d_2740_4366" x="-4" y="0.296295" width="168" height="55.4074" filterUnits="userSpaceOnUse" color-interpolation-filters="sRGB">
<feFlood flood-opacity="0" result="BackgroundImageFix"/>
<feColorMatrix in="SourceAlpha" type="matrix" values="0 0 0 0 0 0 0 0 0 0 0 0 0 0 0 0 0 0 127 0" result="hardAlpha"/>
<feOffset dy="4"/>
<feGaussianBlur stdDeviation="2"/>
<feComposite in2="hardAlpha" operator="out"/>
<feColorMatrix type="matrix" values="0 0 0 0 0 0 0 0 0 0 0 0 0 0 0 0 0 0 0.25 0"/>
<feBlend mode="normal" in2="BackgroundImageFix" result="effect1_dropShadow_2740_4366"/>
<feBlend mode="normal" in="SourceGraphic" in2="effect1_dropShadow_2740_4366" result="shape"/>
</filter>
<filter id="filter1_d_2740_4366" x="-4" y="0.296295" width="168" height="55.4074" filterUnits="userSpaceOnUse" color-interpolation-filters="sRGB">
<feFlood flood-opacity="0" result="BackgroundImageFix"/>
<feColorMatrix in="SourceAlpha" type="matrix" values="0 0 0 0 0 0 0 0 0 0 0 0 0 0 0 0 0 0 127 0" result="hardAlpha"/>
<feOffset dy="4"/>
<feGaussianBlur stdDeviation="2"/>
<feComposite in2="hardAlpha" operator="out"/>
<feColorMatrix type="matrix" values="0 0 0 0 0 0 0 0 0 0 0 0 0 0 0 0 0 0 0.25 0"/>
<feBlend mode="normal" in2="BackgroundImageFix" result="effect1_dropShadow_2740_4366"/>
<feBlend mode="normal" in="SourceGraphic" in2="effect1_dropShadow_2740_4366" result="shape"/>
</filter>
<filter id="filter2_d_2740_4366" x="44.4741" y="7.8512" width="55.1704" height="16.5636" filterUnits="userSpaceOnUse" color-interpolation-filters="sRGB">
<feFlood flood-opacity="0" result="BackgroundImageFix"/>
<feColorMatrix in="SourceAlpha" type="matrix" values="0 0 0 0 0 0 0 0 0 0 0 0 0 0 0 0 0 0 127 0" result="hardAlpha"/>
<feOffset dy="4"/>
<feGaussianBlur stdDeviation="2"/>
<feComposite in2="hardAlpha" operator="out"/>
<feColorMatrix type="matrix" values="0 0 0 0 0 0 0 0 0 0 0 0 0 0 0 0 0 0 0.25 0"/>
<feBlend mode="normal" in2="BackgroundImageFix" result="effect1_dropShadow_2740_4366"/>
<feBlend mode="normal" in="SourceGraphic" in2="effect1_dropShadow_2740_4366" result="shape"/>
</filter>
<filter id="filter3_d_2740_4366" x="44.7112" y="20.563" width="108.267" height="28.0296" filterUnits="userSpaceOnUse" color-interpolation-filters="sRGB">
<feFlood flood-opacity="0" result="BackgroundImageFix"/>
<feColorMatrix in="SourceAlpha" type="matrix" values="0 0 0 0 0 0 0 0 0 0 0 0 0 0 0 0 0 0 127 0" result="hardAlpha"/>
<feOffset dy="4"/>
<feGaussianBlur stdDeviation="2"/>
<feComposite in2="hardAlpha" operator="out"/>
<feColorMatrix type="matrix" values="0 0 0 0 0 0 0 0 0 0 0 0 0 0 0 0 0 0 0.25 0"/>
<feBlend mode="normal" in2="BackgroundImageFix" result="effect1_dropShadow_2740_4366"/>
<feBlend mode="normal" in="SourceGraphic" in2="effect1_dropShadow_2740_4366" result="shape"/>
</filter>
<filter id="filter4_d_2740_4366" x="7.85181" y="8.76703" width="35.3184" height="38.5083" filterUnits="userSpaceOnUse" color-interpolation-filters="sRGB">
<feFlood flood-opacity="0" result="BackgroundImageFix"/>
<feColorMatrix in="SourceAlpha" type="matrix" values="0 0 0 0 0 0 0 0 0 0 0 0 0 0 0 0 0 0 127 0" result="hardAlpha"/>
<feOffset dy="4"/>
<feGaussianBlur stdDeviation="2"/>
<feComposite in2="hardAlpha" operator="out"/>
<feColorMatrix type="matrix" values="0 0 0 0 0 0 0 0 0 0 0 0 0 0 0 0 0 0 0.25 0"/>
<feBlend mode="normal" in2="BackgroundImageFix" result="effect1_dropShadow_2740_4366"/>
<feBlend mode="normal" in="SourceGraphic" in2="effect1_dropShadow_2740_4366" result="shape"/>
</filter>
<linearGradient id="paint0_linear_2740_4366" x1="25.837" y1="10.6193" x2="5.94603" y2="30.509" gradientUnits="userSpaceOnUse">
<stop stop-color="#00A0FF"/>
<stop offset="0.007" stop-color="#00A1FF"/>
<stop offset="0.26" stop-color="#00BEFF"/>
<stop offset="0.512" stop-color="#00D2FF"/>
<stop offset="0.76" stop-color="#00DFFF"/>
<stop offset="1" stop-color="#00E3FF"/>
</linearGradient>
<linearGradient id="paint1_linear_2740_4366" x1="40.0994" y1="24.0012" x2="11.4215" y2="24.0012" gradientUnits="userSpaceOnUse">
<stop stop-color="#FFE000"/>
<stop offset="0.409" stop-color="#FFBD00"/>
<stop offset="0.775" stop-color="#FFA500"/>
<stop offset="1" stop-color="#FF9C00"/>
</linearGradient>
<linearGradient id="paint2_linear_2740_4366" x1="29.4246" y1="26.7212" x2="2.45215" y2="53.6936" gradientUnits="userSpaceOnUse">
<stop stop-color="#FF3A44"/>
<stop offset="1" stop-color="#C31162"/>
</linearGradient>
<linearGradient id="paint3_linear_2740_4366" x1="8.6483" y1="0.504867" x2="20.6933" y2="12.5499" gradientUnits="userSpaceOnUse">
<stop stop-color="#32A071"/>
<stop offset="0.069" stop-color="#2DA771"/>
<stop offset="0.476" stop-color="#15CF74"/>
<stop offset="0.801" stop-color="#06E775"/>
<stop offset="1" stop-color="#00F076"/>
</linearGradient>
<clipPath id="clip0_2740_4366">
<rect width="160" height="48" fill="white"/>
</clipPath>
</defs>
</svg>
