<svg width="64" height="65" viewBox="0 0 64 65" fill="none" xmlns="http://www.w3.org/2000/svg">
<g clip-path="url(#clip0_2763_269)">
<path d="M49.5646 21.4979H43.903C43.2488 21.4979 42.6212 21.2175 42.1805 20.7235L39.8839 18.133C39.5367 17.7458 39.056 17.5188 38.5352 17.5188C38.0145 17.5188 37.5338 17.7458 37.1866 18.133L35.2104 20.3629C34.5694 21.084 33.6347 21.5113 32.6733 21.5113H1.68148C0.800192 24.0083 0.226021 26.6655 -0.000976562 29.4295H29.255C29.7758 29.4295 30.2565 29.2159 30.617 28.842L33.341 25.9978C33.6748 25.6373 34.1555 25.437 34.6362 25.437H34.743C35.2638 25.437 35.7445 25.664 36.0917 26.0512L38.3883 28.6417C38.829 29.1357 39.4566 29.4162 40.1109 29.4162H63.9857C63.7587 26.6655 63.1845 23.9949 62.3032 21.4846L49.5646 21.4979Z" fill="white"/>
<path d="M17.7049 46.0939C18.2256 46.0939 18.7063 45.8803 19.0669 45.5064L21.7908 42.6623C22.138 42.3017 22.6054 42.1014 23.0994 42.1014H23.2062C23.727 42.1014 24.221 42.3284 24.5549 42.7023L26.8515 45.2928C27.2922 45.7868 27.9198 46.0672 28.5741 46.0672H60.9413C62.1564 43.5569 63.0377 40.873 63.5718 38.0555H32.4998C31.8455 38.0555 31.2179 37.7751 30.7773 37.2811L28.4806 34.7173C28.1334 34.3301 27.6527 34.1165 27.132 34.1165C26.6112 34.1165 26.1171 34.3435 25.7833 34.7173L23.8071 36.9473C23.1662 37.6817 22.2315 38.0956 21.2567 38.0956H0.439697C0.97381 40.913 1.85509 43.5969 3.0702 46.1073L17.7049 46.0939Z" fill="white"/>
<path d="M40.6584 12.832C41.1791 12.832 41.6598 12.6184 42.0204 12.2445L44.7443 9.40038C45.0781 9.03985 45.5588 8.83956 46.0529 8.83956H46.1597C46.6805 8.83956 47.1612 9.06656 47.5084 9.45379L49.805 12.0576C50.2457 12.5516 50.8733 12.832 51.5275 12.832H57.6832C51.8213 5.03401 42.501 0 32.0057 0C21.5104 0 12.1768 5.03401 6.31494 12.832H40.6584Z" fill="white"/>
<path d="M28.3069 54.0388H19.8947C19.2404 54.0388 18.6128 53.7584 18.1721 53.2643L15.8755 50.6739C15.5283 50.2866 15.0476 50.073 14.5268 50.073C14.0061 50.073 13.512 50.3 13.1782 50.6739L11.202 52.9038C10.561 53.6382 9.62635 54.0521 8.65159 54.0521H8.51807C14.3799 60.328 22.7255 64.267 32.0056 64.267C41.2859 64.267 49.618 60.328 55.4932 54.0521L28.3069 54.0388Z" fill="white"/>
</g>
<defs>
<clipPath id="clip0_2763_269">
<rect width="64" height="64.2537" fill="white" transform="translate(-0.000976562)"/>
</clipPath>
</defs>
</svg>
