<svg width="61" height="64" viewBox="0 0 61 64" fill="none" xmlns="http://www.w3.org/2000/svg">
<g clip-path="url(#clip0_2763_281)">
<path d="M30.0859 13.4235C36.4594 13.4235 41.6261 10.4186 41.6261 6.71176C41.6261 3.00496 36.4594 0 30.0859 0C23.7124 0 18.5457 3.00496 18.5457 6.71176C18.5457 10.4186 23.7124 13.4235 30.0859 13.4235Z" fill="#E6007A"/>
<path d="M30.0859 63.9955C36.4594 63.9955 41.6261 60.9906 41.6261 57.2838C41.6261 53.577 36.4594 50.572 30.0859 50.572C23.7124 50.572 18.5457 53.577 18.5457 57.2838C18.5457 60.9906 23.7124 63.9955 30.0859 63.9955Z" fill="#E6007A"/>
<path d="M14.0038 22.7142C17.1906 17.1947 17.1699 11.2168 13.9576 9.36216C10.7454 7.5075 5.55794 10.4784 2.37119 15.9979C-0.815555 21.5173 -0.794872 27.4952 2.41739 29.3498C5.62965 31.2045 10.8171 28.2336 14.0038 22.7142Z" fill="#E6007A"/>
<path d="M57.7958 47.9972C60.9825 42.4778 60.9636 36.5009 57.7535 34.6475C54.5434 32.7941 49.3577 35.766 46.171 41.2855C42.9842 46.8049 43.0032 52.7818 46.2133 54.6352C49.4234 56.4886 54.609 53.5167 57.7958 47.9972Z" fill="#E6007A"/>
<path d="M13.9593 54.6334C17.1716 52.7788 17.1923 46.8009 14.0055 41.2815C10.8188 35.762 5.63136 32.7911 2.4191 34.6458C-0.793163 36.5004 -0.813847 42.4783 2.3729 47.9978C5.55965 53.5172 10.7471 56.4881 13.9593 54.6334Z" fill="#E6007A"/>
<path d="M57.7562 29.3513C60.9663 27.4979 60.9852 21.521 57.7985 16.0016C54.6117 10.4821 49.426 7.5102 46.2159 9.3636C43.0059 11.217 42.9869 17.1939 46.1737 22.7133C49.3604 28.2328 54.5461 31.2047 57.7562 29.3513Z" fill="#E6007A"/>
</g>
<defs>
<clipPath id="clip0_2763_281">
<rect width="60.179" height="64" fill="white" transform="translate(-0.0012207)"/>
</clipPath>
</defs>
</svg>
