<svg width="64" height="64" viewBox="0 0 64 64" fill="none" xmlns="http://www.w3.org/2000/svg">
<g clip-path="url(#clip0_2763_315)">
<path d="M5.78467 19.4559V44.5439C5.78467 46.1567 6.62947 47.6159 8.03747 48.4351L29.7719 60.9791C31.1543 61.7727 32.8695 61.7727 34.2519 60.9791L55.9863 48.4351C57.3687 47.6415 58.2391 46.1567 58.2391 44.5439V19.4559C58.2391 17.8431 57.3943 16.3839 55.9863 15.5647L34.2519 3.02074C32.8695 2.22714 31.1543 2.22714 29.7719 3.02074L8.03747 15.5647C6.65507 16.3583 5.81027 17.8431 5.81027 19.4559H5.78467Z" fill="#213147"/>
<path d="M36.735 36.8642L33.6374 45.3634C33.5606 45.5938 33.5606 45.8498 33.6374 46.1058L38.9622 60.7234L45.1318 57.165L37.7334 36.8642C37.5542 36.4034 36.9142 36.4034 36.735 36.8642Z" fill="#12AAFF"/>
<path d="M42.9558 22.5792C42.7766 22.1184 42.1366 22.1184 41.9574 22.5792L38.8598 31.0784C38.783 31.3088 38.783 31.5648 38.8598 31.8208L47.5894 55.7568L53.759 52.1984L42.9558 22.6048V22.5792Z" fill="#12AAFF"/>
<path d="M31.9991 3.968C32.1527 3.968 32.3063 4.0192 32.4343 4.096L55.9351 17.664C56.2167 17.8176 56.3703 18.1248 56.3703 18.432V45.568C56.3703 45.8752 56.1911 46.1824 55.9351 46.336L32.4343 59.904C32.3063 59.9808 32.1527 60.032 31.9991 60.032C31.8455 60.032 31.6919 59.9808 31.5639 59.904L8.06308 46.336C7.78148 46.1824 7.62788 45.8752 7.62788 45.568V18.4064C7.62788 18.0992 7.80708 17.792 8.06308 17.6384L31.5639 4.0704C31.6919 3.9936 31.8455 3.9424 31.9991 3.9424V3.968ZM31.9991 0C31.1543 0 30.3351 0.2048 29.5671 0.64L6.06628 14.208C4.55588 15.0784 3.63428 16.6656 3.63428 18.4064V45.5424C3.63428 47.2832 4.55588 48.8704 6.06628 49.7408L29.5671 63.3088C30.3095 63.744 31.1543 63.9488 31.9991 63.9488C32.8439 63.9488 33.6631 63.744 34.4311 63.3088L57.9319 49.7408C59.4423 48.8704 60.3639 47.2832 60.3639 45.5424V18.4064C60.3639 16.6656 59.4423 15.0784 57.9319 14.208L34.4055 0.64C33.6631 0.2048 32.8183 0 31.9735 0H31.9991Z" fill="#9DCCED"/>
<path d="M16.4343 55.7825L18.6103 49.8433L22.9623 53.4529L18.8919 57.1905L16.4343 55.7825Z" fill="#213147"/>
<path d="M30.0022 16.4863H24.0374C23.6022 16.4863 23.1926 16.7679 23.039 17.1775L10.2646 52.1983L16.4342 55.7567L30.5142 17.1775C30.6423 16.8191 30.3862 16.4607 30.0278 16.4607L30.0022 16.4863Z" fill="white"/>
<path d="M40.447 16.4863H34.4822C34.047 16.4863 33.6374 16.7679 33.4838 17.1775L18.8918 57.1647L25.0614 60.7231L40.9334 17.1775C41.0614 16.8191 40.8054 16.4607 40.447 16.4607V16.4863Z" fill="white"/>
</g>
<defs>
<clipPath id="clip0_2763_315">
<rect width="64" height="64" fill="white" transform="translate(-0.000976562)"/>
</clipPath>
</defs>
</svg>
