<svg width="64" height="64" viewBox="0 0 64 64" fill="none" xmlns="http://www.w3.org/2000/svg">
<g clip-path="url(#clip0_2766_2)">
<path d="M51.701 10.9788H12.2117V46.8937H51.701V10.9788Z" fill="white"/>
<path fill-rule="evenodd" clip-rule="evenodd" d="M63.9352 31.9999C63.9352 49.6497 49.6275 63.9574 31.9777 63.9574C14.3281 63.9574 0.0202637 49.6497 0.0202637 31.9999C0.0202637 14.3503 14.3281 0.0424805 31.9777 0.0424805C49.6275 0.0424805 63.9352 14.3503 63.9352 31.9999ZM22.9219 44.7174H16.7198C15.4166 44.7174 14.7729 44.7174 14.3803 44.4663C13.9564 44.1914 13.6973 43.7361 13.6659 43.2335C13.6423 42.7706 13.9643 42.2051 14.608 41.0746L29.9216 14.0823C30.5732 12.9361 30.9029 12.3629 31.319 12.151C31.7665 11.9233 32.3004 11.9233 32.7479 12.151C33.164 12.3629 33.4937 12.9361 34.1453 14.0823L37.2935 19.5778L37.3095 19.6058C38.0133 20.8355 38.3702 21.459 38.526 22.1135C38.6987 22.8279 38.6987 23.5816 38.526 24.296C38.369 24.9555 38.0157 25.5835 37.3013 26.8318L29.2574 41.0511L29.2366 41.0875C28.5282 42.3273 28.1692 42.9557 27.6716 43.4297C27.1299 43.948 26.4783 44.3246 25.7638 44.5369C25.1122 44.7174 24.3821 44.7174 22.9219 44.7174ZM38.5841 44.7174H47.4709C48.782 44.7174 49.4415 44.7174 49.8343 44.4586C50.2581 44.1838 50.5249 43.7204 50.5488 43.2182C50.5713 42.7701 50.2564 42.2267 49.6394 41.1619C49.6181 41.1257 49.5969 41.0888 49.5752 41.0512L45.1237 33.4361L45.073 33.3503C44.4475 32.2926 44.1318 31.7584 43.7262 31.5519C43.279 31.3242 42.7526 31.3242 42.3053 31.5519C41.8971 31.7639 41.5674 32.3213 40.9158 33.4439L36.4801 41.0591L36.4649 41.0853C35.8156 42.2062 35.4911 42.7663 35.5145 43.2259C35.5459 43.7284 35.8049 44.1914 36.2289 44.4663C36.6136 44.7174 37.273 44.7174 38.5841 44.7174Z" fill="#E84142"/>
</g>
<defs>
<clipPath id="clip0_2766_2">
<rect width="63.9574" height="64" fill="white" transform="translate(-0.000976562)"/>
</clipPath>
</defs>
</svg>
