<svg width="64" height="64" viewBox="0 0 64 64" fill="none" xmlns="http://www.w3.org/2000/svg">
<g clip-path="url(#clip0_2766_81)">
<path d="M31.999 64C49.6721 64 63.999 49.6731 63.999 32C63.999 14.3269 49.6721 0 31.999 0C14.3259 0 -0.000976562 14.3269 -0.000976562 32C-0.000976562 49.6731 14.3259 64 31.999 64Z" fill="#00EF8B"/>
<path d="M46.015 27.0081H36.991V36.0321H46.015V27.0081Z" fill="white"/>
<path d="M27.9669 39.4241C27.9669 41.2801 26.4309 42.8161 24.5749 42.8161C22.7189 42.8161 21.1829 41.2801 21.1829 39.4241C21.1829 37.5681 22.7189 36.0321 24.5749 36.0321H27.9669V27.0081H24.5749C17.7269 27.0081 12.1589 32.5761 12.1589 39.4241C12.1589 46.2721 17.7269 51.8401 24.5749 51.8401C31.4229 51.8401 36.9909 46.2721 36.9909 39.4241V36.0321H27.9669V39.4241Z" fill="white"/>
<path d="M40.383 22.4639H50.559V13.4399H40.383C33.535 13.4399 27.967 19.0079 27.967 25.8559V27.0079H36.991V25.8559C36.991 23.9999 38.527 22.4639 40.383 22.4639Z" fill="white"/>
<path d="M36.991 27.0081H27.967V36.0321H36.991V27.0081Z" fill="#16FF99"/>
</g>
<defs>
<clipPath id="clip0_2766_81">
<rect width="64" height="64" fill="white" transform="translate(-0.000976562)"/>
</clipPath>
</defs>
</svg>
