<svg width="64" height="64" viewBox="0 0 64 64" fill="none" xmlns="http://www.w3.org/2000/svg">
<g clip-path="url(#clip0_2766_90)">
<path d="M31.999 64C49.6721 64 63.999 49.6731 63.999 32C63.999 14.3269 49.6721 0 31.999 0C14.3259 0 -0.000976562 14.3269 -0.000976562 32C-0.000976562 49.6731 14.3259 64 31.999 64Z" fill="#FF0420"/>
<path d="M22.6678 40.4991C20.7606 40.4991 19.199 40.0511 17.983 39.1551C16.7798 38.2463 16.1782 36.9407 16.1782 35.2639C16.1782 34.9055 16.2166 34.4831 16.2934 33.9711C16.4982 32.8191 16.7926 31.4367 17.1766 29.8111C18.2646 25.4079 21.0806 23.2063 25.6118 23.2063C26.8406 23.2063 27.9542 23.4111 28.927 23.8335C29.8998 24.2303 30.6678 24.8447 31.231 25.6639C31.7942 26.4703 32.0758 27.4303 32.0758 28.5439C32.0758 28.8767 32.0374 29.2991 31.9606 29.8111C31.7174 31.2319 31.4358 32.6271 31.0902 33.9711C30.527 36.1599 29.567 37.8111 28.1846 38.8991C26.815 39.9743 24.9718 40.4991 22.6678 40.4991ZM23.0134 37.0431C23.9094 37.0431 24.6646 36.7743 25.2918 36.2495C25.9318 35.7247 26.3926 34.9183 26.6614 33.8175C27.0326 32.3071 27.3142 31.0015 27.5062 29.8751C27.5702 29.5423 27.6086 29.1967 27.6086 28.8383C27.6086 27.3791 26.8534 26.6495 25.3302 26.6495C24.4342 26.6495 23.6662 26.9183 23.0262 27.4431C22.399 27.9679 21.951 28.7743 21.6822 29.8751C21.3878 30.9503 21.1062 32.2559 20.8118 33.8175C20.7478 34.1375 20.7094 34.4703 20.7094 34.8287C20.6966 36.3135 21.4774 37.0431 23.0134 37.0431Z" fill="white"/>
<path d="M33.1894 40.2689C33.0102 40.2689 32.8822 40.2177 32.7798 40.1025C32.703 39.9745 32.6774 39.8337 32.703 39.6673L36.0182 24.0513C36.0438 23.8721 36.1334 23.7313 36.287 23.6161C36.4278 23.5009 36.5814 23.4497 36.7478 23.4497H43.135C44.9142 23.4497 46.335 23.8209 47.4102 24.5505C48.4982 25.2929 49.0486 26.3553 49.0486 27.7505C49.0486 28.1473 48.9974 28.5697 48.9078 29.0049C48.511 30.8481 47.7046 32.2049 46.4758 33.0881C45.2726 33.9713 43.6214 34.4065 41.5222 34.4065H38.2838L37.183 39.6673C37.1446 39.8465 37.0678 39.9873 36.9142 40.1025C36.7734 40.2177 36.6198 40.2689 36.4534 40.2689H33.1894ZM41.6886 31.0913C42.367 31.0913 42.943 30.9121 43.4422 30.5409C43.9542 30.1697 44.287 29.6449 44.4534 28.9537C44.5046 28.6849 44.5302 28.4417 44.5302 28.2369C44.5302 27.7761 44.3894 27.4177 44.1206 27.1745C43.8518 26.9185 43.3782 26.7905 42.7254 26.7905H39.8454L38.9366 31.0913H41.6886Z" fill="white"/>
</g>
<defs>
<clipPath id="clip0_2766_90">
<rect width="64" height="64" fill="white" transform="translate(-0.000976562)"/>
</clipPath>
</defs>
</svg>
