<svg width="64" height="56" viewBox="0 0 64 56" fill="none" xmlns="http://www.w3.org/2000/svg">
<g clip-path="url(#clip0_2766_94)">
<path d="M48.3324 16.9999C47.1657 16.3333 45.6657 16.3333 44.3324 16.9999L34.999 22.4999L28.6657 25.9999L19.499 31.4999C18.3324 32.1666 16.8324 32.1666 15.499 31.4999L8.33236 27.1666C7.16569 26.4999 6.33236 25.1666 6.33236 23.6666V15.3333C6.33236 13.9999 6.99902 12.6666 8.33236 11.8333L15.499 7.66658C16.6657 6.99992 18.1657 6.99992 19.499 7.66658L26.6657 11.9999C27.8324 12.6666 28.6657 13.9999 28.6657 15.4999V20.9999L34.999 17.3333V11.6666C34.999 10.3333 34.3324 8.99992 32.999 8.16658L19.6657 0.333252C18.499 -0.333415 16.999 -0.333415 15.6657 0.333252L1.99902 8.33325C0.66569 8.99992 -0.000976562 10.3333 -0.000976562 11.6666V27.3333C-0.000976562 28.6666 0.66569 29.9999 1.99902 30.8333L15.499 38.6666C16.6657 39.3333 18.1657 39.3333 19.499 38.6666L28.6657 33.3333L34.999 29.6666L44.1657 24.3333C45.3324 23.6666 46.8324 23.6666 48.1657 24.3333L55.3324 28.4999C56.499 29.1666 57.3324 30.4999 57.3324 31.9999V40.3333C57.3324 41.6666 56.6657 42.9999 55.3324 43.8333L48.3324 47.9999C47.1657 48.6666 45.6657 48.6666 44.3324 47.9999L37.1657 43.8333C35.999 43.1666 35.1657 41.8333 35.1657 40.3333V34.9999L28.8324 38.6666V44.1666C28.8324 45.4999 29.499 46.8333 30.8324 47.6666L44.3324 55.4999C45.499 56.1666 46.999 56.1666 48.3324 55.4999L61.8323 47.6666C62.999 46.9999 63.8323 45.6666 63.8323 44.1666V28.3333C63.8323 26.9999 63.1657 25.6666 61.8323 24.8333L48.3324 16.9999Z" fill="#8247E5"/>
</g>
<defs>
<clipPath id="clip0_2766_94">
<rect width="64" height="55.8333" fill="white" transform="translate(-0.000976562)"/>
</clipPath>
</defs>
</svg>
