<svg width="64" height="64" viewBox="0 0 64 64" fill="none" xmlns="http://www.w3.org/2000/svg">
<g clip-path="url(#clip0_2766_97)">
<path d="M31.999 64C49.6721 64 63.999 49.6731 63.999 32C63.999 14.3269 49.6721 0 31.999 0C14.3259 0 -0.000976562 14.3269 -0.000976562 32C-0.000976562 49.6731 14.3259 64 31.999 64Z" fill="#13B5EC"/>
<path fill-rule="evenodd" clip-rule="evenodd" d="M34.399 25.8L41.599 21.6V30L34.399 25.8ZM41.599 43.8L31.999 49.4L22.399 43.8V34L31.999 39.6L41.599 34V43.8ZM22.399 21.6L29.599 25.8L22.399 30V21.6ZM33.199 27.8L40.399 32L33.199 36.2V27.8ZM30.799 36.2L23.599 32L30.799 27.8V36.2ZM40.399 19.6L31.999 24.4L23.599 19.6L31.999 14.6L40.399 19.6ZM19.999 18.8V45L31.999 51.8L43.999 45V18.8L31.999 12L19.999 18.8Z" fill="white"/>
</g>
<defs>
<clipPath id="clip0_2766_97">
<rect width="64" height="64" fill="white" transform="translate(-0.000976562)"/>
</clipPath>
</defs>
</svg>
