<svg width="64" height="64" viewBox="0 0 64 64" fill="none" xmlns="http://www.w3.org/2000/svg">
<g clip-path="url(#clip0_2766_103)">
<path d="M31.999 64C49.6721 64 63.999 49.6731 63.999 32C63.999 14.3269 49.6721 0 31.999 0C14.3259 0 -0.000976562 14.3269 -0.000976562 32C-0.000976562 49.6731 14.3259 64 31.999 64Z" fill="#2E3148"/>
<path d="M31.9991 50.568C42.2539 50.568 50.567 42.2549 50.567 32.0001C50.567 21.7453 42.2539 13.4321 31.9991 13.4321C21.7443 13.4321 13.4312 21.7453 13.4312 32.0001C13.4312 42.2549 21.7443 50.568 31.9991 50.568Z" fill="#1B1E36"/>
<path d="M32.0649 4.08252C28.6107 4.08252 25.8098 16.6112 25.8098 32.0661C25.8098 47.5211 28.6107 60.0497 32.0649 60.0497C35.5191 60.0497 38.32 47.5211 38.32 32.0661C38.32 16.6112 35.5191 4.08252 32.0649 4.08252ZM32.4968 58.4705C32.1018 58.9973 31.7068 58.6021 31.7068 58.6021C30.116 56.7589 29.3206 53.3346 29.3206 53.3346C26.5381 44.38 27.2004 25.1536 27.2004 25.1536C28.5081 9.88988 30.8868 6.28412 31.6963 5.48361C31.7789 5.40191 31.8878 5.35198 32.0036 5.34261C32.1195 5.33325 32.2349 5.36505 32.3296 5.43241C33.5042 6.26466 34.4892 9.74524 34.4892 9.74524C37.3982 20.5436 37.1347 30.6835 37.1347 30.6835C37.3982 39.5065 35.6771 49.383 35.6771 49.383C34.3523 56.8889 32.4968 58.4705 32.4968 58.4705Z" fill="#6F7390"/>
<path d="M56.3374 18.14C54.6176 15.1428 42.3575 18.9484 28.9454 26.6392C15.5334 34.33 6.07262 42.9948 7.79115 45.9908C9.50967 48.9867 21.7711 45.1823 35.1831 37.4916C48.5952 29.8008 58.056 21.136 56.3374 18.14ZM9.37783 45.5796C8.7194 45.4967 8.86814 44.9555 8.86814 44.9555C9.67582 42.6589 12.2461 40.2648 12.2461 40.2648C18.6315 33.3948 35.6391 24.4018 35.6391 24.4018C49.5281 17.9398 53.8422 18.2125 54.9366 18.5138C55.049 18.5451 55.1466 18.6152 55.2122 18.7116C55.2778 18.8081 55.3071 18.9246 55.295 19.0406C55.1634 20.4742 52.6283 23.0598 52.6283 23.0598C44.7148 30.9597 35.7878 35.7781 35.7878 35.7781C28.2658 40.3989 18.8424 43.8188 18.8424 43.8188C11.6721 46.4027 9.37809 45.5796 9.37809 45.5796H9.37783Z" fill="#6F7390"/>
<path d="M56.2768 46.0905C58.0099 43.1011 48.573 34.3966 35.208 26.648C21.843 18.8994 9.58441 15.0466 7.85283 18.041C6.12125 21.0355 15.5566 29.7349 28.9293 37.4835C42.302 45.2321 54.5452 49.0851 56.2768 46.0905ZM9.00125 19.1961C8.74525 18.5891 9.28566 18.443 9.28566 18.443C11.6782 17.9911 15.039 19.0208 15.039 19.0208C24.182 21.1028 40.4854 31.3152 40.4854 31.3152C53.0379 40.0988 54.963 43.9677 55.2515 45.0659C55.2808 45.1786 55.2694 45.298 55.2193 45.403C55.1692 45.5081 55.0836 45.5921 54.9776 45.6402C53.6686 46.2394 50.163 45.3465 50.163 45.3465C39.358 42.4494 30.7167 37.1412 30.7167 37.1412C22.9525 32.9536 15.275 26.51 15.275 26.51C9.44131 21.5982 9.00304 19.2028 9.00304 19.2028L9.00125 19.1961Z" fill="#6F7390"/>
<path d="M31.9989 35.2921C33.8172 35.2921 35.2911 33.8181 35.2911 31.9999C35.2911 30.1817 33.8172 28.7078 31.9989 28.7078C30.1807 28.7078 28.7068 30.1817 28.7068 31.9999C28.7068 33.8181 30.1807 35.2921 31.9989 35.2921Z" fill="#B7B9C8"/>
<path d="M45.4969 21.3332C46.5515 21.3332 47.4064 20.4488 47.4064 19.3579C47.4064 18.2669 46.5515 17.3826 45.4969 17.3826C44.4423 17.3826 43.5874 18.2669 43.5874 19.3579C43.5874 20.4488 44.4423 21.3332 45.4969 21.3332Z" fill="#B7B9C8"/>
<path d="M14.1554 28.0495C15.2099 28.0495 16.0649 27.1651 16.0649 26.0742C16.0649 24.9832 15.2099 24.0989 14.1554 24.0989C13.1008 24.0989 12.2458 24.9832 12.2458 26.0742C12.2458 27.1651 13.1008 28.0495 14.1554 28.0495Z" fill="#B7B9C8"/>
<path d="M28.1143 52.2797C29.1689 52.2797 30.0238 51.3953 30.0238 50.3044C30.0238 49.2135 29.1689 48.3291 28.1143 48.3291C27.0597 48.3291 26.2048 49.2135 26.2048 50.3044C26.2048 51.3953 27.0597 52.2797 28.1143 52.2797Z" fill="#B7B9C8"/>
</g>
<defs>
<clipPath id="clip0_2766_103">
<rect width="64" height="64" fill="white" transform="translate(-0.000976562)"/>
</clipPath>
</defs>
</svg>
