<svg width="64" height="64" viewBox="0 0 64 64" fill="none" xmlns="http://www.w3.org/2000/svg">
<g clip-path="url(#clip0_2766_118)">
<path d="M31.999 64C49.6721 64 63.999 49.6731 63.999 32C63.999 14.3269 49.6721 0 31.999 0C14.3259 0 -0.000976562 14.3269 -0.000976562 32C-0.000976562 49.6731 14.3259 64 31.999 64Z" fill="#0088CC"/>
<path fill-rule="evenodd" clip-rule="evenodd" d="M23.0847 21.1428H41.0275C41.7133 21.1428 42.2847 21.2571 42.9704 21.6C43.7704 21.9428 44.2275 22.5143 44.4561 22.9714C44.4561 22.9714 44.4561 23.0857 44.5704 23.0857C44.9133 23.6571 45.1418 24.3428 45.1418 25.1428C45.1418 25.8285 45.0275 26.5143 44.5704 27.2L33.2561 46.6285C33.0275 47.0857 32.5704 47.3143 31.999 47.3143C31.5418 47.3143 31.0847 47.0857 30.7418 46.6285L19.6561 27.2C19.4275 26.7428 18.9704 26.1714 18.9704 25.2571C18.8561 24.4571 19.0847 23.7714 19.4275 23.0857C19.7704 22.4 20.3418 21.8285 21.1418 21.6C21.8275 21.1428 22.6275 21.1428 23.0847 21.1428ZM30.6275 23.8857H23.0847C22.6275 23.8857 22.399 23.8857 22.2847 24C22.0561 24.1143 21.9418 24.2285 21.8275 24.4571C21.7133 24.5714 21.7133 24.8 21.7133 25.0285C21.7133 25.1428 21.8275 25.2571 22.0561 25.7143L30.6275 40.5714V23.8857ZM33.3704 23.8857V40.6857L42.0561 25.7143C42.1704 25.4857 42.1704 25.2571 42.1704 25.0285C42.1704 24.8 42.1704 24.5714 42.0561 24.4571C41.9418 24.3428 41.9418 24.2285 41.8275 24.2285L41.7133 24.1143C41.4847 24 41.2561 24 40.9133 24H33.3704V23.8857Z" fill="white"/>
</g>
<defs>
<clipPath id="clip0_2766_118">
<rect width="64" height="64" fill="white" transform="translate(-0.000976562)"/>
</clipPath>
</defs>
</svg>
