<svg width="64" height="64" viewBox="0 0 64 64" fill="none" xmlns="http://www.w3.org/2000/svg">
<g clip-path="url(#clip0_2766_121)">
<path d="M61.5491 19.2801C58.5491 16.5101 54.3991 12.2801 51.0191 9.28012L50.8191 9.14012C50.4863 8.8729 50.1111 8.66333 49.7091 8.52012C41.5591 7.00012 3.62907 -0.0898832 2.88907 0.000116844C2.68172 0.0291569 2.48352 0.104335 2.30907 0.220117L2.11907 0.370117C1.88512 0.607718 1.70742 0.894761 1.59907 1.21012L1.54907 1.34012V2.05012V2.16012C5.81907 14.0501 22.6791 53.0001 25.9991 62.1401C26.1991 62.7601 26.5791 63.9401 27.2891 64.0001H27.4491C27.8291 64.0001 29.4491 61.8601 29.4491 61.8601C29.4491 61.8601 58.4091 26.7401 61.3391 23.0001C61.7183 22.5394 62.0532 22.0439 62.3391 21.5201C62.412 21.1103 62.3776 20.6886 62.2392 20.296C62.1007 19.9035 61.863 19.5535 61.5491 19.2801ZM36.8791 23.3701L49.2391 13.1201L56.4891 19.8001L36.8791 23.3701ZM32.0791 22.7001L10.7991 5.26012L45.2291 11.6101L32.0791 22.7001ZM33.9991 27.2701L55.7791 23.7601L30.8791 53.7601L33.9991 27.2701ZM7.90907 7.00012L30.2991 26.0001L27.0591 53.7801L7.90907 7.00012Z" fill="#FF060A"/>
</g>
<defs>
<clipPath id="clip0_2766_121">
<rect width="64" height="64" fill="white" transform="translate(-0.000976562)"/>
</clipPath>
</defs>
</svg>
