<svg width="64" height="64" viewBox="0 0 64 64" fill="none" xmlns="http://www.w3.org/2000/svg">
<g clip-path="url(#clip0_2766_188)">
<path d="M63.9264 0.0725098H0.0715332V63.9274H63.9264V0.0725098Z" fill="black" stroke="black" stroke-miterlimit="10"/>
<path d="M54.2175 18.4888C53.4628 17.8937 52.5631 17.081 50.9231 16.8779C49.3848 16.6747 47.8175 17.7051 46.7581 18.3872C45.6987 19.0692 43.6959 21.072 42.8687 21.6815C42.0415 22.291 39.9227 22.857 36.5123 24.9033C33.1018 26.9495 19.7213 35.5409 19.7213 35.5409L23.2043 35.5844L7.67598 43.5808H9.22882L6.9939 45.2788C6.9939 45.2788 8.96759 45.8012 10.622 44.7563V45.2352C10.622 45.2352 29.1109 37.95 32.681 39.8366L30.5041 40.4751C30.6928 40.4751 34.2048 40.7073 34.2048 40.7073C34.29 41.4346 34.5345 42.1341 34.9208 42.7562C35.307 43.3783 35.8256 43.9076 36.4397 44.3064C38.5585 45.6996 38.6021 46.4688 38.6021 46.4688C38.6021 46.4688 37.4991 46.9187 37.4991 47.4847C37.4991 47.4847 39.1245 46.9912 40.6338 47.0348C41.5917 47.0711 42.5418 47.2222 43.4637 47.4847C43.4637 47.4847 43.3476 46.8751 41.8819 46.4688C40.4161 46.0624 38.9649 44.4661 38.2538 43.5953C37.8182 43.0411 37.5343 42.383 37.43 41.6859C37.3257 40.9887 37.4045 40.2764 37.6588 39.6189C38.1667 38.2983 39.9372 37.5726 43.5943 35.686C47.9046 33.4511 48.8914 31.7967 49.5009 30.5051C50.1105 29.2135 51.0102 26.6448 51.5182 25.4402C52.1567 23.8874 52.9404 23.0602 53.5934 22.5668C54.2465 22.0733 57.149 20.9849 57.149 20.9849C57.149 20.9849 54.9286 19.0547 54.2175 18.4888Z" fill="white"/>
</g>
<defs>
<clipPath id="clip0_2766_188">
<rect x="-0.000976562" width="64" height="64" rx="10" fill="white"/>
</clipPath>
</defs>
</svg>
