<svg width="64" height="64" viewBox="0 0 64 64" fill="none" xmlns="http://www.w3.org/2000/svg">
<g clip-path="url(#clip0_2766_193)">
<path fill-rule="evenodd" clip-rule="evenodd" d="M31.999 0C49.6734 0 63.999 14.3256 63.999 32C63.999 49.6744 49.6734 64 31.999 64C14.3247 64 -0.000976562 49.6744 -0.000976562 32C-0.000976562 14.3256 14.3247 0 31.999 0Z" fill="#F0B90B"/>
<path d="M17.5861 32.0001L17.6092 40.4616L24.7989 44.6924V49.6463L13.4015 42.9616V29.5257L17.5861 32.0001ZM17.5861 23.5386V28.4693L13.3989 25.9924V21.0616L17.5861 18.5847L21.7938 21.0616L17.5861 23.5386ZM27.8015 21.0616L31.9887 18.5847L36.1964 21.0616L31.9887 23.5386L27.8015 21.0616Z" fill="white"/>
<path d="M20.6118 38.7078V33.7539L24.799 36.2309V41.1616L20.6118 38.7078ZM27.8016 46.4668L31.9887 48.9437L36.1964 46.4668V51.3975L31.9887 53.8745L27.8016 51.3975V46.4668ZM42.2016 21.0616L46.3887 18.5847L50.5964 21.0616V25.9924L46.3887 28.4693V23.5386L42.2016 21.0616ZM46.3887 40.4616L46.4118 32.0001L50.599 29.5232V42.9591L39.2016 49.6437V44.6898L46.3887 40.4616Z" fill="white"/>
<path d="M43.3862 38.7078L39.199 41.1616V36.2308L43.3862 33.7539V38.7078Z" fill="white"/>
<path d="M43.3862 25.2924L43.4093 30.2462L36.199 34.477V42.9591L32.0118 45.4129L27.8246 42.9591V34.477L20.6144 30.2462V25.2924L24.8195 22.8155L31.9862 27.0668L39.1964 22.8155L43.4041 25.2924H43.3862ZM20.6118 16.8334L31.9887 10.1257L43.3862 16.8334L39.199 19.3103L31.9887 15.0591L24.799 19.3103L20.6118 16.8334Z" fill="white"/>
</g>
<defs>
<clipPath id="clip0_2766_193">
<rect width="64" height="64" fill="white" transform="translate(-0.000976562)"/>
</clipPath>
</defs>
</svg>
