<svg width="65" height="64" viewBox="0 0 65 64" fill="none" xmlns="http://www.w3.org/2000/svg">
<g clip-path="url(#clip0_2766_209)">
<path d="M51.3412 3.27111L37.9724 23.1111C37.0479 24.4622 38.8257 26.0978 40.1057 24.96L53.2612 13.5111C53.6168 13.2267 54.1146 13.44 54.1146 13.9378V49.7067C54.1146 50.2044 53.4746 50.4178 53.1901 50.0622L13.3679 2.41778C12.0879 0.853333 10.239 0 8.1768 0H6.75458C3.0568 0 -0.000976562 3.05778 -0.000976562 6.82667V57.1733C-0.000976562 60.9422 3.0568 64 6.82569 64C9.17236 64 11.3768 62.7911 12.6568 60.7289L26.0257 40.8889C26.9501 39.5378 25.1724 37.9022 23.8924 39.04L10.7368 50.4178C10.3812 50.7022 9.88347 50.4889 9.88347 49.9911V14.2933C9.88347 13.7956 10.5235 13.5822 10.8079 13.9378L50.6301 61.5822C51.9101 63.1467 53.8301 64 55.8212 64H57.2435C61.0124 64 64.0701 60.9422 64.0701 57.1733V6.82667C64.0701 3.05778 61.0124 0 57.2435 0C54.8257 0 52.6212 1.20889 51.3412 3.27111Z" fill="white"/>
</g>
<defs>
<clipPath id="clip0_2766_209">
<rect width="64.0711" height="64" fill="white" transform="translate(-0.000976562)"/>
</clipPath>
</defs>
</svg>
