<svg width="64" height="64" viewBox="0 0 64 64" fill="none" xmlns="http://www.w3.org/2000/svg">
<g clip-path="url(#clip0_2766_211)">
<path d="M31.999 64C49.6721 64 63.999 49.6731 63.999 32C63.999 14.3269 49.6721 0 31.999 0C14.3259 0 -0.000976562 14.3269 -0.000976562 32C-0.000976562 49.6731 14.3259 64 31.999 64Z" fill="#6FBCF0"/>
<path fill-rule="evenodd" clip-rule="evenodd" d="M16.649 48.6501C19.849 54.2001 25.599 57.5251 31.999 57.5251C38.399 57.5251 44.149 54.2001 47.349 48.6501C50.549 43.1001 50.549 36.475 47.349 30.925L33.849 7.52505C33.024 6.10005 30.974 6.10005 30.149 7.52505L16.649 30.925C13.424 36.475 13.424 43.1001 16.649 48.6501ZM28.199 18.65L31.074 13.65C31.474 12.95 32.524 12.95 32.924 13.65L43.999 32.85C46.024 36.375 46.424 40.4501 45.149 44.2001C45.024 43.6001 44.824 42.975 44.574 42.35C43.049 38.475 39.574 35.5 34.274 33.5C30.624 32.125 28.299 30.0751 27.374 27.4501C26.174 24.0501 27.449 20.35 28.199 18.65ZM23.274 27.15L19.999 32.85C17.499 37.2 17.499 42.375 19.999 46.725C22.499 51.075 26.999 53.6501 31.999 53.6501C35.324 53.6501 38.424 52.5 40.874 50.475C41.199 49.675 42.174 46.75 40.949 43.725C39.824 40.925 37.124 38.7 32.899 37.1C28.149 35.3 25.049 32.475 23.699 28.725C23.524 28.2001 23.399 27.675 23.274 27.15Z" fill="white"/>
</g>
<defs>
<clipPath id="clip0_2766_211">
<rect width="64" height="64" fill="white" transform="translate(-0.000976562)"/>
</clipPath>
</defs>
</svg>
