<svg width="64" height="64" viewBox="0 0 64 64" fill="none" xmlns="http://www.w3.org/2000/svg">
<g clip-path="url(#clip0_2766_214)">
<path d="M63.999 0H-0.000976562V63.3885H63.999V0Z" fill="black"/>
<path d="M31.6933 58.9247V49.6101C30.7557 49.6101 29.7978 49.5285 28.8602 49.3859L27.3927 58.5782C28.8194 58.8228 30.2665 58.9247 31.6933 58.9247ZM35.9736 58.5986C37.4003 58.3744 38.8067 58.0483 40.1723 57.5999L37.2984 48.7336C36.4016 49.019 35.464 49.2432 34.5264 49.3859L35.9736 58.5986ZM23.2143 57.5999L26.0882 48.754C25.1914 48.4687 24.315 48.1018 23.4589 47.6738L19.2194 55.9693C20.5035 56.6012 21.8487 57.1515 23.2143 57.5999ZM44.1468 55.9693C45.4309 55.3171 46.6538 54.5629 47.8156 53.7273L42.3124 46.2063C41.5583 46.7566 40.743 47.2661 39.8869 47.6738L44.1468 55.9693ZM15.5506 53.7069L21.0538 46.1859C20.2997 45.6356 19.5659 45.0241 18.8933 44.3515L12.2895 50.9349C13.3086 51.9336 14.4092 52.8712 15.5506 53.7069ZM51.0564 50.9757L51.1175 50.9145C52.1366 49.9158 53.0742 48.8152 53.9099 47.6738L46.3685 42.191C45.8181 42.9451 45.1863 43.6789 44.5341 44.3311L44.4322 44.433L47.6118 47.4292L51.0564 50.9757ZM9.49712 47.6534L17.0385 42.1706C16.4882 41.4164 15.9787 40.6012 15.5506 39.7655L7.2347 43.9846C7.88693 45.2687 8.64107 46.4916 9.49712 47.6534ZM56.1519 44.005C56.8041 42.7413 57.3545 41.3961 57.8029 40.0305L48.9162 37.177C48.6309 38.0738 48.264 38.9502 47.836 39.7859L56.1519 44.005ZM5.58375 40.0305L14.4704 37.1566C14.185 36.2598 13.9608 35.3426 13.8181 34.405L4.58502 35.8521C4.80923 37.2585 5.15572 38.6649 5.58375 40.0305ZM58.8016 35.8725C59.0258 34.4661 59.1481 33.019 59.1481 31.5922H49.813C49.813 32.5298 49.7315 33.4878 49.5888 34.4254L58.8016 35.8725ZM13.5939 31.5719C13.5939 30.6343 13.6755 29.6763 13.8181 28.7387L4.58502 27.2916C4.36082 28.698 4.25891 30.1451 4.23853 31.5719H13.5939ZM49.5888 28.7591L58.822 27.312C58.5978 25.9056 58.2716 24.4993 57.8232 23.1336L48.9366 25.9871C49.222 26.9043 49.4462 27.8215 49.5888 28.7591ZM14.4704 25.9871C14.7557 25.0903 15.1226 24.2139 15.5506 23.3782L7.2347 19.1591C6.58247 20.4228 6.03216 21.768 5.58375 23.1336L14.4704 25.9871ZM47.8564 23.3986L56.1927 19.1795C55.5404 17.8954 54.7863 16.6725 53.9302 15.5107L46.3685 20.9935C46.9188 21.7477 47.4283 22.5629 47.8564 23.3986ZM17.0385 20.9731C17.5888 20.219 18.2207 19.4852 18.8933 18.8126L18.9137 18.7922L12.3099 12.2088L12.2895 12.2292C11.2704 13.2483 10.3328 14.3285 9.49712 15.4903L17.0385 20.9731ZM44.5341 18.8534L46.5315 16.8356L51.1175 12.2699L51.0971 12.2496C50.078 11.2508 48.9978 10.3133 47.8564 9.47759L42.3532 16.9986C43.1073 17.5489 43.8411 18.1604 44.4933 18.833L44.5341 18.8534ZM21.0742 16.9578C21.8283 16.4075 22.6436 15.9184 23.4997 15.4903L19.2602 7.19479C17.9761 7.84702 16.7532 8.60116 15.5914 9.43683L21.0742 16.9578ZM39.9481 15.5107L44.2079 7.21517C42.9239 6.56294 41.599 6.01262 40.2334 5.56422L37.3392 14.4101C38.2156 14.7158 39.092 15.0827 39.9481 15.5107ZM26.129 14.4101C27.0258 14.1247 27.9634 13.9005 28.9009 13.7578L27.4538 4.56549C26.0474 4.78969 24.6207 5.11581 23.2551 5.56422L26.129 14.4101ZM34.5468 13.7578L36.0143 4.56549C34.6079 4.34129 33.1608 4.21899 31.7341 4.21899V13.5336C32.6716 13.5336 33.6296 13.6152 34.5468 13.7578Z" fill="white"/>
<path d="M31.6933 50.0381V40.6827C30.8984 40.6827 30.1239 40.5808 29.3493 40.377L26.9035 49.4063C28.4729 49.8139 30.0831 50.0381 31.6933 50.0381ZM36.4831 49.4063C38.0525 48.9986 39.5404 48.3872 40.9468 47.5719L36.2181 39.4802C35.5455 39.8674 34.8118 40.1732 34.0576 40.377L36.4831 49.4063ZM22.4602 47.5719L27.1888 39.4802C26.5162 39.0929 25.8844 38.6037 25.3137 38.0534L25.2321 37.9719L22.2563 41.0904L18.5876 44.6165L18.6487 44.6776C19.7901 45.7986 21.0742 46.777 22.4602 47.5719ZM44.7583 44.6776C45.8997 43.5362 46.8984 42.2725 47.6933 40.8865L39.52 36.1986C39.1328 36.8713 38.6436 37.4827 38.0729 38.0534L44.7583 44.6776ZM15.6933 40.8662L23.8665 36.1986C23.4793 35.526 23.1735 34.8127 22.9697 34.0585L13.8589 36.4636C14.2665 37.9923 14.8984 39.4802 15.6933 40.8662ZM49.5481 36.484C49.9557 34.935 50.1799 33.3451 50.1799 31.7553H40.743C40.743 32.5299 40.6411 33.3248 40.4372 34.0789L49.5481 36.484ZM22.6844 31.735C22.6844 30.9604 22.7863 30.1655 22.9901 29.4114L13.8589 27.0063C13.4513 28.5553 13.2271 30.1451 13.2271 31.735H22.6844ZM40.4169 29.4318L49.5481 27.0267C49.1404 25.4776 48.5086 23.9897 47.7137 22.6037L39.5404 27.2713C39.9073 27.9643 40.213 28.6776 40.4169 29.4318ZM23.8869 27.2713C24.2742 26.619 24.743 25.9872 25.3137 25.4369L25.3341 25.4165L21.9506 22.0738L18.7099 18.7515L18.6487 18.8127C17.5073 19.9337 16.529 21.2178 15.7137 22.5834L23.8869 27.2713ZM38.0729 25.4369L41.4156 22.1146L44.8398 18.8942L44.7583 18.8127C43.6169 17.6713 42.3328 16.7133 40.9468 15.898L36.2181 23.9897C36.8907 24.377 37.5022 24.8458 38.0729 25.3961V25.4369ZM27.1888 23.9897C27.8614 23.6025 28.5952 23.2967 29.3493 23.0929L26.9442 14.0636C25.3748 14.4713 23.8869 15.0827 22.4806 15.898L27.1888 23.9897ZM34.0372 23.1133L36.4831 14.084C34.9341 13.6764 33.3239 13.4521 31.7137 13.4521V22.8076C32.4882 22.8076 33.2831 22.9095 34.0372 23.1133Z" fill="white"/>
</g>
<defs>
<clipPath id="clip0_2766_214">
<rect x="-0.000976562" width="64" height="63.3885" rx="10" fill="white"/>
</clipPath>
</defs>
</svg>
