<svg width="580" height="118" viewBox="0 0 580 118" fill="none" xmlns="http://www.w3.org/2000/svg">
<g opacity="0.1">
<mask id="path-1-outside-1_2761_130" maskUnits="userSpaceOnUse" x="-2.1792" y="-1.79443" width="584" height="122" fill="black">
<rect fill="white" x="-2.1792" y="-1.79443" width="584" height="122"/>
<path d="M48.7833 117.767C42.1674 117.767 35.8182 117.286 29.7358 116.326C23.6535 115.366 18.1046 114.032 13.0893 112.324C8.18074 110.51 3.9124 108.536 0.284318 106.402L14.85 78.5512C19.0116 80.8988 23.1733 82.8729 27.3349 84.4735C31.6032 85.9674 35.8182 87.0879 39.9799 87.8348C44.2482 88.5818 48.4632 88.9553 52.6248 88.9553C55.9328 88.9553 58.6538 88.6885 60.788 88.155C63.0289 87.6214 64.6829 86.8745 65.7499 85.9141C66.9237 84.847 67.5106 83.6732 67.5106 82.3927C67.5106 80.6854 66.5503 79.2982 64.6295 78.2311C62.7088 77.164 60.1478 76.2036 56.9465 75.35C53.852 74.4963 50.3839 73.6426 46.5424 72.789C42.8076 71.8286 39.0195 70.6548 35.178 69.2676C31.3365 67.7737 27.8151 65.9063 24.6138 63.6654C21.5193 61.4245 19.0116 58.5967 17.0909 55.1821C15.1701 51.7674 14.2098 47.6058 14.2098 42.6972C14.2098 34.1605 16.4506 26.7443 20.9324 20.4485C25.5209 14.1527 32.0301 9.29744 40.46 5.88277C48.9967 2.36139 59.134 0.600703 70.8719 0.600703C79.1952 0.600703 86.9316 1.45437 94.081 3.1617C101.337 4.76233 107.58 7.10991 112.808 10.2045L99.203 37.7352C94.7213 34.9608 89.8127 32.88 84.4773 31.4928C79.2486 30.1056 73.9131 29.412 68.471 29.412C64.8429 29.412 61.8017 29.7855 59.3474 30.5324C56.8931 31.1727 55.0257 32.0797 53.7452 33.2535C52.5715 34.4273 51.9846 35.6544 51.9846 36.9349C51.9846 38.6423 52.9449 40.0828 54.8657 41.2566C56.7864 42.3237 59.3474 43.2841 62.5487 44.1377C65.7499 44.8847 69.218 45.7384 72.9528 46.6987C76.7943 47.5524 80.5824 48.6729 84.3172 50.0601C88.1587 51.3406 91.6801 53.1013 94.8813 55.3421C98.0826 57.4763 100.644 60.2507 102.564 63.6654C104.485 66.9733 105.445 71.0816 105.445 75.9902C105.445 84.3135 103.151 91.623 98.5628 97.9188C93.9743 104.108 87.4118 108.963 78.8751 112.484C70.4451 116.006 60.4145 117.767 48.7833 117.767ZM165.985 117.767C154.354 117.767 144.644 115.579 136.854 111.204C129.064 106.722 123.515 100.533 120.208 92.6367C117.006 84.6336 116.473 75.35 118.607 64.7858L130.932 3.1617H168.706L156.542 64.1456C155.795 68.0938 155.528 71.5085 155.741 74.3896C155.955 77.2707 156.648 79.6716 157.822 81.5924C159.103 83.5132 160.81 84.9537 162.944 85.9141C165.078 86.7678 167.639 87.1946 170.627 87.1946C174.255 87.1946 177.35 86.4476 179.911 84.9537C182.579 83.4598 184.766 81.0055 186.473 77.5908C188.287 74.1762 189.728 69.6944 190.795 64.1456L202.96 3.1617H240.094L227.449 66.3865C224.142 83.1397 217.366 95.8913 207.122 104.641C196.878 113.392 183.165 117.767 165.985 117.767ZM235.001 115.206L257.41 3.1617H307.189C322.235 3.1617 333.813 6.41631 341.923 12.9255C350.14 19.4347 354.248 28.5583 354.248 40.2962C354.248 49.6866 351.9 57.9565 347.205 65.1059C342.617 72.2554 336.054 77.8043 327.517 81.7525C319.087 85.7007 309.11 87.6748 297.586 87.6748H261.412L281.579 71.1883L272.776 115.206H235.001ZM280.619 75.6701L267.334 58.5434H299.506C304.735 58.5434 308.79 57.2629 311.671 54.7019C314.552 52.0342 315.993 48.3527 315.993 43.6576C315.993 39.6026 314.712 36.7215 312.151 35.0142C309.697 33.2001 306.282 32.2931 301.907 32.2931H272.616L292.784 14.6862L280.619 75.6701ZM401.05 44.778H450.989L445.547 71.9886H395.608L401.05 44.778ZM395.128 86.7144H451.31L445.547 115.206H352.391L374.8 3.1617H465.875L460.113 31.6529H406.172L395.128 86.7144ZM460.089 115.206L482.498 3.1617H532.758C547.59 3.1617 559.061 6.41631 567.171 12.9255C575.281 19.328 579.336 28.3449 579.336 39.9761C579.336 49.3665 576.988 57.583 572.293 64.6258C567.705 71.6685 561.142 77.164 552.605 81.1122C544.176 85.0604 534.198 87.0345 522.674 87.0345H486.5L506.667 71.1883L497.864 115.206H460.089ZM528.596 115.206L505.547 74.3896H544.442L567.811 115.206H528.596ZM505.707 75.6701L492.422 58.5434H524.595C529.823 58.5434 533.878 57.2629 536.759 54.7019C539.64 52.0342 541.081 48.3527 541.081 43.6576C541.081 39.6026 539.8 36.7215 537.239 35.0142C534.785 33.2001 531.37 32.2931 526.995 32.2931H497.704L517.872 14.6862L505.707 75.6701Z"/>
</mask>
<path d="M29.7358 116.326L29.9855 114.745L29.9855 114.745L29.7358 116.326ZM13.0893 112.324L12.5345 113.826L12.5539 113.833L12.5735 113.84L13.0893 112.324ZM0.284318 106.402L-1.13405 105.66L-1.83974 107.01L-0.527232 107.782L0.284318 106.402ZM14.85 78.5512L15.6364 77.1571L14.1974 76.3453L13.4317 77.8094L14.85 78.5512ZM27.3349 84.4735L26.7603 85.9675L26.7831 85.9762L26.8061 85.9843L27.3349 84.4735ZM39.9799 87.8348L39.6971 89.4103L39.7039 89.4115L39.9799 87.8348ZM60.788 88.155L60.4173 86.5979L60.4085 86.6L60.3998 86.6021L60.788 88.155ZM65.7499 85.9141L66.8207 87.1038L66.8266 87.0985L65.7499 85.9141ZM64.6295 78.2311L63.8522 79.6303L63.8522 79.6303L64.6295 78.2311ZM56.9465 75.35L56.5208 76.893L56.5341 76.8965L56.9465 75.35ZM46.5424 72.789L46.1438 74.3392L46.1694 74.3457L46.1952 74.3515L46.5424 72.789ZM35.178 69.2676L34.5978 70.7594L34.616 70.7664L34.6343 70.7731L35.178 69.2676ZM24.6138 63.6654L23.6751 64.9618L23.6854 64.9693L23.6959 64.9767L24.6138 63.6654ZM17.0909 55.1821L18.486 54.3973L18.486 54.3973L17.0909 55.1821ZM20.9324 20.4485L19.6389 19.5057L19.6336 19.5129L19.6284 19.5202L20.9324 20.4485ZM40.46 5.88277L41.061 7.36634L41.0704 7.36245L40.46 5.88277ZM94.081 3.1617L93.7092 4.71855L93.7227 4.72177L93.7362 4.72475L94.081 3.1617ZM112.808 10.2045L114.243 10.9136L114.901 9.58296L113.624 8.827L112.808 10.2045ZM99.203 37.7352L98.3605 39.0962L99.8578 40.0231L100.638 38.4444L99.203 37.7352ZM84.4773 31.4928L84.0668 33.0399L84.0745 33.0419L84.4773 31.4928ZM59.3474 30.5324L59.7515 32.0812L59.7826 32.0731L59.8135 32.0637L59.3474 30.5324ZM53.7452 33.2535L52.6637 32.0736L52.638 32.0971L52.6134 32.1217L53.7452 33.2535ZM54.8657 41.2566L54.031 42.6224L54.0593 42.6397L54.0884 42.6558L54.8657 41.2566ZM62.5487 44.1377L62.1363 45.6843L62.1605 45.6908L62.185 45.6965L62.5487 44.1377ZM72.9528 46.6987L72.5541 48.2489L72.5797 48.2555L72.6055 48.2613L72.9528 46.6987ZM84.3172 50.0601L83.7599 51.5605L83.7853 51.57L83.811 51.5785L84.3172 50.0601ZM94.8813 55.3421L93.9634 56.6534L93.9783 56.6638L93.9935 56.6739L94.8813 55.3421ZM102.564 63.6654L101.169 64.4501L101.175 64.4596L101.18 64.4691L102.564 63.6654ZM98.5628 97.9188L99.8486 98.8721L99.8563 98.8615L98.5628 97.9188ZM78.8751 112.484L78.2647 111.005L78.2581 111.008L78.8751 112.484ZM48.7833 116.166C42.2448 116.166 35.9794 115.691 29.9855 114.745L29.4862 117.907C35.657 118.881 42.0899 119.367 48.7833 119.367V116.166ZM29.9855 114.745C23.9794 113.797 18.5212 112.483 13.6052 110.809L12.5735 113.84C17.6881 115.581 23.3275 116.935 29.4862 117.907L29.9855 114.745ZM13.6442 110.823C8.80414 109.034 4.62529 107.099 1.09587 105.022L-0.527232 107.782C3.19951 109.974 7.55735 111.986 12.5345 113.826L13.6442 110.823ZM1.70268 107.144L16.2684 79.293L13.4317 77.8094L-1.13405 105.66L1.70268 107.144ZM14.0636 79.9453C18.2885 82.3286 22.5208 84.3369 26.7603 85.9675L27.9095 82.9796C23.8258 81.4089 19.7348 79.469 15.6364 77.1571L14.0636 79.9453ZM26.8061 85.9843C31.1491 87.5043 35.4463 88.6473 39.6971 89.4103L40.2626 86.2594C36.1901 85.5284 32.0574 84.4306 27.8637 82.9628L26.8061 85.9843ZM39.7039 89.4115C44.0596 90.1738 48.367 90.5559 52.6248 90.5559V87.3547C48.5594 87.3547 44.4367 86.9898 40.2558 86.2582L39.7039 89.4115ZM52.6248 90.5559C56.005 90.5559 58.8686 90.2847 61.1762 89.7078L60.3998 86.6021C58.439 87.0923 55.8605 87.3547 52.6248 87.3547V90.5559ZM61.1587 89.7121C63.5188 89.1501 65.4692 88.3202 66.8207 87.1038L64.6792 84.7244C63.8965 85.4288 62.5389 86.0927 60.4173 86.5979L61.1587 89.7121ZM66.8266 87.0985C68.2484 85.806 69.1113 84.2283 69.1113 82.3927H65.91C65.91 83.1181 65.5991 83.8881 64.6732 84.7297L66.8266 87.0985ZM69.1113 82.3927C69.1113 79.9332 67.6664 78.0872 65.4068 76.8319L63.8522 79.6303C65.4341 80.5092 65.91 81.4376 65.91 82.3927H69.1113ZM65.4068 76.8319C63.3286 75.6773 60.63 74.6757 57.3589 73.8034L56.5341 76.8965C59.6655 77.7316 62.0889 78.6507 63.8522 79.6303L65.4068 76.8319ZM57.3722 73.807C54.2466 72.9448 50.7518 72.0847 46.8896 71.2264L46.1952 74.3515C50.016 75.2005 53.4573 76.0478 56.5208 76.893L57.3722 73.807ZM46.941 71.2388C43.258 70.2917 39.5183 69.1331 35.7216 67.7621L34.6343 70.7731C38.5207 72.1765 42.3572 73.3655 46.1438 74.3392L46.941 71.2388ZM35.7581 67.7758C32.0295 66.3258 28.6225 64.5176 25.5317 62.3541L23.6959 64.9767C27.0077 67.2949 30.6435 69.2216 34.5978 70.7594L35.7581 67.7758ZM25.5526 62.369C22.6502 60.2672 20.2963 57.6158 18.486 54.3973L15.6958 55.9668C17.727 59.5777 20.3884 62.5818 23.6751 64.9618L25.5526 62.369ZM18.486 54.3973C16.73 51.2756 15.8104 47.3994 15.8104 42.6972H12.6091C12.6091 47.8122 13.6103 52.2592 15.6958 55.9668L18.486 54.3973ZM15.8104 42.6972C15.8104 34.4568 17.9677 27.3732 22.2364 21.3767L19.6284 19.5202C14.9336 26.1154 12.6091 33.8642 12.6091 42.6972H15.8104ZM22.2259 21.3912C26.6108 15.3748 32.8607 10.6879 41.061 7.36631L39.8591 4.39923C31.1995 7.90693 24.4309 12.9306 19.6389 19.5057L22.2259 21.3912ZM41.0704 7.36245C49.3688 3.93937 59.2889 2.20133 70.8719 2.20133V-0.999924C58.9791 -0.999924 48.6247 0.783408 39.8497 4.40309L41.0704 7.36245ZM70.8719 2.20133C79.0862 2.20133 86.6964 3.04384 93.7092 4.71855L94.4528 1.60485C87.1668 -0.1351 79.3042 -0.999924 70.8719 -0.999924V2.20133ZM93.7362 4.72475C100.862 6.29668 106.939 8.59055 111.993 11.5819L113.624 8.827C108.221 5.62927 101.812 3.22797 94.4258 1.59865L93.7362 4.72475ZM111.373 9.49532L97.7681 37.0261L100.638 38.4444L114.243 10.9136L111.373 9.49532ZM100.046 36.3743C95.4213 33.5117 90.3635 31.3694 84.88 29.9437L84.0745 33.0419C89.2619 34.3906 94.0213 36.41 98.3605 39.0962L100.046 36.3743ZM84.8877 29.9457C79.5243 28.5227 74.0509 27.8114 68.471 27.8114V31.0126C73.7754 31.0126 78.9728 31.6884 84.0668 33.0399L84.8877 29.9457ZM68.471 27.8114C64.7448 27.8114 61.5349 28.1935 58.8814 29.0011L59.8135 32.0637C62.0685 31.3774 64.941 31.0126 68.471 31.0126V27.8114ZM58.9434 28.9836C56.3445 29.6616 54.2047 30.6609 52.6637 32.0736L54.8268 34.4334C55.8468 33.4985 57.4418 32.6837 59.7515 32.0812L58.9434 28.9836ZM52.6134 32.1217C51.2323 33.5028 50.3839 35.1145 50.3839 36.9349H53.5852C53.5852 36.1943 53.9106 35.3517 54.8771 34.3853L52.6134 32.1217ZM50.3839 36.9349C50.3839 39.3749 51.8058 41.2626 54.031 42.6224L55.7003 39.8908C54.084 38.9031 53.5852 37.9096 53.5852 36.9349H50.3839ZM54.0884 42.6558C56.1666 43.8104 58.8652 44.812 62.1363 45.6843L62.9611 42.5912C59.8297 41.7561 57.4063 40.837 55.643 39.8574L54.0884 42.6558ZM62.185 45.6965C65.3728 46.4403 68.829 47.2911 72.5541 48.2489L73.3514 45.1485C69.6069 44.1857 66.1271 43.3291 62.9124 42.579L62.185 45.6965ZM72.6055 48.2613C76.3748 49.0989 80.0928 50.1985 83.7599 51.5605L84.8745 48.5596C81.0721 47.1472 77.2137 46.006 73.3 45.1362L72.6055 48.2613ZM83.811 51.5785C87.5114 52.812 90.8933 54.5043 93.9634 56.6534L95.7992 54.0308C92.4669 51.6982 88.8061 49.8691 84.8234 48.5416L83.811 51.5785ZM93.9935 56.6739C96.981 58.6656 99.3698 61.251 101.169 64.4501L103.959 62.8807C101.917 59.2504 99.1842 56.287 95.7692 54.0103L93.9935 56.6739ZM101.18 64.4691C102.924 67.4731 103.845 71.2856 103.845 75.9902H107.046C107.046 70.8777 106.046 66.4736 103.949 62.8617L101.18 64.4691ZM103.845 75.9902C103.845 83.9992 101.644 90.9733 97.2692 96.976L99.8563 98.8615C104.658 92.2727 107.046 84.6277 107.046 75.9902H103.845ZM97.277 96.9655C92.8933 102.878 86.5863 107.572 78.2647 111.005L79.4854 113.964C88.2373 110.354 95.0554 105.337 99.8486 98.8721L97.277 96.9655ZM78.2581 111.008C70.0691 114.428 60.2583 116.166 48.7833 116.166V119.367C60.5708 119.367 70.8212 117.583 79.492 113.961L78.2581 111.008ZM136.854 111.204L136.056 112.591L136.063 112.596L136.07 112.6L136.854 111.204ZM120.208 92.6367L118.721 93.2312L118.726 93.2432L118.731 93.2552L120.208 92.6367ZM118.607 64.7858L120.176 65.1028L120.176 65.0997L118.607 64.7858ZM130.932 3.1617V1.56107H129.619L129.362 2.84779L130.932 3.1617ZM168.706 3.1617L170.276 3.47482L170.658 1.56107H168.706V3.1617ZM156.542 64.1456L154.972 63.8325L154.97 63.8402L154.969 63.848L156.542 64.1456ZM155.741 74.3896L157.338 74.2713L157.338 74.2713L155.741 74.3896ZM157.822 81.5924L156.456 82.427L156.473 82.454L156.49 82.4803L157.822 81.5924ZM162.944 85.9141L162.287 87.3737L162.318 87.3876L162.35 87.4002L162.944 85.9141ZM179.911 84.9537L179.129 83.5572L179.117 83.564L179.104 83.5711L179.911 84.9537ZM186.473 77.5908L185.06 76.8399L185.051 76.8573L185.042 76.875L186.473 77.5908ZM190.795 64.1456L189.225 63.8325L189.223 63.8433L190.795 64.1456ZM202.96 3.1617V1.56107H201.647L201.39 2.84858L202.96 3.1617ZM240.094 3.1617L241.664 3.47561L242.047 1.56107H240.094V3.1617ZM227.449 66.3865L225.88 66.0725L225.879 66.0764L227.449 66.3865ZM207.122 104.641L208.161 105.858L208.161 105.858L207.122 104.641ZM165.985 116.166C154.548 116.166 145.127 114.014 137.638 109.808L136.07 112.6C144.161 117.144 154.16 119.367 165.985 119.367V116.166ZM137.652 109.817C130.151 105.501 124.849 99.5741 121.684 92.0183L118.731 93.2552C122.182 101.492 127.978 107.944 136.056 112.591L137.652 109.817ZM121.694 92.0423C118.634 84.3932 118.088 75.438 120.176 65.1028L117.038 64.4689C114.858 75.262 115.378 84.874 118.721 93.2312L121.694 92.0423ZM120.176 65.0997L132.501 3.47561L129.362 2.84779L117.037 64.4719L120.176 65.0997ZM130.932 4.76233H168.706V1.56107H130.932V4.76233ZM167.137 2.84858L154.972 63.8325L158.111 64.4587L170.276 3.47482L167.137 2.84858ZM154.969 63.848C154.205 67.8842 153.918 71.4454 154.145 74.5078L157.338 74.2713C157.138 71.5715 157.384 68.3034 158.114 64.4431L154.969 63.848ZM154.145 74.5078C154.372 77.5729 155.118 80.2365 156.456 82.427L159.188 80.7578C158.179 79.1068 157.537 76.9685 157.338 74.2713L154.145 74.5078ZM156.49 82.4803C157.94 84.6549 159.883 86.2918 162.287 87.3737L163.601 84.4544C161.737 83.6157 160.265 82.3714 159.154 80.7045L156.49 82.4803ZM162.35 87.4002C164.72 88.3485 167.494 88.7952 170.627 88.7952V85.594C167.785 85.594 165.436 85.187 163.539 84.4279L162.35 87.4002ZM170.627 88.7952C174.476 88.7952 177.862 88.0018 180.717 86.3363L179.104 83.5711C176.837 84.8935 174.035 85.594 170.627 85.594V88.7952ZM180.693 86.3503C183.703 84.6646 186.09 81.9366 187.905 78.3067L185.042 76.875C183.442 80.0744 181.454 82.255 179.129 83.5572L180.693 86.3503ZM187.887 78.3418C189.802 74.7376 191.282 70.088 192.367 64.4478L189.223 63.8433C188.174 69.3008 186.773 73.6147 185.06 76.8399L187.887 78.3418ZM192.365 64.4587L204.53 3.47482L201.39 2.84858L189.225 63.8325L192.365 64.4587ZM202.96 4.76233H240.094V1.56107H202.96V4.76233ZM238.525 2.84779L225.88 66.0725L229.019 66.7004L241.664 3.47561L238.525 2.84779ZM225.879 66.0764C222.622 82.5723 215.986 94.9648 206.082 103.424L208.161 105.858C218.745 96.8178 225.661 83.707 229.02 66.6965L225.879 66.0764ZM206.082 103.424C196.2 111.865 182.892 116.166 165.985 116.166V119.367C183.439 119.367 197.555 114.918 208.161 105.858L206.082 103.424ZM235.001 115.206L233.432 114.892L233.049 116.806H235.001V115.206ZM257.41 3.1617V1.56107H256.098L255.84 2.84779L257.41 3.1617ZM341.923 12.9255L340.921 14.1738L340.929 14.1802L341.923 12.9255ZM347.205 65.1059L345.867 64.2273L345.863 64.2343L345.858 64.2414L347.205 65.1059ZM327.517 81.7525L326.845 80.2997L326.838 80.3029L327.517 81.7525ZM261.412 87.6748L260.398 86.4355L256.924 89.2754H261.412V87.6748ZM281.579 71.1883L283.149 71.5022L284.025 67.1217L280.566 69.9491L281.579 71.1883ZM272.776 115.206V116.806H274.088L274.346 115.519L272.776 115.206ZM280.619 75.6701L279.354 76.6511L281.503 79.4211L282.189 75.9832L280.619 75.6701ZM267.334 58.5434V56.9428H264.066L266.069 59.5244L267.334 58.5434ZM311.671 54.7019L312.735 55.8982L312.747 55.8874L312.759 55.8764L311.671 54.7019ZM312.151 35.0142L311.2 36.3014L311.231 36.3244L311.264 36.346L312.151 35.0142ZM272.616 32.2931L271.563 31.0873L268.349 33.8937H272.616V32.2931ZM292.784 14.6862L294.353 14.9993L295.273 10.388L291.731 13.4804L292.784 14.6862ZM236.571 115.519L258.979 3.47561L255.84 2.84779L233.432 114.892L236.571 115.519ZM257.41 4.76233H307.189V1.56107H257.41V4.76233ZM307.189 4.76233C322.029 4.76233 333.198 7.97512 340.921 14.1738L342.925 11.6772C334.428 4.85749 322.441 1.56107 307.189 1.56107V4.76233ZM340.929 14.1802C348.713 20.3467 352.647 28.9807 352.647 40.2962H355.848C355.848 28.136 351.566 18.5228 342.917 11.6709L340.929 14.1802ZM352.647 40.2962C352.647 49.4061 350.374 57.3642 345.867 64.2273L348.543 65.9846C353.426 58.5488 355.848 49.967 355.848 40.2962H352.647ZM345.858 64.2414C341.451 71.1076 335.136 76.4652 326.845 80.2997L328.189 83.2052C336.972 79.1433 343.782 73.4033 348.552 65.9705L345.858 64.2414ZM326.838 80.3029C318.665 84.1309 308.93 86.0742 297.586 86.0742V89.2754C309.29 89.2754 319.509 87.2705 328.196 83.202L326.838 80.3029ZM297.586 86.0742H261.412V89.2754H297.586V86.0742ZM262.425 88.914L282.592 72.4276L280.566 69.9491L260.398 86.4355L262.425 88.914ZM280.01 70.8744L271.206 114.892L274.346 115.519L283.149 71.5022L280.01 70.8744ZM272.776 113.605H235.001V116.806H272.776V113.605ZM281.884 74.689L268.599 57.5623L266.069 59.5244L279.354 76.6511L281.884 74.689ZM267.334 60.144H299.506V56.9428H267.334V60.144ZM299.506 60.144C304.986 60.144 309.47 58.8001 312.735 55.8982L310.608 53.5056C308.11 55.7256 304.484 56.9428 299.506 56.9428V60.144ZM312.759 55.8764C316.031 52.8469 317.593 48.7039 317.593 43.6576H314.392C314.392 48.0015 313.074 51.2215 310.584 53.5274L312.759 55.8764ZM317.593 43.6576C317.593 39.2565 316.183 35.778 313.039 33.6824L311.264 36.346C313.242 37.665 314.392 39.9487 314.392 43.6576H317.593ZM313.103 33.727C310.277 31.6381 306.482 30.6925 301.907 30.6925V33.8937C306.083 33.8937 309.118 34.7622 311.2 36.3014L313.103 33.727ZM301.907 30.6925H272.616V33.8937H301.907V30.6925ZM273.669 33.4989L293.836 15.892L291.731 13.4804L271.563 31.0873L273.669 33.4989ZM291.214 14.3731L279.049 75.357L282.189 75.9832L294.353 14.9993L291.214 14.3731ZM401.05 44.778V43.1774H399.738L399.48 44.4641L401.05 44.778ZM450.989 44.778L452.559 45.0919L452.942 43.1774H450.989V44.778ZM445.547 71.9886V73.5893H446.86L447.117 72.3026L445.547 71.9886ZM395.608 71.9886L394.038 71.6747L393.655 73.5893H395.608V71.9886ZM395.128 86.7144L393.558 86.3996L393.174 88.315H395.128V86.7144ZM451.31 86.7144L452.878 87.0317L453.266 85.1138H451.31V86.7144ZM445.547 115.206V116.806H446.857L447.116 115.523L445.547 115.206ZM352.391 115.206L350.821 114.892L350.438 116.806H352.391V115.206ZM374.8 3.1617V1.56107H373.487L373.23 2.84779L374.8 3.1617ZM465.875 3.1617L467.444 3.479L467.832 1.56107H465.875V3.1617ZM460.113 31.6529V33.2535H461.422L461.682 31.9702L460.113 31.6529ZM406.172 31.6529V30.0522H404.86L404.603 31.3381L406.172 31.6529ZM401.05 46.3786H450.989V43.1774H401.05V46.3786ZM449.42 44.4641L443.978 71.6747L447.117 72.3026L452.559 45.0919L449.42 44.4641ZM445.547 70.388H395.608V73.5893H445.547V70.388ZM397.177 72.3026L402.619 45.0919L399.48 44.4641L394.038 71.6747L397.177 72.3026ZM395.128 88.315H451.31V85.1138H395.128V88.315ZM449.741 86.3971L443.978 114.888L447.116 115.523L452.878 87.0317L449.741 86.3971ZM445.547 113.605H352.391V116.806H445.547V113.605ZM353.96 115.519L376.369 3.47561L373.23 2.84779L350.821 114.892L353.96 115.519ZM374.8 4.76233H465.875V1.56107H374.8V4.76233ZM464.306 2.8444L458.544 31.3356L461.682 31.9702L467.444 3.479L464.306 2.8444ZM460.113 30.0522H406.172V33.2535H460.113V30.0522ZM404.603 31.3381L393.558 86.3996L396.697 87.0292L407.741 31.9676L404.603 31.3381ZM460.089 115.206L458.52 114.892L458.137 116.806H460.089V115.206ZM482.498 3.1617V1.56107H481.186L480.928 2.84779L482.498 3.1617ZM567.171 12.9255L566.169 14.1738L566.179 14.1818L567.171 12.9255ZM572.293 64.6258L570.961 63.7379L570.957 63.7449L570.952 63.752L572.293 64.6258ZM552.605 81.1122L551.934 79.6594L551.927 79.6627L552.605 81.1122ZM486.5 87.0345L485.511 85.7759L481.872 88.6352H486.5V87.0345ZM506.667 71.1883L508.237 71.5022L509.087 67.2516L505.679 69.9297L506.667 71.1883ZM497.864 115.206V116.806H499.176L499.434 115.519L497.864 115.206ZM528.596 115.206L527.202 115.993L527.662 116.806H528.596V115.206ZM505.547 74.3896V72.789H502.805L504.153 75.1766L505.547 74.3896ZM544.442 74.3896L545.831 73.5943L545.37 72.789H544.442V74.3896ZM567.811 115.206V116.806H570.572L569.2 114.41L567.811 115.206ZM505.707 75.6701L504.442 76.6511L506.591 79.4211L507.277 75.9832L505.707 75.6701ZM492.422 58.5434V56.9428H489.155L491.157 59.5244L492.422 58.5434ZM536.759 54.7019L537.823 55.8982L537.835 55.8874L537.847 55.8764L536.759 54.7019ZM537.239 35.0142L536.288 36.3014L536.319 36.3244L536.352 36.346L537.239 35.0142ZM497.704 32.2931L496.651 31.0873L493.437 33.8937H497.704V32.2931ZM517.872 14.6862L519.442 14.9993L520.361 10.388L516.819 13.4804L517.872 14.6862ZM461.659 115.519L484.068 3.47561L480.928 2.84779L458.52 114.892L461.659 115.519ZM482.498 4.76233H532.758V1.56107H482.498V4.76233ZM532.758 4.76233C547.378 4.76233 558.443 7.97231 566.169 14.1738L568.173 11.6772C559.68 4.8603 547.803 1.56107 532.758 1.56107V4.76233ZM566.179 14.1818C573.853 20.2399 577.735 28.7648 577.735 39.9761H580.937C580.937 27.925 576.709 18.4161 568.163 11.6692L566.179 14.1818ZM577.735 39.9761C577.735 49.0864 575.462 56.9864 570.961 63.7379L573.625 65.5136C578.514 58.1796 580.937 49.6465 580.937 39.9761H577.735ZM570.952 63.752C566.547 70.5135 560.231 75.822 551.934 79.6594L553.277 82.565C562.054 78.506 568.863 72.8235 573.634 65.4995L570.952 63.752ZM551.927 79.6627C543.753 83.4906 534.018 85.4339 522.674 85.4339V88.6352C534.378 88.6352 544.598 86.6302 553.284 82.5617L551.927 79.6627ZM522.674 85.4339H486.5V88.6352H522.674V85.4339ZM487.489 88.2931L507.656 72.4469L505.679 69.9297L485.511 85.7759L487.489 88.2931ZM505.098 70.8744L496.295 114.892L499.434 115.519L508.237 71.5022L505.098 70.8744ZM497.864 113.605H460.089V116.806H497.864V113.605ZM529.99 114.418L506.941 73.6025L504.153 75.1766L527.202 115.993L529.99 114.418ZM505.547 75.9902H544.442V72.789H505.547V75.9902ZM543.053 75.1849L566.422 116.001L569.2 114.41L545.831 73.5943L543.053 75.1849ZM567.811 113.605H528.596V116.806H567.811V113.605ZM506.972 74.689L493.687 57.5623L491.157 59.5244L504.442 76.6511L506.972 74.689ZM492.422 60.144H524.595V56.9428H492.422V60.144ZM524.595 60.144C530.074 60.144 534.558 58.8001 537.823 55.8982L535.696 53.5056C533.198 55.7256 529.572 56.9428 524.595 56.9428V60.144ZM537.847 55.8764C541.119 52.8469 542.682 48.7039 542.682 43.6576H539.48C539.48 48.0015 538.162 51.2215 535.672 53.5274L537.847 55.8764ZM542.682 43.6576C542.682 39.2565 541.271 35.778 538.127 33.6824L536.352 36.346C538.33 37.665 539.48 39.9487 539.48 43.6576H542.682ZM538.191 33.727C535.365 31.6381 531.57 30.6925 526.995 30.6925V33.8937C531.171 33.8937 534.206 34.7622 536.288 36.3014L538.191 33.727ZM526.995 30.6925H497.704V33.8937H526.995V30.6925ZM498.757 33.4989L518.925 15.892L516.819 13.4804L496.651 31.0873L498.757 33.4989ZM516.302 14.3731L504.137 75.357L507.277 75.9832L519.442 14.9993L516.302 14.3731Z" fill="#FFD615" mask="url(#path-1-outside-1_2761_130)"/>
</g>
</svg>
