<svg width="30" height="46" viewBox="0 0 30 46" fill="none" xmlns="http://www.w3.org/2000/svg">
<path d="M15.8322 15.6536C15.6821 15.6975 15.5444 15.776 15.4302 15.8827C13.1231 18.0315 10.9932 20.0083 9.04047 21.8132C8.99627 21.8543 8.96127 21.9043 8.93776 21.9598C8.91425 22.0154 8.90277 22.0753 8.90406 22.1355C8.91125 22.3695 9.04162 22.5306 9.29517 22.619C11.0492 23.2254 12.7495 23.8223 14.3961 24.4096C14.4524 24.43 14.5024 24.4645 14.5416 24.5096C14.5807 24.5548 14.6077 24.6091 14.6199 24.6676C14.6321 24.726 14.6292 24.7866 14.6114 24.8436C14.5936 24.9006 14.5615 24.9521 14.5182 24.9933C12.3928 26.9964 10.2641 28.9768 8.13204 30.9346C8.01953 31.0371 7.86996 31.0287 7.68334 30.9095C7.628 30.8736 7.58629 30.8202 7.56482 30.7579C7.54335 30.6956 7.54335 30.628 7.56482 30.5657L8.46946 27.8905C8.59153 27.5324 8.47428 27.29 8.1177 27.1634L0.267141 24.3775C0.202364 24.3549 0.144537 24.316 0.0992619 24.2646C0.0539871 24.2131 0.0227993 24.1509 0.00871998 24.0839C-0.00535929 24.0169 -0.0018527 23.9474 0.0188999 23.8821C0.0396526 23.8169 0.0769478 23.758 0.127172 23.7114L25.3774 0.204074C25.4938 0.0947813 25.6423 0.0257204 25.801 0.00709165C26.148 -0.0335029 26.2713 0.100183 26.1708 0.40815C24.5028 5.56996 22.8025 10.832 21.0698 16.1943C20.9549 16.5476 21.0722 16.7852 21.4216 16.9069C24.2958 17.9263 27.0192 18.9028 29.5918 19.8363C29.7307 19.8848 29.8536 19.9702 29.9473 20.0834C29.9917 20.1376 30.0139 20.2066 30.0092 20.2764C30.0045 20.3462 29.9734 20.4116 29.9222 20.4594C21.065 28.7729 12.3479 36.9728 3.77074 45.0592C3.54342 45.2741 3.32444 45.3565 3.1138 45.3064C2.91034 45.2586 2.84093 45.1368 2.90556 44.9411L5.35732 37.3345C5.4543 37.0332 5.62735 36.7619 5.85984 36.5466L21.0552 22.4149C21.1077 22.3657 21.1467 22.304 21.1685 22.2355C21.1904 22.1671 21.1943 22.0942 21.1799 22.0238C21.1657 21.9538 21.1335 21.8887 21.0865 21.8348C21.0395 21.7809 20.9793 21.7401 20.9117 21.7164L15.5128 19.801C15.391 19.7578 15.2908 19.6689 15.2338 19.5531C15.1768 19.4374 15.1674 19.304 15.2076 19.1814L16.2199 16.055C16.2378 16.0005 16.2405 15.9422 16.2277 15.8864C16.2149 15.8305 16.187 15.7792 16.1472 15.7379C16.1073 15.6967 16.0569 15.6671 16.0014 15.6523C15.9459 15.6375 15.8874 15.638 15.8322 15.6539V15.6536Z" fill="#FFDD2E"/>
</svg>
