<?xml version="1.0" encoding="utf-8"?><svg viewBox="0 0 80 31" xmlns="http://www.w3.org/2000/svg" xmlns:xlink="http://www.w3.org/1999/xlink"><style>:root>svg{display:none}:root>svg:target{display:block}</style><svg viewBox="0 0 18 18" id="arrow" xmlns="http://www.w3.org/2000/svg"><path d="M3.75 13.193l1.058 1.057 7.942-7.942v4.942h1.5v-7.5h-7.5v1.5h4.943L3.75 13.193z"/></svg><svg viewBox="0 0 80 31" id="bybit" xmlns="http://www.w3.org/2000/svg"><path d="M55.148 21.926V2.658h3.986v19.268h-3.986zm-44.435 5.98H2.658V8.638h7.728c3.76 0 5.948 2.111 5.948 5.416 0 2.142-1.405 3.52-2.375 3.978 1.158.54 2.652 1.755 2.652 4.335 0 3.59-2.464 5.539-5.898 5.539zm-.614-15.912H6.428v4.437h3.671c1.594 0 2.484-.898 2.484-2.224s-.89-2.214-2.484-2.214zm.238 7.813H6.418v4.733h3.919c1.702 0 2.513-1.081 2.513-2.387s-.811-2.346-2.513-2.346zM28.533 20v7.906h-3.891v-7.905L18.604 8.638h4.252l3.747 7.762 3.695-7.762h4.252L28.533 20zm16.73 7.906h-8.055V8.638h7.729c3.76 0 5.947 2.111 5.947 5.416 0 2.142-1.405 3.52-2.375 3.978 1.158.54 2.652 1.755 2.652 4.335-.01 3.59-2.464 5.539-5.898 5.539zm-.623-15.912h-3.672v4.437h3.672c1.593 0 2.484-.898 2.484-2.224s-.891-2.214-2.484-2.214zm.237 7.813h-3.919v4.733h3.92c1.701 0 2.513-1.081 2.513-2.387s-.802-2.346-2.514-2.346zm26.451-7.814v15.913h-3.8V11.994h-5.072V8.637H76.41v3.355h-5.08z"/></svg><svg viewBox="0 0 30 31" id="toncoin" xmlns="http://www.w3.org/2000/svg"><g clip-path="url(#clip0_2752_42)"><path d="M15.05 30.564c8.257 0 14.95-6.693 14.95-14.95C30 7.358 23.307.664 15.05.664 6.794.664.1 7.358.1 15.614c0 8.257 6.694 14.95 14.95 14.95z"/><path fill-rule="evenodd" clip-rule="evenodd" d="M10.886 10.542h8.382c.32 0 .587.053.908.213.374.16.587.428.694.641 0 0 0 .053.053.053.16.268.267.588.267.962 0 .32-.053.64-.267.96l-5.285 9.077c-.107.214-.32.32-.588.32-.213 0-.427-.106-.587-.32l-5.179-9.076c-.107-.214-.32-.48-.32-.908-.054-.374.053-.694.213-1.014.16-.32.427-.588.801-.695.32-.213.694-.213.908-.213zm3.524 1.281h-3.524c-.214 0-.32 0-.374.054a.417.417 0 00-.214.213c-.053.054-.053.16-.053.267 0 .054.053.107.16.32l4.005 6.942v-7.796zm1.28 0v7.849l4.059-6.995c.053-.106.053-.213.053-.32 0-.107 0-.213-.053-.267-.054-.053-.054-.107-.107-.107l-.053-.053c-.107-.053-.214-.053-.374-.053H15.69v-.054z"/></g></svg><svg viewBox="0 0 29 29" id="xbanking" xmlns="http://www.w3.org/2000/svg"><g clip-path="url(#da)"><path d="M10.747 16.83l.333.484c.312.459.622.918.932 1.377.272.405.539.813.811 1.216.263.389.544.766.791 1.164.101.162.216.185.381.185 2.443-.004 4.886-.004 7.329 0a4.51 4.51 0 001.434-.227c.45-.15.846-.401 1.222-.693a3.6 3.6 0 00.785-.853c.22-.329.405-.68.499-1.064.075-.303.149-.61.173-.92.02-.272-.018-.553-.048-.829-.062-.57-.28-1.087-.583-1.566a3.15 3.15 0 00-.74-.833c-.155-.118-.313-.231-.464-.353-.029-.023-.053-.095-.038-.119.264-.418.401-.883.485-1.362.075-.4.067-.81-.021-1.208a8.362 8.362 0 00-.266-.939c-.156-.433-.42-.804-.725-1.148a3.956 3.956 0 00-1.246-.912 3.926 3.926 0 00-.944-.293 4.947 4.947 0 00-.92-.079c-.965-.009-1.932-.002-2.9 0h-.172c1.363-2 2.71-3.979 4.07-5.973.354.186.717.363 1.068.565.317.182.63.375.929.587.357.254.699.53 1.042.804.596.479 1.123 1.029 1.631 1.598.185.208.35.434.516.658.2.271.405.54.584.825.247.393.488.79.701 1.202.22.425.416.861.602 1.304.133.308.245.625.335.948a26.1 26.1 0 01.425 1.788c.08.438.133.881.157 1.326.033.513.054 1.028.037 1.54-.018.513-.08 1.033-.14 1.547-.04.342-.1.683-.173 1.02a10.63 10.63 0 01-.573 1.87c-.195.466-.378.94-.604 1.393-.205.402-.432.792-.68 1.17-.247.387-.508.77-.787 1.132a11.131 11.131 0 01-1.53 1.654c-.4.35-.808.694-1.235 1.011-.39.29-.803.55-1.217.805-.602.372-1.246.664-1.903.924-.457.177-.922.33-1.394.46a12.598 12.598 0 01-2.61.455c-.498.035-1 .054-1.5.042a11.931 11.931 0 01-1.55-.115 17.036 17.036 0 01-1.927-.407c-.538-.15-1.059-.367-1.577-.58a14.848 14.848 0 01-1.2-.566 9.927 9.927 0 01-.973-.581 29.913 29.913 0 01-1.276-.934c-.227-.172-.431-.372-.646-.559-.064-.057-.073-.108-.018-.187.28-.403.552-.812.83-1.217.24-.349.487-.694.725-1.042.302-.439.599-.88.9-1.32.336-.49.676-.98 1.011-1.472.196-.288.384-.58.58-.868.262-.385.528-.766.791-1.15.13-.19.257-.382.386-.573.023-.033.045-.062.085-.112zM4.72 7.894l4.494 6.661-5.565 8.156c-.104-.145-.206-.271-.293-.41-.193-.306-.39-.61-.565-.926-.18-.332-.356-.67-.508-1.017-.201-.46-.388-.927-.56-1.4a7.968 7.968 0 01-.273-.94 32.39 32.39 0 01-.283-1.386c-.039-.206-.053-.415-.074-.624-.067-.674-.123-1.351-.09-2.03a14.568 14.568 0 01.371-2.64c.13-.612.319-1.21.563-1.785.226-.536.45-1.077.718-1.594.314-.611.686-1.19 1.11-1.732.203-.258.39-.53.602-.78.203-.24.426-.462.649-.683.272-.268.544-.534.828-.788.205-.183.419-.354.642-.514.376-.272.752-.544 1.144-.792.352-.22.72-.417 1.09-.603.36-.181.728-.343 1.1-.499.29-.126.59-.234.894-.324a26.351 26.351 0 011.716-.43c.407-.084.829-.105 1.242-.17A7.287 7.287 0 0115.294.57c.67.045 1.34.12 2.007.205.377.048.748.142 1.157.222l-7.703 11.287-.32-.473-.808-1.185c-.22-.326-.437-.654-.658-.98-.269-.399-.54-.796-.81-1.194a23.32 23.32 0 01-.296-.453c-.059-.095-.124-.147-.25-.145-.902.006-1.804.003-2.706.003h-.163l-.026.036z"/><path d="M12.283 14.56l.955-1.399c.316-.463.629-.914.941-1.372.265-.389.533-.774.787-1.17.091-.145.185-.215.373-.213 1.608.01 3.217.005 4.825.007.436 0 .78.186 1.056.524a1.374 1.374 0 01.326 1.035c-.05.512-.31.898-.77 1.143-.235.12-.496.179-.76.172H14.63a.257.257 0 00-.251.136c-.218.34-.457.669-.691.997a.216.216 0 000 .282c.242.347.473.7.72 1.044.035.048.132.073.2.073.97.005 1.941.004 2.912.004 1.294 0 2.588.003 3.882 0 .431 0 .802.136 1.102.444.488.503.535 1.314.11 1.858-.306.39-.71.575-1.202.575h-6.208a.181.181 0 01-.18-.09c-.229-.351-.469-.695-.703-1.043-.41-.61-.816-1.223-1.23-1.834-.264-.39-.535-.777-.808-1.173z"/></g><defs><clipPath id="da"><path transform="translate(.973 .533)" d="M0 0h28.031v28.031H0z"/></clipPath></defs></svg></svg>